<svg width="11" height="12" viewBox="0 0 11 12" fill="none" xmlns="http://www.w3.org/2000/svg">
<g id="Create">
<path id="Create_2" d="M10.2143 6.78571H6.28571V10.7143C6.28571 10.9227 6.20293 11.1225 6.05558 11.2699C5.90823 11.4172 5.70838 11.5 5.5 11.5C5.29162 11.5 5.09177 11.4172 4.94442 11.2699C4.79707 11.1225 4.71429 10.9227 4.71429 10.7143V6.78571H0.785714C0.57733 6.78571 0.377481 6.70293 0.230131 6.55558C0.0827805 6.40823 0 6.20838 0 6C0 5.79162 0.0827805 5.59177 0.230131 5.44442C0.377481 5.29707 0.57733 5.21429 0.785714 5.21429H4.71429V1.28571C4.71429 1.07733 4.79707 0.87748 4.94442 0.73013C5.09177 0.58278 5.29162 0.5 5.5 0.5C5.70838 0.5 5.90823 0.58278 6.05558 0.73013C6.20293 0.87748 6.28571 1.07733 6.28571 1.28571V5.21429H10.2143C10.4227 5.21429 10.6225 5.29707 10.7699 5.44442C10.9172 5.59177 11 5.79162 11 6C11 6.20838 10.9172 6.40823 10.7699 6.55558C10.6225 6.70293 10.4227 6.78571 10.2143 6.78571Z" fill="#636566"/>
</g>
</svg>
