<svg width="24" height="22" viewBox="0 0 24 22" fill="none" xmlns="http://www.w3.org/2000/svg">
<path id="Home" d="M12.4781 1.01074C12.3395 0.902659 12.1687 0.843964 11.993 0.843964C11.8172 0.843964 11.6464 0.902659 11.5078 1.01074L0.28125 9.76464L1.25234 10.9928L2.625 9.92246V19.5935C2.62583 20.0077 2.79071 20.4046 3.08356 20.6975C3.3764 20.9903 3.77335 21.1552 4.1875 21.156H19.8125C20.2266 21.1552 20.6236 20.9903 20.9164 20.6975C21.2093 20.4046 21.3742 20.0077 21.375 19.5935V9.92949L22.7477 10.9998L23.7188 9.77168L12.4781 1.01074ZM13.5625 19.5935H10.4375V13.3435H13.5625V19.5935ZM15.125 19.5935V13.3435C15.1246 12.9293 14.9598 12.5321 14.6669 12.2392C14.374 11.9462 13.9768 11.7815 13.5625 11.781H10.4375C10.0232 11.7815 9.62604 11.9462 9.3331 12.2392C9.04017 12.5321 8.87541 12.9293 8.875 13.3435V19.5935H4.1875V8.70449L12 2.61855L19.8125 8.7123V19.5935H15.125Z" fill="white"/>
</svg>
