<svg width="20" height="22" viewBox="0 0 20 22" fill="none" xmlns="http://www.w3.org/2000/svg">
<path id="icon" d="M12.0317 0.738907C12.1869 0.738912 12.338 0.788166 12.4634 0.879575C12.5888 0.970985 12.682 1.09983 12.7295 1.24756L13.5357 3.75274C13.8743 3.91838 14.1983 4.10455 14.5076 4.31416L17.0816 3.76007C17.2334 3.72766 17.3915 3.74427 17.5333 3.80749C17.675 3.87072 17.793 3.97729 17.8703 4.11188L19.902 7.6285C19.9795 7.763 20.0124 7.91867 19.9958 8.07305C19.9792 8.22744 19.914 8.37256 19.8096 8.4875L18.0432 10.4371C18.069 10.8109 18.069 11.1861 18.0432 11.56L19.8096 13.5125C19.914 13.6274 19.9792 13.7726 19.9958 13.9269C20.0124 14.0813 19.9795 14.237 19.902 14.3715L17.8703 17.8896C17.7928 18.0239 17.6747 18.1302 17.533 18.1931C17.3913 18.2561 17.2332 18.2725 17.0816 18.2399L14.5076 17.6858C14.1997 17.894 13.8743 18.0816 13.5371 18.2473L12.7295 20.7524C12.682 20.9002 12.5888 21.029 12.4634 21.1204C12.338 21.2118 12.1869 21.2611 12.0317 21.2611H7.9683C7.81313 21.2611 7.66196 21.2118 7.53657 21.1204C7.41118 21.029 7.31803 20.9002 7.27055 20.7524L6.46579 18.2487C6.12809 18.0836 5.80236 17.895 5.49098 17.6844L2.91838 18.2399C2.76661 18.2723 2.60847 18.2557 2.46675 18.1925C2.32502 18.1293 2.20702 18.0227 2.12974 17.8881L0.0980457 14.3715C0.0204638 14.237 -0.0123975 14.0813 0.00420008 13.9269C0.0207977 13.7726 0.0859965 13.6274 0.190395 13.5125L1.95677 11.56C1.93117 11.1871 1.93117 10.8129 1.95677 10.44L0.190395 8.4875C0.0859965 8.37256 0.0207977 8.22744 0.00420008 8.07305C-0.0123975 7.91867 0.0204638 7.763 0.0980457 7.6285L2.12974 4.11041C2.20723 3.9761 2.32533 3.86982 2.46704 3.80687C2.60874 3.74392 2.76677 3.72753 2.91838 3.76007L5.49098 4.31563C5.80175 4.10601 6.12717 3.91691 6.46579 3.75127L7.27202 1.24756C7.31934 1.10031 7.41205 0.971802 7.53685 0.880437C7.66165 0.789071 7.81217 0.739531 7.96684 0.738907H12.0302H12.0317ZM11.4952 2.20478H8.50481L7.6722 4.79497L7.11077 5.06909C6.83477 5.20414 6.56833 5.35793 6.31334 5.52937L5.79442 5.88118L3.1324 5.30656L1.63721 7.89822L3.46222 9.91819L3.41824 10.5397C3.39717 10.8462 3.39717 11.1538 3.41824 11.4603L3.46222 12.0818L1.63428 14.1018L3.13093 16.6934L5.79295 16.1203L6.31187 16.4706C6.56687 16.6421 6.8333 16.7959 7.1093 16.9309L7.67073 17.205L8.50481 19.7952H11.4981L12.3337 17.2036L12.8936 16.9309C13.1693 16.7962 13.4353 16.6424 13.6896 16.4706L14.207 16.1203L16.8705 16.6934L18.3657 14.1018L16.5392 12.0818L16.5832 11.4603C16.6044 11.1533 16.6044 10.8452 16.5832 10.5383L16.5392 9.91672L18.3672 7.89822L16.8705 5.30656L14.207 5.87825L13.6896 5.52937C13.4353 5.35762 13.1693 5.20382 12.8936 5.06909L12.3337 4.79644L11.4967 2.20478H11.4952ZM10 6.60239C11.1663 6.60239 12.2849 7.06571 13.1096 7.89042C13.9343 8.71513 14.3976 9.83368 14.3976 11C14.3976 12.1663 13.9343 13.2849 13.1096 14.1096C12.2849 14.9343 11.1663 15.3976 10 15.3976C8.83368 15.3976 7.71513 14.9343 6.89042 14.1096C6.06571 13.2849 5.60239 12.1663 5.60239 11C5.60239 9.83368 6.06571 8.71513 6.89042 7.89042C7.71513 7.06571 8.83368 6.60239 10 6.60239ZM10 8.06826C9.22245 8.06826 8.47675 8.37714 7.92695 8.92695C7.37714 9.47675 7.06826 10.2225 7.06826 11C7.06826 11.7775 7.37714 12.5232 7.92695 13.0731C8.47675 13.6229 9.22245 13.9317 10 13.9317C10.7775 13.9317 11.5232 13.6229 12.0731 13.0731C12.6229 12.5232 12.9317 11.7775 12.9317 11C12.9317 10.2225 12.6229 9.47675 12.0731 8.92695C11.5232 8.37714 10.7775 8.06826 10 8.06826Z" fill="#636566"/>
</svg>
