<svg width="146" height="34" viewBox="0 0 146 34" fill="none" xmlns="http://www.w3.org/2000/svg">
<path d="M48.573 9.78161L51.2302 9.77951L51.232 22.8185L48.5715 22.7954L48.573 9.78161Z" fill="#003237"/>
<path d="M94.7102 9.7656L106.044 9.74258L106.004 12.0776C105.561 12.1813 104.971 12.0994 104.512 12.0948L101.835 12.105L101.842 18.513L101.849 21.455C101.85 21.877 101.909 22.3846 101.815 22.7942L99.2077 22.7891L99.198 12.1189L94.7047 12.0908L94.7102 9.7656Z" fill="#003237"/>
<path d="M68.3232 9.84075L71.2807 9.81879L75.2825 19.1821C75.3786 19.0933 75.4331 18.8844 75.4842 18.7629L75.9622 17.656L79.313 9.85031L82.1872 9.82895L80.9736 12.4023L76.4143 22.7846L74.0168 22.7762L68.3232 9.84075Z" fill="#003237"/>
<path d="M108.182 9.79668L110.863 9.7807L110.847 15.4847C111.473 15.1285 112.109 14.3665 112.619 13.8571L116.633 9.77353L120.05 9.79818L114.314 15.6687L117.784 19.7499L120.59 22.8036L117.334 22.8031L117.238 22.8115L112.204 17.2384L111.291 18.0388C111.215 18.1123 110.9 18.3661 110.87 18.4513C110.8 18.6528 110.869 19.2327 110.869 19.4713L110.849 22.7759L108.15 22.7667L108.182 9.79668Z" fill="#003237"/>
<path d="M122.028 9.75949L131.801 9.76083L131.787 12.0346L124.73 12.0402L124.725 15.0366L131.132 15.0456L131.128 17.4255L125.692 17.4077L124.731 17.4192L124.733 20.5202L131.857 20.5515L131.836 22.7804L122.031 22.781L122.028 9.75949Z" fill="#003237"/>
<path d="M83.6508 9.74481L93.5853 9.76274L93.5808 12.1284L86.3771 12.1341L86.3642 15.0508L92.9122 15.0499L92.9044 17.4717L87.5414 17.4372L86.3337 17.4469L86.3353 20.4455C86.6357 20.6079 87.7353 20.4894 88.1112 20.4902L93.6261 20.499L93.6133 22.7904L83.6536 22.7801L83.6508 9.74481Z" fill="#003237"/>
<path d="M64.0755 9.77277L66.5047 9.78457L66.494 22.764L64.3159 22.7616L57.265 14.4565L57.2438 22.8206L54.5783 22.8127L54.5486 9.79802L56.8027 9.80593L63.9074 18.1628L63.906 9.85673L64.0755 9.77277Z" fill="#003237"/>
<path d="M134.581 9.73915L138.492 9.72795C139.86 9.72003 141.295 9.62261 142.605 10.0888C143.767 10.5023 144.781 11.3572 145.297 12.4892C145.829 13.6552 145.842 14.9574 145.395 16.1504C144.95 17.338 144.015 18.1248 142.883 18.6211L142.77 18.6701C142.844 19.0129 143.264 19.4905 143.475 19.7754L145.675 22.6512L145.659 22.7305L145.156 22.7631L142.687 22.759L140.109 19.077L137.159 19.0808L137.142 22.7818L134.612 22.7592L134.581 9.73915ZM137.168 12.0189L137.174 16.7231L139.329 16.6919C140.337 16.6799 141.406 16.779 142.216 16.0458L142.294 15.9646C142.725 15.4361 143.085 14.8999 143.02 14.1757C142.97 13.6183 142.748 13.0679 142.304 12.7075C141.04 11.6817 138.687 11.9811 137.168 12.0189Z" fill="#003237"/>
<path d="M23.012 17.1767C23.0093 17.3636 22.986 17.5548 23.0486 17.7305L23.0765 17.8717L23.1113 18.0084L23.09 18.0492C23.0507 18.154 23.0761 18.2743 23.0791 18.3845L23.073 19.0772L23.0244 23.4671L23.0252 26.3819L23.0439 26.5303C21.913 27.2779 20.69 27.7345 19.3704 28.0258C19.1095 28.0834 18.8207 28.1674 18.5529 28.1738L18.5627 25.63L18.559 25.1547L18.4509 21.9046L18.4226 20.4368C18.4193 20.3143 18.4451 20.0782 18.4099 19.9675C18.3995 19.9347 18.2833 19.8324 18.2572 19.8047L17.4895 19.0214C17.3557 18.8858 17.2129 18.7785 17.1647 18.5885C17.5708 18.9184 17.9048 19.3127 18.2678 19.6873L19.3553 20.7892L23.012 17.1767Z" fill="url(#paint0_linear_1_144)"/>
<path d="M18.5591 25.1547C18.9009 25.1357 19.3177 25.1593 19.6409 25.0489C20.1066 24.8899 20.5849 24.7216 21.0284 24.5077C21.2854 24.3837 21.5435 24.1845 21.8115 24.0995C22.0421 24.0265 22.286 23.8974 22.4903 23.7669C22.671 23.6516 22.8051 23.5027 23.0244 23.4671L23.0252 26.3819L23.0439 26.5303C21.9131 27.2779 20.69 27.7345 19.3704 28.0258C19.1095 28.0834 18.8207 28.1674 18.5529 28.1738L18.5628 25.63L18.5591 25.1547Z" fill="url(#paint1_linear_1_144)"/>
<path d="M18.5591 25.1547C18.901 25.1357 19.3177 25.1593 19.641 25.0489C20.1066 24.8899 20.5849 24.7216 21.0284 24.5077C21.2855 24.3837 21.5435 24.1845 21.8116 24.0995C22.0422 24.0265 22.286 23.8974 22.4904 23.7669C22.671 23.6516 22.8052 23.5027 23.0244 23.4671L23.0253 26.3819C22.8994 26.1179 22.9734 25.5804 22.9751 25.2801C22.4056 25.3582 21.8771 25.5786 21.3295 25.7465L18.6122 26.5313C18.6151 26.2923 18.6661 25.915 18.5874 25.6937L18.5628 25.63L18.5591 25.1547Z" fill="url(#paint2_linear_1_144)"/>
<path d="M23.012 17.1767L26.0729 14.1183L27.0023 13.1787C27.1591 13.0205 27.3271 12.8124 27.5091 12.689C27.8452 13.5375 28.126 14.4029 28.2767 15.3056C28.6056 17.2755 28.3793 19.4203 27.5817 21.2586C26.6302 23.4518 25.0703 25.265 23.0439 26.5302L23.0252 26.3819L23.0244 23.4671L23.073 19.0772L23.0791 18.3844C23.0761 18.2743 23.0507 18.154 23.09 18.0491L23.1113 18.0084L23.0765 17.8716L23.0486 17.7305C22.986 17.5548 23.0093 17.3636 23.012 17.1767Z" fill="#008964"/>
<path d="M11.081 26.5815C9.12785 25.3998 7.34649 23.539 6.36658 21.4643L12.8607 14.8814C12.9341 14.808 13.1209 14.579 13.206 14.579L17.1647 18.5885C17.2129 18.7785 17.3557 18.8858 17.4895 19.0214L18.2572 19.8047C18.2833 19.8323 18.3995 19.9347 18.4099 19.9675C18.4451 20.0782 18.4193 20.3143 18.4226 20.4368L18.4509 21.9046L18.4487 22.6074L15.914 22.9777C15.7614 22.9906 15.7143 22.9975 15.6019 22.8957L15.595 21.3213L15.5272 18.6933L11.1234 18.6764L11.1317 26.3651L11.081 26.5815Z" fill="#003237"/>
<path d="M11.1317 26.3651L11.1234 18.6764L15.5272 18.6933L15.595 21.3213L15.6019 22.8957C15.7143 22.9975 15.7614 22.9906 15.914 22.9777L18.4487 22.6074L18.4509 21.9046L18.5591 25.1547L18.5628 25.63L18.5529 28.1738C18.3032 28.2484 17.9836 28.2299 17.7228 28.2354C17.2976 28.2443 16.8134 28.2756 16.3939 28.2104C16.1214 28.2381 15.7985 28.1893 15.5254 28.1533C14.3192 28.0199 13.2308 27.666 12.1284 27.1654C11.7589 27.0072 11.4092 26.8132 11.0811 26.5815L11.1317 26.3651Z" fill="url(#paint3_linear_1_144)"/>
<path d="M11.1317 26.3651C11.1735 26.2053 11.1705 26.02 11.1829 25.855C11.5167 25.806 11.8605 25.859 12.1977 25.8246C13.1846 25.7241 14.1417 25.5095 15.1094 25.3008C15.2225 25.2764 15.3725 25.2591 15.4704 25.3247L15.5093 25.5646L15.5214 27.638L15.5254 28.1533C14.3192 28.0199 13.2308 27.6659 12.1284 27.1654C11.7589 27.0072 11.4092 26.8132 11.0811 26.5815L11.1317 26.3651Z" fill="url(#paint4_linear_1_144)"/>
<path d="M12.1284 27.1655L12.1854 27.1548C12.2857 27.1347 12.3708 27.0919 12.4597 27.0432C12.6843 26.92 12.9437 26.9325 13.1862 26.8891C13.8299 26.7739 14.4936 26.7528 15.1414 26.6459C15.2239 26.6322 15.3642 26.6057 15.4338 26.6538C15.4375 26.9422 15.4274 27.369 15.5214 27.638L15.5253 28.1533C14.3192 28.0199 13.2308 27.666 12.1284 27.1655Z" fill="url(#paint5_linear_1_144)"/>
<path d="M15.595 21.3214L15.6018 22.8957C15.7143 22.9975 15.7614 22.9906 15.914 22.9777L18.4487 22.6074L18.4509 21.9046L18.559 25.1547L18.5627 25.63L18.5529 28.1738C18.3032 28.2484 17.9835 28.2299 17.7228 28.2354C17.2976 28.2443 16.8134 28.2756 16.3938 28.2104C16.1214 28.2381 15.7984 28.1893 15.5253 28.1533L15.5214 27.638L15.5093 25.5646L15.595 21.3214Z" fill="url(#paint6_linear_1_144)"/>
<path d="M16.3939 28.2105L16.4734 28.1759C16.8494 28.0208 17.2988 28.0837 17.6992 28.0955C17.8659 28.1005 18.0892 28.094 18.2418 28.1665L18.2799 28.187L18.5529 28.1738C18.3032 28.2484 17.9836 28.2299 17.7228 28.2354C17.2976 28.2443 16.8134 28.2756 16.3939 28.2105Z" fill="#00CE9E"/>
<path d="M11.9783 0.788736C12.336 0.555478 12.9152 0.469654 13.3355 0.382349C15.7025 -0.109566 18.1015 -0.139112 20.4694 0.365317C23.0058 0.905587 25.3356 1.95443 27.4003 3.53163C28.073 4.04553 28.6908 4.62098 29.3091 5.19798L25.9193 8.60369C25.3268 8.04787 24.7366 7.48931 24.0836 7.00391C21.96 5.42531 19.3279 4.61031 16.6867 4.69414L15.1897 4.80566C14.7625 4.26191 13.9639 4.08848 13.5686 3.49956C13.2125 2.96922 12.7964 2.42584 12.2356 2.10631L12.1878 2.08084C11.9792 1.95562 11.7144 1.61943 11.7036 1.36714C11.6978 1.23207 11.8011 1.0214 11.908 0.939058C11.9793 0.884186 11.9627 0.874412 11.9783 0.788736Z" fill="#1A5F9C"/>
<path d="M28.7457 19.5072C29.0873 17.6181 29.1105 15.8721 28.6072 14.0044L28.215 12.774C28.1852 12.6913 27.9522 12.136 27.9694 12.097C27.9876 12.0556 28.081 11.9836 28.1186 11.9454L28.5431 11.5154L31.6566 8.44062L31.6846 8.4364C32.169 9.3932 32.6548 10.3189 33.0227 11.332C34.2789 14.7903 34.317 18.6966 33.178 22.1942C32.9391 22.9276 32.6488 23.6844 32.2919 24.3686C32.2024 24.5401 32.08 24.6922 31.9908 24.8635L31.4252 25.8977C31.1291 26.4116 30.7298 27.0695 30.293 27.47C30.306 27.3577 30.3154 27.3363 30.3806 27.2436C30.4003 27.1503 30.3744 27.0925 30.3497 27.0055C30.2666 26.7113 29.8855 26.4646 29.6916 26.2223C29.5307 26.0214 29.4588 25.7647 29.3073 25.5615C29.1879 25.4015 28.9658 25.2735 28.8887 25.0924C28.5589 24.317 27.8296 23.7791 27.5369 22.9758L27.5144 22.9106C27.277 23.3057 27.0496 23.7641 26.7519 24.1175C26.6833 24.199 26.6054 24.2957 26.5016 24.3316L26.4457 24.3482C27.0699 23.4509 27.6966 22.5662 28.1134 21.5467C28.3835 20.8862 28.556 20.1936 28.7457 19.5072Z" fill="#6EC1BA"/>
<path d="M28.7457 19.5072C28.8514 19.8185 28.6061 20.2015 28.6059 20.5469C28.6059 20.7515 28.6679 20.956 28.7066 21.1556C28.8449 21.8684 29.0324 22.5149 29.2779 23.1997C29.3831 23.493 29.5036 23.8973 29.758 24.0924C29.9028 24.2035 29.9971 24.3976 30.0865 24.5548C30.3996 25.1057 30.7166 25.8024 31.4252 25.8977C31.1291 26.4116 30.7297 27.0695 30.293 27.47C30.306 27.3577 30.3154 27.3363 30.3806 27.2437C30.4003 27.1504 30.3744 27.0925 30.3497 27.0055C30.2666 26.7113 29.8855 26.4646 29.6916 26.2224C29.5307 26.0214 29.4588 25.7647 29.3073 25.5615C29.1879 25.4015 28.9658 25.2735 28.8887 25.0924C28.5589 24.317 27.8296 23.7792 27.5369 22.9759L27.5144 22.9106C27.277 23.3057 27.0496 23.7641 26.7519 24.1176C26.6833 24.199 26.6054 24.2957 26.5016 24.3316L26.4457 24.3482C27.0699 23.451 27.6966 22.5662 28.1134 21.5468C28.3835 20.8862 28.556 20.1936 28.7457 19.5072Z" fill="#C1C5C6"/>
<path d="M16.1512 5.31224C16.8461 5.25989 17.5297 5.28195 18.2233 5.34556C20.9055 5.59148 23.7154 6.98355 25.4496 9.06717L19.4977 14.9397L13.1968 8.76942L13.0255 8.92722L5.28741 16.6971C5.39846 15.5746 5.55764 14.4913 5.89441 13.4093C6.32914 12.0121 7.08208 10.635 8.01475 9.50836C10.0547 7.04412 12.9903 5.60837 16.1512 5.31224Z" fill="url(#paint7_linear_1_144)"/>
<path d="M15.1898 4.80565C12.8131 5.14583 10.4713 6.33441 8.70836 7.95737C6.82446 9.69169 5.44035 12.0971 4.96569 14.6202C4.80933 15.4516 4.76423 16.2667 4.72866 17.1103C4.72312 17.2418 4.67743 17.3172 4.59359 17.4172C4.15738 17.9378 3.60073 18.4115 3.12209 18.8979L0.574703 21.4631C0.410348 20.7808 0.250429 20.0933 0.157125 19.3968C-0.305995 15.9428 0.250726 12.2545 1.87948 9.16031C3.98571 5.15916 7.66716 2.12044 11.9784 0.788727C11.9628 0.874403 11.9793 0.884177 11.908 0.939048C11.8012 1.02139 11.6979 1.23206 11.7036 1.36713C11.7144 1.61942 11.9792 1.95561 12.1878 2.08083L12.2356 2.1063C12.7965 2.42583 13.2126 2.96921 13.5686 3.49955C13.9639 4.08847 14.7625 4.2619 15.1898 4.80565Z" fill="#006D77"/>
<path d="M30.293 27.47L30.2944 27.4743C30.0653 27.8188 29.7505 28.138 29.4694 28.4411C28.3062 29.6955 26.9832 30.7744 25.5104 31.6462C21.774 33.8575 17.2268 34.5952 13.0029 33.4975C8.46652 32.3185 4.74418 29.5273 2.3667 25.4839L5.91078 21.8924C6.65418 23.2868 7.59809 24.6065 8.79242 25.6494C10.4367 27.0853 12.3007 27.9675 14.4079 28.4884C15.4949 28.7571 16.674 28.9225 17.7947 28.8426C21.2028 28.5997 24.2232 26.9149 26.4457 24.3482L26.5016 24.3316C26.6053 24.2957 26.6832 24.199 26.7519 24.1176C27.0496 23.7641 27.277 23.3057 27.5143 22.9106L27.5368 22.9759C27.8296 23.7791 28.5589 24.317 28.8887 25.0924C28.9657 25.2735 29.1878 25.4015 29.3072 25.5615C29.4588 25.7647 29.5307 26.0214 29.6915 26.2224C29.8855 26.4646 30.2666 26.7113 30.3497 27.0055C30.3743 27.0925 30.4003 27.1504 30.3805 27.2437C30.3153 27.3363 30.3059 27.3577 30.293 27.47Z" fill="#6EC1BA"/>
<defs>
<linearGradient id="paint0_linear_1_144" x1="19.6487" y1="19.0182" x2="22.1109" y2="23.8762" gradientUnits="userSpaceOnUse">
<stop stop-color="#007E68"/>
<stop offset="1" stop-color="#00C169"/>
</linearGradient>
<linearGradient id="paint1_linear_1_144" x1="20.5456" y1="25.9216" x2="21.0139" y2="27.4862" gradientUnits="userSpaceOnUse">
<stop stop-color="#46CBA9"/>
<stop offset="1" stop-color="#87CFD7"/>
</linearGradient>
<linearGradient id="paint2_linear_1_144" x1="20.5305" y1="24.2428" x2="21.0017" y2="25.8279" gradientUnits="userSpaceOnUse">
<stop stop-color="#04C77E"/>
<stop offset="1" stop-color="#46CBAA"/>
</linearGradient>
<linearGradient id="paint3_linear_1_144" x1="11.939" y1="18.4491" x2="14.511" y2="25.5378" gradientUnits="userSpaceOnUse">
<stop stop-color="#006A5E"/>
<stop offset="1" stop-color="#00C86F"/>
</linearGradient>
<linearGradient id="paint4_linear_1_144" x1="13.2428" y1="25.5787" x2="13.423" y2="26.9411" gradientUnits="userSpaceOnUse">
<stop stop-color="#0BCD78"/>
<stop offset="1" stop-color="#47D4A8"/>
</linearGradient>
<linearGradient id="paint5_linear_1_144" x1="13.8281" y1="26.7745" x2="14.0618" y2="28.2769" gradientUnits="userSpaceOnUse">
<stop stop-color="#44D3A6"/>
<stop offset="1" stop-color="#85DBDB"/>
</linearGradient>
<linearGradient id="paint6_linear_1_144" x1="17.0221" y1="22.6554" x2="17.0236" y2="28.1351" gradientUnits="userSpaceOnUse">
<stop stop-color="#00806C"/>
<stop offset="1" stop-color="#00D09D"/>
</linearGradient>
<linearGradient id="paint7_linear_1_144" x1="5.12656" y1="11.1558" x2="25.3764" y2="10.2665" gradientUnits="userSpaceOnUse">
<stop stop-color="#00363B"/>
<stop offset="1" stop-color="#086D73"/>
</linearGradient>
</defs>
</svg>
