<svg width="615" height="504" viewBox="0 0 615 504" fill="none" xmlns="http://www.w3.org/2000/svg">
<path d="M546.392 2.30077C547.202 2.38798 548.111 2.44882 548.857 2.77578C550.142 3.3386 551.621 4.70005 551.992 6.02126C552.404 7.48833 552.132 9.33706 551.171 10.5793C550.104 11.9582 548.912 12.6273 547.166 12.8613C546.166 12.8066 545.044 12.4955 544.169 12.039C542.795 11.3237 541.76 10.2013 541.348 8.75181C540.99 7.49502 541.097 5.89546 541.905 4.80579C543.075 3.22581 544.485 2.69325 546.392 2.30077Z" fill="#F3AD30"/>
<path d="M99.8102 49.642L101.909 49.7234C103.401 49.9362 104.726 51.01 105.536 52.1684C106.392 53.3899 106.805 54.761 106.421 56.2134C105.864 58.3211 104.225 59.3177 102.343 60.2834C101.571 60.295 100.747 60.3187 99.987 60.1765C98.5084 59.8993 97.0605 58.7185 96.3007 57.5158C95.5229 56.2864 95.3263 54.4784 95.7978 53.1207C96.4211 51.326 98.1355 50.4205 99.8102 49.642Z" fill="#F3AD30"/>
<path d="M361.867 0.135607C363.232 0.013878 364.891 -0.12973 366.213 0.217833C368.182 0.735501 369.923 2.20889 370.844 3.91061C371.854 5.77696 372.052 7.97818 371.284 9.9527C370.34 12.3812 368.296 13.5432 365.917 14.5423C364.625 14.7733 363.057 14.7933 361.806 14.3934C359.683 13.714 357.781 12.3137 356.84 10.355C355.991 8.58834 355.855 6.36829 356.654 4.56818C357.69 2.23241 359.477 1.08118 361.867 0.135607Z" fill="#233C9D"/>
<path d="M362.988 1.05188C364.084 1.08859 365.272 1.18759 366.318 1.51491C367.756 1.96494 369.061 3.1104 369.693 4.41137C370.547 6.16773 370.615 8.17629 369.817 9.97154C368.947 11.929 367.231 12.8139 365.263 13.5918C364.011 13.5784 362.704 13.6021 361.535 13.1172C359.859 12.4219 358.298 10.8886 357.678 9.25988C357.04 7.58314 357.304 5.97933 358.192 4.42657C359.299 2.48735 360.822 1.66405 362.988 1.05188Z" fill="#FEFEFE"/>
<path d="M566.532 370.141C571.261 370.165 576.004 370.39 580.55 371.735C577.389 379.125 575.024 386.285 570.33 393.033C569.228 394.618 568.095 396.405 566.57 397.653L566.532 370.141Z" fill="#B3F9E2"/>
<path d="M559.966 283.196C563.733 277.258 567.414 271.683 573.078 267.156C584.766 257.815 599.359 254.801 614.32 256.017C614.044 256.975 613.709 257.794 613.249 258.684C611.932 258.618 611.279 258.745 610.11 259.289C609.571 259.54 608.591 259.785 608.346 260.305C604.11 261.927 599.97 265.067 596 267.297C586.8 272.465 577.086 276.73 567.186 280.532C564.869 281.422 562.4 282.669 559.966 283.196Z" fill="#44B574"/>
<path d="M608.346 260.305C608.591 259.785 609.571 259.54 610.11 259.289C611.279 258.745 611.932 258.618 613.249 258.684C608.104 269.491 600.958 279.159 588.873 283.471C585.718 284.596 582.604 285.158 579.268 285.56C572.844 286.333 565.754 285.733 559.375 284.843C555.719 286.188 553.509 290.056 551.625 293.108C551.452 292.307 551.611 291.495 551.701 290.69C555.51 282.291 555.014 272.469 558.273 263.949L558.545 263.902C558.797 266.788 557.959 270.16 557.351 273.003L555.814 280.429C555.431 282.01 554.278 284.735 554.563 286.256C555.977 285.461 558.481 283.524 559.966 283.196C562.4 282.669 564.869 281.422 567.186 280.532C577.086 276.73 586.8 272.465 596 267.297C599.97 265.067 604.11 261.927 608.346 260.305Z" fill="#44B574"/>
<path d="M559.966 283.196C562.4 282.669 564.869 281.422 567.186 280.532C577.086 276.73 586.8 272.465 596 267.297C599.97 265.067 604.11 261.927 608.346 260.305C606.148 262.178 603.316 263.591 600.821 265.094C591.917 270.456 582.681 275.458 572.994 279.449L563.939 282.906C562.481 283.44 560.582 283.889 559.375 284.843C555.719 286.188 553.509 290.056 551.625 293.108C551.452 292.307 551.611 291.495 551.701 290.69C555.51 282.291 555.014 272.469 558.273 263.949L558.545 263.902C558.797 266.788 557.959 270.16 557.351 273.003L555.814 280.429C555.431 282.01 554.278 284.735 554.563 286.256C555.977 285.461 558.481 283.524 559.966 283.196Z" fill="#031364"/>
<path d="M556.331 262.961C556.435 258.931 556.041 254.881 556.248 250.859C556.779 240.574 560.873 231.003 568.773 223.85C572.78 220.221 577.698 217.1 582.886 215.211C585.247 226.288 586.015 239.471 579.078 249.329C574.775 255.443 567.177 260.925 559.652 262.81C559.024 262.967 559.264 262.874 558.722 263.295L558.545 263.902L558.273 263.949L558.035 262.958C558.435 261.6 559.304 260.374 560.003 259.137L563.274 253.291C567.66 245.805 572.563 238.224 576.275 230.427L575.995 229.974L559.68 257.022L559.341 257.471L559.658 257.924C559.617 259.352 557.58 261.527 556.61 262.643L556.331 262.961Z" fill="url(#paint0_linear_14_190)"/>
<path d="M58.2355 227.183C48.0913 228.92 38.4128 226.091 29.4705 221.659C17.2083 215.581 4.44938 203.354 0.235718 190.627C12.2416 189.889 23.8693 192.232 34.439 197.726C46.7197 204.109 54.7221 212.952 58.6833 225.81L58.4129 225.669C55.3128 224.026 52.3619 221.896 49.3752 220.053L32.5938 210.038C29.9166 208.462 27.228 206.642 24.3896 205.361L24.0724 205.662L49.1689 221.273C52.1287 223.143 55.7113 224.826 58.2355 227.183Z" fill="url(#paint1_linear_14_190)"/>
<path d="M550.783 309.342L550.96 311.834C552.751 311.909 556.15 309.566 558.057 308.827C560.82 307.755 563.589 306.703 566.465 305.93C574.643 303.733 583.042 302.969 591.518 303.361C592.616 321.615 587.867 333.229 575.81 347.11C572.739 350.645 568.733 353.135 565.13 356.094C564.03 354.743 563.322 353.273 562.074 351.974C558.552 348.305 554.495 346.849 549.358 346.552L547.647 346.65L547.645 341.058C547.67 338.33 548.132 336.104 548.761 333.453L549.007 333.364L549.358 332.526L549.569 337.333C550.227 335.658 549.85 332.424 549.913 330.561L550.783 309.342Z" fill="#B3F9E2"/>
<path d="M549.569 337.333L550.144 337.599L578.558 312.961L578.874 313.231L562.131 327.772L575.414 327.243C577.479 327.204 579.737 326.913 581.761 327.255C579.644 327.805 577.278 327.68 575.092 327.731L564.797 328.035C564.114 328.055 562.216 327.894 561.742 328.128C561.322 328.336 560.665 329.061 560.296 329.386L556.054 333.3C553.796 335.419 551.111 337.572 549.309 340.046C552.885 340.104 575.994 340.357 577.365 341.187C572.759 341.547 567.955 341.231 563.342 341.045L549.359 340.665L549.358 346.552L547.647 346.65L547.645 341.058C547.67 338.33 548.132 336.104 548.761 333.453L549.007 333.364L549.358 332.527L549.569 337.333Z" fill="#031364"/>
<path d="M494.308 15.6794C500.637 14.8535 507.549 16.6907 512.874 19.9554C518.59 23.4596 522.369 29.8025 523.652 36.0118C524.922 42.1578 523.374 49.3904 519.643 54.5641C515.35 60.5168 509.027 64.3431 501.578 65.6856C494.769 66.4672 488.547 65.3823 482.78 61.7359C477.414 58.343 472.906 52.4321 471.748 46.3657L471.418 44.5826C470.334 38.1012 471.979 30.8339 476.131 25.5387C480.495 19.973 487.178 16.7034 494.308 15.6794Z" fill="#635BEF"/>
<path d="M511.363 28.4473L513.82 30.7384C511.78 33.3213 509.18 35.5426 506.765 37.8058L493.336 50.1744C492.493 50.1884 486.289 44.1153 485.21 43.1368L482.441 40.4622L485.249 37.8252C487.975 39.5633 490.496 42.3577 492.862 44.5535L510.878 28.8168L511.363 28.4473Z" fill="#FEFEFE"/>
<path d="M255.899 3.84254C257.871 3.70215 259.971 3.83281 261.916 4.17801C267.596 5.18745 272.823 8.31607 276.093 12.868L276.442 13.3603C278.853 16.7113 280.048 20.4203 281.014 24.3372C282.802 23.2141 284.727 21.919 286.831 21.4188C289.49 20.7862 292.055 21.0627 294.385 22.4738C296.382 23.6838 298.313 25.8601 298.733 28.1191L298.798 28.5074L299.044 30.3306C299.057 32.7792 297.933 35.0874 296.114 36.7933C294.548 38.2628 292.732 39.065 290.582 39.4588C286.721 40.1662 282.057 39.725 278.09 39.7201L252.894 39.6357L234.231 39.6831L224.831 39.742C221.985 39.7463 218.893 39.8575 216.266 38.659C213.711 37.4928 211.595 34.651 210.685 32.1617C209.733 29.5576 210.416 25.8893 211.752 23.5289C213.585 20.289 216.746 18.1924 220.423 17.1738L220.911 17.0419L221.372 16.9082C226.516 15.4971 231.305 17.3099 235.735 19.6424C236.756 16.9362 237.993 14.081 239.872 11.7947C243.825 6.98331 249.664 4.56756 255.899 3.84254Z" fill="url(#paint2_linear_14_190)"/>
<path d="M110.915 493.727C111.156 492.926 112.607 491.989 113.297 491.469C115.124 490.091 116.822 488.509 118.726 487.237L119.182 487.642C120.029 488.432 120.786 489.15 121.773 489.778L122.151 490.059C122.606 490.387 123.055 490.559 123.533 490.836L123.848 491.061C124.275 491.356 124.718 491.519 125.203 491.711L125.349 491.603L125.633 492.153C126.469 493.669 128.632 494.311 130.283 494.645C137.509 496.104 145.581 494.378 152.438 491.987C153.561 491.595 156.42 490.24 157.486 490.294C157.919 490.316 158.321 490.513 158.739 490.622C154.998 494.765 150.872 497.63 145.67 499.9C150.038 500.327 154.54 500.189 158.929 500.2L179.105 500.217L193.093 500.2C195.985 500.191 199.064 500.395 201.909 499.855L296.915 499.736L320.11 499.644C322.342 499.623 325.648 499.987 327.748 499.54L388.132 499.658C391.711 499.663 406.447 499.011 408.474 500.136L409.264 500.528L461.13 500.529C463.673 501.579 465.407 501.598 468.093 501.021L468.157 500.689L467.572 500.341L550.325 500.659C549.819 500.808 549.398 500.944 548.924 501.173L549.248 501.403C552.224 501.518 554.347 501.277 557.19 500.467C559.505 500.939 562.434 500.678 564.841 500.705L581.878 500.78C584.952 500.785 588.111 500.639 591.172 500.882C592.17 500.961 592.081 501.037 592.738 501.781C592.814 502.774 592.914 502.881 592.332 503.689C591.821 503.909 591.436 504.002 590.871 504L139.967 503.589C129.102 503.579 43.8758 504.066 42.8085 503.531C42.5024 503.378 42.3125 503.073 42.0645 502.844C41.9191 501.782 41.8928 501.817 42.5251 500.934C44.9784 500.005 49.0203 500.551 51.7181 500.549L72.3889 500.548C76.031 500.544 79.996 500.833 83.5895 500.274L83.9681 500.209C88.8736 499.872 93.6856 500.806 98.4739 499.184C102.37 498.876 108.18 496.393 110.915 493.727Z" fill="#635BEF"/>
<path d="M110.915 493.727C111.156 492.926 112.607 491.989 113.297 491.469C115.124 490.091 116.822 488.509 118.726 487.237L119.182 487.642C120.029 488.432 120.786 489.15 121.773 489.778L122.151 490.059C122.606 490.387 123.055 490.559 123.533 490.836L123.848 491.061C124.275 491.356 124.718 491.519 125.203 491.711L125.349 491.603L125.633 492.153C126.469 493.669 128.632 494.311 130.283 494.645C137.509 496.104 145.581 494.378 152.438 491.987C153.561 491.595 156.42 490.24 157.486 490.294C157.918 490.316 158.321 490.513 158.739 490.622C154.998 494.765 150.872 497.63 145.67 499.9C140.186 500.412 133.622 500.753 128.147 500.077L127.535 499.999C124.123 499.586 120.45 498.877 117.445 497.214C115.386 496.074 113.434 494.69 111.218 493.838L110.915 493.727Z" fill="#C05A06"/>
<path d="M152.085 87.6503C152.855 86.3638 152.971 84.6001 153.435 83.1768C154.974 78.4523 157.952 74.3871 161.72 71.0063C167.614 65.7172 175.823 62.828 183.908 63.0924C192.961 63.3878 200.45 66.8233 206.574 73.0811C208.623 75.2708 210.74 77.8166 211.871 80.566L211.905 80.9525C212.12 83.2698 213.006 85.3841 213.154 87.73C213.734 96.9274 209.117 105.551 203.087 112.406L198.206 117.629C194.929 119.454 192.183 120.504 188.412 121.13C186.018 121.528 183.36 121.452 180.937 121.306C178.239 121.007 175.578 120.557 173.002 119.722C166.503 117.614 160.636 112.924 156.916 107.478C155.517 105.43 154.458 103.147 153.328 100.959L152.828 98.9098C151.623 95.7435 151.67 90.9388 152.085 87.6503Z" fill="#8191D9"/>
<path d="M181.278 111.963C180.093 111.927 178.861 111.749 177.709 111.49C172.124 110.236 167 106.467 164.093 101.789C161.245 97.2076 160.737 91.3545 162.225 86.2611C163.717 81.1531 167.439 76.7932 172.282 74.2036C177.055 71.6511 183.384 70.7335 188.676 72.2339L189.199 72.3895C193.025 73.5011 197.274 75.7892 199.755 78.8206L187.794 93.078L187.575 92.6149C186.483 90.3292 185.109 88.5297 182.558 87.5646C180.638 86.8378 178.608 86.8852 176.714 87.6807C174.8 88.4848 173.199 89.8904 172.433 91.7653C171.688 93.5873 171.899 95.6864 172.866 97.3893C173.807 99.0478 175.583 100.261 177.507 100.713C179.556 101.194 181.395 100.733 183.381 100.228L181.278 111.963Z" fill="#FEFEFE"/>
<path d="M200.225 79.0874C202.19 77.2241 204.182 74.3713 206.574 73.0811C208.623 75.2708 210.74 77.8166 211.871 80.566L211.905 80.9525C212.12 83.2698 213.006 85.3841 213.154 87.73C213.734 96.9274 209.117 105.551 203.087 112.406L198.206 117.629C194.929 119.454 192.183 120.504 188.412 121.13C186.018 121.528 183.36 121.452 180.937 121.306L181.156 112.201C182.662 112.262 184.084 112.35 185.569 112.028L185.856 111.96L181.277 111.963L183.381 100.228C181.395 100.733 179.556 101.194 177.507 100.713C175.583 100.261 173.807 99.0478 172.866 97.3893C171.899 95.6864 171.688 93.5873 172.433 91.7653C173.199 89.8904 174.8 88.4848 176.714 87.6807C178.608 86.8852 180.638 86.8378 182.558 87.5646C185.109 88.5297 186.483 90.3292 187.575 92.6149L187.794 93.078L199.755 78.8206L200.225 79.0874Z" fill="#D0E2FA"/>
<path d="M200.225 79.0874C202.19 77.2241 204.182 74.3713 206.574 73.0811C208.623 75.2708 210.74 77.8166 211.871 80.566L211.905 80.9525C212.12 83.2698 213.006 85.3841 213.154 87.73C213.734 96.9274 209.117 105.551 203.087 112.406L198.206 117.629C194.929 119.454 192.183 120.504 188.412 121.13C186.018 121.528 183.36 121.452 180.937 121.306L181.156 112.201C182.662 112.262 184.084 112.35 185.569 112.028L185.856 111.96C189.063 111.54 192.073 110.642 194.822 109.002C199.607 106.152 203.032 101.398 204.271 96.1823C205.859 89.493 203.938 84.6767 200.225 79.0874Z" fill="#4D69BC"/>
<path d="M366.031 478.779L366.504 478.91C368.753 479.483 372.364 479.068 374.76 479.073L397.5 479.085C401.85 479.079 408.142 478.337 412.213 479.692C414.421 480.427 416.313 481.965 417.582 483.812C419.16 486.109 419.658 489.216 418.995 491.895C418.268 494.832 416.081 497.316 413.327 498.763C412.298 499.303 409.835 499.692 409.264 500.528L408.474 500.136C406.447 499.01 391.711 499.663 388.132 499.658L327.748 499.54C325.648 499.987 322.342 499.623 320.11 499.644L296.915 499.736L201.909 499.855C200.807 499.311 199.728 498.76 198.746 498.034C196.161 496.126 194.456 493.662 194.143 490.527C193.85 487.588 194.87 484.678 196.952 482.485C198.486 480.868 200.843 479.77 203.084 479.392C206.867 478.753 211.58 479.223 215.457 479.221L247.449 479.049L365.918 478.941L366.031 478.779Z" fill="#4D69BC"/>
<path d="M366.031 478.779L366.504 478.91C368.753 479.483 372.364 479.068 374.76 479.073L397.5 479.085C401.85 479.079 408.142 478.337 412.213 479.692C414.421 480.427 416.313 481.965 417.582 483.812C419.16 486.109 419.658 489.216 418.995 491.895C418.268 494.832 416.081 497.316 413.327 498.763C412.298 499.303 409.835 499.692 409.264 500.528L408.474 500.136C406.447 499.01 391.711 499.663 388.132 499.658L327.748 499.54C329.285 499.207 330.968 499.354 332.538 499.353L341.52 499.346L375.63 499.35L375.937 499.175L376.425 498.929C377.892 498.158 379.297 498.254 380.929 498.239C380.331 497.706 379.359 496.62 378.673 496.315C378.017 496.024 378.065 496.326 377.467 495.701C377.475 494.993 377.635 494.06 377.135 493.483C376.029 492.201 375.147 490.993 374.562 489.407L373.956 487.899C373.56 487.065 373.16 486.506 373.327 485.56L374.224 485.455C373.942 484.444 374.472 483.515 373.92 482.503C373.409 481.565 373.645 482.481 373.478 481.493C374.075 481.375 374.573 481.274 375.115 481.002C374.441 480.493 374.353 480.466 374.12 479.691L327.765 479.515C332.929 479.13 364.355 480.064 365.918 478.941L366.031 478.779Z" fill="#7280F9"/>
<path d="M151.24 427.903L225.17 427.969L241.169 427.983C242.613 427.985 245.376 427.679 246.688 428.079C246.907 428.146 247.031 428.369 247.203 428.514L247.244 428.771L247.449 479.049L215.457 479.221C211.58 479.223 206.867 478.753 203.084 479.392C200.843 479.77 198.486 480.868 196.952 482.485C194.87 484.678 193.85 487.588 194.143 490.526C194.456 493.662 196.161 496.126 198.746 498.034C199.728 498.76 200.807 499.311 201.909 499.855C199.064 500.395 195.985 500.191 193.093 500.2L179.105 500.217L158.929 500.2C154.54 500.189 150.038 500.327 145.67 499.9C150.872 497.63 154.998 494.765 158.739 490.622C158.321 490.512 157.919 490.316 157.486 490.294C156.42 490.24 153.561 491.595 152.438 491.987C145.581 494.378 137.509 496.104 130.283 494.645C128.632 494.311 126.469 493.668 125.633 492.153L125.349 491.603L125.203 491.711C124.718 491.519 124.275 491.356 123.848 491.061L123.533 490.836C123.055 490.559 122.606 490.387 122.151 490.058L121.773 489.778C120.786 489.15 120.029 488.432 119.182 487.642L119.74 487.362L120.104 487.375C121.042 486.964 121.854 486.049 122.6 485.367L123.41 484.681C127.647 479.776 130.349 473.619 133.079 467.855C134.843 463.426 136.612 459.313 137.883 454.7C138.86 451.155 139.35 447.495 140.389 443.981L140.504 443.603C140.493 441.341 141.185 438.753 141.477 436.464L141.536 436.209C141.302 435.478 141.215 434.761 141.105 434.007L144.209 431.505C144.959 430.835 145.578 430.149 146.208 429.377L146.786 428.369L147.889 428.29L148.216 428.867C148.748 428.99 149.181 429.074 149.731 429.106L150.122 428.846C150.453 428.412 150.785 428.211 151.24 427.903Z" fill="#FEFEFE"/>
<path d="M149.731 429.106L150.122 428.846L150.473 429.013C152.793 429.834 157.008 428.315 158.671 430.22C158.334 430.891 158.271 431.02 157.486 431.298C156.632 431.602 155.513 431.638 154.608 431.681L149.535 431.267C149.23 430.335 149.446 430.025 149.731 429.106Z" fill="#0B119E"/>
<path d="M146.208 429.377L146.786 428.369L147.889 428.29L148.216 428.867C148.748 428.99 149.181 429.074 149.731 429.106C149.446 430.025 149.23 430.335 149.535 431.267L154.608 431.681L155.096 431.92C156.649 432.636 158.602 432.851 160.299 433.107C165.888 433.947 171.656 433.699 177.202 434.661C178.925 453.83 172.416 475.273 159.329 490.032C159.163 490.219 158.969 490.502 158.739 490.622C158.321 490.513 157.919 490.316 157.486 490.294C156.42 490.24 153.561 491.595 152.438 491.987C145.581 494.378 137.509 496.104 130.283 494.645C128.632 494.311 126.469 493.669 125.633 492.153L125.349 491.603L125.203 491.711C124.718 491.519 124.275 491.356 123.848 491.061L123.533 490.836C123.055 490.559 122.606 490.387 122.151 490.059L121.773 489.778C120.786 489.15 120.029 488.432 119.182 487.642L119.74 487.362L120.104 487.375C121.042 486.964 121.854 486.049 122.6 485.367L123.41 484.681C127.647 479.776 130.349 473.619 133.079 467.855C134.843 463.426 136.612 459.313 137.883 454.701C138.86 451.155 139.35 447.495 140.389 443.981L140.504 443.603C140.493 441.341 141.185 438.753 141.477 436.464L141.536 436.209C141.302 435.478 141.215 434.761 141.105 434.007L144.209 431.505C144.959 430.835 145.578 430.149 146.208 429.377Z" fill="url(#paint3_linear_14_190)"/>
<path d="M133.079 467.855C134.843 463.426 136.612 459.313 137.883 454.701C138.86 451.155 139.35 447.495 140.389 443.981L140.503 443.603C140.932 446.196 140.446 448.667 139.966 451.226C139.025 456.233 137.612 462.822 134.422 466.988L134.342 466.378C133.941 466.92 133.601 467.408 133.079 467.855Z" fill="#F39417"/>
<path d="M123.41 484.681C129.047 488.003 137.505 488.448 143.922 487.055C145.057 486.808 146.191 486.504 147.256 486.054C148.143 485.679 149.336 484.766 150.3 484.916C150.219 485.773 149.708 486.223 149.144 486.845L148.896 486.96C147.935 487.499 147.245 488.435 146.276 489.019C145.738 489.344 145.623 489.637 144.995 489.932L144.704 490.141C144.278 490.444 143.87 490.621 143.393 490.843C142.472 491.27 141.523 491.877 140.51 492.059C140.057 492.139 139.672 492.249 139.229 492.364C138.794 492.476 138.385 492.538 137.947 492.666C136.732 493.022 135.118 492.483 134.102 493.123L133.809 492.974C132.703 492.56 131.567 493.137 130.578 492.517L130.056 492.533C129.314 492.531 129.411 492.418 128.817 492.212L128.015 492.059L127.054 491.755C126.291 491.518 126.108 491.436 125.349 491.603L125.203 491.711C124.718 491.519 124.275 491.356 123.848 491.061L123.533 490.836C123.055 490.559 122.606 490.387 122.151 490.059L121.773 489.778C120.786 489.15 120.029 488.432 119.182 487.642L119.74 487.362L120.104 487.375C121.042 486.964 121.854 486.049 122.6 485.367L123.41 484.681Z" fill="#D07113"/>
<path d="M146.208 429.377L146.786 428.369L147.889 428.29L148.216 428.867C148.747 428.99 149.181 429.074 149.731 429.106C149.446 430.025 149.23 430.335 149.535 431.267L154.608 431.681L155.096 431.92C156.649 432.636 158.602 432.851 160.299 433.107C165.888 433.947 171.656 433.699 177.202 434.661C178.925 453.83 172.416 475.273 159.329 490.032C159.163 490.219 158.969 490.502 158.739 490.622C158.321 490.513 157.919 490.316 157.486 490.294C156.42 490.24 153.561 491.595 152.438 491.987C145.581 494.378 137.509 496.104 130.283 494.645C128.632 494.311 126.469 493.669 125.633 492.153L125.349 491.603C126.108 491.436 126.291 491.518 127.054 491.755L128.015 492.059L128.817 492.212C129.411 492.418 129.314 492.531 130.056 492.533L130.578 492.517C131.567 493.137 132.703 492.56 133.809 492.974L134.102 493.123C135.118 492.483 136.732 493.022 137.947 492.666C138.385 492.538 138.794 492.476 139.229 492.364C139.672 492.249 140.057 492.139 140.51 492.059C141.523 491.877 142.472 491.27 143.393 490.843C143.87 490.621 144.278 490.444 144.704 490.141L144.995 489.932C145.623 489.637 145.738 489.344 146.276 489.019C147.245 488.435 147.935 487.499 148.895 486.96L149.144 486.845L149.562 486.728C150.349 486.477 151.348 485.611 151.717 484.918C152.108 484.184 152.874 483.834 153.279 483.064C153.504 482.638 153.638 482.395 153.961 482.027L155.11 480.633L155.401 480.206L156.203 478.989C156.475 478.505 156.688 478.056 157.012 477.595C157.498 476.904 157.972 476.25 158.364 475.505L158.604 475.04L159.086 474.127L159.565 472.913L161.498 468.505C161.921 467.304 162.415 466.079 162.768 464.861C162.887 464.452 162.883 463.865 163.089 463.493C163.442 462.856 163.409 462.982 163.409 462.278C163.846 461.655 163.729 461.482 163.729 460.758C164.167 460.136 164.05 459.963 164.05 459.239C164.505 458.591 164.37 458.172 164.37 457.416C164.884 456.685 164.69 455.567 164.69 454.681C165.344 453.751 165.011 451.59 165.011 450.427C165.651 449.515 165.327 446.756 165.326 445.565C164.662 444.602 165.379 443.485 164.852 442.528L164.612 442.223C164.678 441.57 164.736 441.037 164.532 440.401C164.306 439.697 164.419 440.2 164.28 439.536L164.212 439.186C163.87 438.862 163.769 438.578 163.268 438.578C163.253 439.344 163.326 438.993 163.092 439.637L162.771 439.184C161.021 438.565 159.106 439.183 157.328 438.878C155.96 438.643 154.437 438.895 153.187 438.526C152.595 438.351 152.744 438.32 152.246 438.36C151.138 438.447 149.569 438.475 148.597 437.97L149.158 437.822L149.065 437.513L145.634 437.212C144.904 437.001 144.679 436.946 143.905 437.019L143.552 437.057C142.91 436.603 142.244 436.567 141.477 436.464L141.536 436.209C141.302 435.478 141.215 434.761 141.105 434.007L144.209 431.505C144.959 430.835 145.578 430.149 146.208 429.377Z" fill="url(#paint4_linear_14_190)"/>
<path d="M141.105 434.007L144.209 431.505C144.629 432.176 145.032 432.764 145.195 433.544C144.077 434.456 142.89 435.646 141.536 436.209C141.302 435.478 141.215 434.761 141.105 434.007Z" fill="#0B119E"/>
<path d="M146.208 429.377L146.786 428.369L147.889 428.29L148.216 428.867C148.747 428.99 149.181 429.074 149.731 429.106C149.446 430.025 149.23 430.335 149.535 431.267L148.159 431.16L145.195 433.544C145.032 432.764 144.629 432.176 144.209 431.505C144.959 430.835 145.577 430.149 146.208 429.377Z" fill="#031364"/>
<path d="M60.8654 407.036C65.9989 406.417 71.2376 405.39 76.3174 404.412C78.6141 403.969 81.3094 403.098 83.6503 403.098C84.7343 403.098 85.9195 403.512 86.7953 404.11C87.7544 404.765 88.5578 405.815 89.1343 406.789L90.0396 409.088C90.7757 408.286 91.5496 407.506 92.1371 406.597C93.0994 406.16 94.1795 405.573 95.2648 405.514C99.0921 405.308 103.959 406.371 107.776 406.908L125.782 409.735C128.934 410.284 132.563 410.729 135.552 411.83C136.162 412.055 136.633 412.409 137.145 412.786C137.856 414.498 137.597 416.686 137.606 418.517L137.613 428.153C137.657 428.703 137.817 429.432 137.7 429.963C138.755 430.081 139.963 430.005 140.764 430.676L141.105 434.007C141.215 434.761 141.302 435.478 141.536 436.209L141.477 436.464C141.185 438.753 140.493 441.341 140.504 443.603L140.389 443.981C139.35 447.495 138.86 451.155 137.883 454.701C136.612 459.313 134.843 463.426 133.079 467.855C130.348 473.619 127.647 479.776 123.409 484.681L122.6 485.367C121.854 486.049 121.042 486.964 120.104 487.375L119.74 487.362L119.182 487.642L118.726 487.237C116.822 488.509 115.124 490.091 113.297 491.469C112.607 491.989 111.156 492.926 110.915 493.727C108.18 496.393 102.37 498.876 98.4738 499.184C93.6856 500.806 88.8736 499.872 83.9681 500.209C78.5917 498.233 74.1225 495.765 69.7859 492.135L69.7071 492.11C62.8777 486.876 57.6076 478.419 53.7951 471.089L49.4373 460.661C47.9126 455.963 46.5729 451.187 45.7625 446.325C44.4434 438.406 44.4799 430.45 44.0795 422.471L43.7733 414.296C43.7585 413.136 43.5638 411.819 44.1461 410.772C46.4083 408.965 57.5724 407.61 60.8654 407.036Z" fill="#F3AD30"/>
<path d="M118.438 431.739C119.273 431.595 119.399 431.604 120.168 432.04C121.001 432.513 121.721 433.228 121.855 434.17C121.958 434.898 121.787 435.592 121.289 436.117C120.446 435.435 120.851 434.603 120.168 433.708L119.646 434.018C119.427 435.474 119.214 436.825 119.851 438.215C120.169 438.91 120.065 438.866 119.894 439.569C119.462 440.458 119.054 441.502 118.399 442.257C117.999 442.718 117.917 442.606 117.33 442.678C116.534 442.178 116.062 441.781 115.906 440.842C115.699 439.595 116.26 438.562 116.44 437.361C116.565 436.536 116.375 435.382 116.594 434.626C116.68 434.331 116.943 434.112 117.135 433.866C117.69 433.156 118.051 432.541 118.438 431.739Z" fill="#FEFEFE"/>
<path d="M96.7825 489.479C98.0984 489.196 99.0075 488.571 100.147 487.951C100.7 487.651 101.1 487.516 101.608 487.115L102.709 486.281C103.75 485.819 104.055 484.986 104.951 484.458C105.411 484.188 105.671 484.123 106.093 483.72L106.333 483.489L107.193 482.635L107.351 482.181C107.701 481.566 108.792 480.814 109.437 480.519L109.603 480.714C107.854 482.687 106.036 484.703 103.868 486.281C102.26 487.453 100.411 488.335 98.6821 489.328C97.0811 490.247 92.7227 491.914 90.8462 491.356L90.4573 491.221C89.5341 492.223 89.9096 494.216 89.8955 495.554C92.4472 495.563 95.7472 495.958 98.2086 495.487L98.5469 495.401C99.1677 495.264 99.5688 495.006 100.149 494.793C101.63 494.248 102.891 493.393 104.278 492.667C104.723 492.434 105.079 492.253 105.443 491.908L105.753 491.604L108.236 489.628C109.598 488.603 112.072 486.784 112.962 485.373L113.124 484.916C114.854 483.781 116.318 481.492 117.608 479.902C118.813 478.418 119.981 476.724 121.429 475.453L121.86 475.081C120.569 477.392 118.853 479.408 117.15 481.455C113.15 486.264 108.308 491.281 102.673 494.359C102.236 494.597 101.907 494.854 101.518 495.151C98.561 497.404 93.6241 496.795 90.0518 496.764L90.0576 499.722C91.36 499.701 92.6131 499.703 93.9009 499.505L95.8376 499.316C96.7543 499.237 95.5864 499.344 96.7838 499.046L97.8249 498.97L98.3041 498.822L98.4739 499.184C93.6856 500.806 88.8736 499.872 83.9681 500.209C78.5917 498.233 74.1225 495.765 69.7859 492.135C70.7853 491.978 71.7111 492.376 72.649 492.667C74.9252 493.375 77.1772 494.208 79.5143 494.718C82.8284 495.442 86.1931 495.729 89.5713 496.04C89.5681 494.364 89.4842 492.657 89.7142 490.993C91.2684 490.993 92.5465 490.765 94.0597 490.524C95.138 490.353 95.8491 489.993 96.7825 489.479Z" fill="#F39417"/>
<path d="M121.86 475.082C123.713 473.165 125.233 470.087 126.451 467.744C130.493 459.964 133.906 451.393 135.848 442.907C136.49 440.104 136.818 437.118 137.097 434.262C137.209 433.128 136.982 430.805 137.7 429.963C138.755 430.081 139.963 430.005 140.764 430.676L141.105 434.007C141.215 434.761 141.302 435.478 141.536 436.209L141.477 436.464C141.185 438.753 140.493 441.341 140.503 443.603L140.389 443.981C139.35 447.495 138.86 451.155 137.883 454.701C136.612 459.313 134.843 463.426 133.079 467.855C130.348 473.619 127.647 479.776 123.409 484.681L122.6 485.367C121.854 486.049 121.042 486.964 120.104 487.375L119.74 487.362L119.182 487.642L118.726 487.237C116.822 488.509 115.124 490.091 113.297 491.469C112.607 491.989 111.156 492.926 110.915 493.727C108.18 496.393 102.37 498.876 98.4738 499.184L98.304 498.822L97.8248 498.97L96.7838 499.046C95.5864 499.344 96.7543 499.237 95.8375 499.316L93.9008 499.505C92.6131 499.703 91.36 499.701 90.0575 499.722L90.0517 496.764C93.624 496.795 98.5609 497.404 101.518 495.151C101.906 494.854 102.236 494.597 102.673 494.359C108.308 491.281 113.15 486.264 117.15 481.455C118.853 479.408 120.569 477.392 121.86 475.082Z" fill="#D07113"/>
<path d="M119.74 487.362C119.219 486.85 119.363 487.157 119.318 486.435C121.495 484.548 123.213 482.315 124.93 480.054C125.39 480.631 125.292 480.32 125.296 480.966C123.788 482.621 123.012 483.178 122.6 485.367C121.854 486.049 121.042 486.964 120.104 487.375L119.74 487.362Z" fill="#C05A06"/>
<path d="M60.8654 407.036C65.9989 406.417 71.2376 405.39 76.3174 404.412C78.6141 403.969 81.3094 403.098 83.6503 403.098C84.7343 403.098 85.9195 403.512 86.7953 404.11C87.7544 404.765 88.5577 405.815 89.1343 406.789L90.0396 409.088C89.4848 411.286 89.7109 413.72 89.7218 415.977L89.7961 427.596L89.7577 463.749C89.7205 469.79 90.0396 476.064 89.513 482.077L89.0703 482.058C85.8817 481.888 82.1762 481.011 79.2176 479.892C77.9017 479.395 75.3448 477.732 74.0872 477.623C73.822 477.6 73.5709 477.746 73.3127 477.808C73.3421 478.152 73.2531 478.525 73.3998 478.842C73.6074 479.29 74.478 480.05 74.8503 480.453C76.015 481.715 77.1015 483.29 78.5251 484.311C79.2259 484.814 79.7417 485.192 80.3926 485.803C81.0326 486.401 80.465 485.928 81.2466 486.285L81.8885 486.745L84.6517 488.297C85.1245 488.589 85.2577 488.555 85.7312 488.729C86.2962 488.937 86.7447 489.166 87.3328 489.331L87.7954 489.481C88.3418 489.654 88.8794 489.775 89.4457 489.871L90.5912 490.233C89.4393 490.689 88.9998 490.745 87.8165 490.379L87.3354 490.222C86.3078 489.899 85.4205 489.469 84.4524 489.016C83.2166 488.439 81.7258 487.659 80.6706 486.829L79.9678 486.281C78.1753 485.296 74.8599 482.276 73.7701 480.563C73.2672 479.772 72.419 479.155 71.9609 478.381L71.8014 477.927C71.3414 477.939 71.0223 477.976 70.5784 478.115C69.0818 478.583 63.2332 474.79 61.4548 473.977C59.003 472.855 56.4218 471.764 53.7951 471.089L49.4373 460.661C47.9126 455.963 46.5729 451.187 45.7625 446.325C44.4434 438.406 44.4799 430.45 44.0795 422.471L43.7733 414.296C43.7585 413.136 43.5638 411.819 44.1461 410.772C46.4083 408.965 57.5724 407.61 60.8654 407.036Z" fill="#F5C54E"/>
<path d="M63.8874 418.977C64.273 419.05 64.0206 418.984 64.6043 419.281C64.6203 421.797 65.373 427.324 63.79 429.365L63.4703 429.17C62.3485 427.046 62.9629 421.979 63.0692 419.584L63.8874 418.977Z" fill="#FEFEFE"/>
<path d="M61.2946 419.888L61.7815 419.921L62.1025 420.344C62.1281 422.366 62.7617 428.287 61.6393 429.683C60.6078 429.864 59.7006 429.735 58.6743 429.612C58.1573 427.146 58.5231 423.959 58.4949 421.408L58.985 420.936L60.5867 421.571C61.0499 420.959 61.1011 420.611 61.2946 419.888Z" fill="#FEFEFE"/>
<path d="M211.871 80.566L212.059 80.8698C213.308 82.9465 214.134 85.2577 214.804 87.5555L240.8 87.6777C244.405 87.7038 248.58 87.3629 252.123 87.8594L454.138 87.8879L512.825 87.8509L529.587 87.8673C532.666 87.8752 535.954 87.6655 538.997 88.114L539.578 88.1967C544.488 88.9405 548.528 91.6747 551.397 95.4433C552.462 96.8411 553.228 98.4327 553.777 100.068L553.939 100.542C554.896 103.467 554.669 106.643 554.625 109.667L554.421 121.108L553.949 146.932L552.675 235.897L552.194 267.303L552.429 266.998C553.611 265.492 555.046 264.355 556.331 262.961L556.61 262.643C557.58 261.527 559.617 259.352 559.658 257.924L559.341 257.471L559.68 257.022L575.995 229.974L576.275 230.427C572.563 238.224 567.66 245.805 563.274 253.291L560.003 259.137C559.304 260.374 558.435 261.6 558.035 262.958L558.273 263.949C555.014 272.469 555.51 282.291 551.701 290.69C551.611 291.495 551.452 292.307 551.625 293.108C550.851 294.606 550.995 296.518 550.945 298.165L550.783 309.342L549.913 330.561C549.85 332.424 550.227 335.658 549.569 337.333L549.358 332.527L549.008 333.364L548.761 333.453C548.132 336.104 547.67 338.33 547.645 341.058L547.647 346.65L541.794 346.857C541.728 344.801 542.13 340.328 541.014 338.558L540.833 338.3C540.632 338.005 540.445 337.725 540.185 337.47C539.222 336.527 538.026 336.455 536.718 336.377L536.738 330.531L540.003 145.841L540.41 121.035C540.427 115.271 539.698 110.192 535.171 105.949C532.52 103.464 528.5 101.411 524.718 101.051C521.078 100.706 517.227 100.959 513.562 100.96L491.496 100.976L422.013 100.999L287.559 100.929L213.913 100.882C211.484 105.868 208.612 109.897 204.442 113.731C202.994 115.062 201.094 116.636 199.189 117.342L198.206 117.629L203.087 112.406C209.117 105.551 213.734 96.9274 213.154 87.7299C213.006 85.3841 212.12 83.2698 211.905 80.9525L211.871 80.566Z" fill="#233C9D"/>
<path d="M558.035 262.958L558.273 263.949C555.014 272.469 555.51 282.291 551.701 290.69L551.539 290.058C551.295 288.583 551.466 286.814 551.482 285.309L551.728 276.095C551.791 274.328 551.567 271.954 551.952 270.256C552.075 269.714 552.987 268.86 553.362 268.429L558.035 262.958Z" fill="#FEFEFE"/>
<path d="M211.871 80.566L212.059 80.8698C213.308 82.9465 214.134 85.2577 214.804 87.5555L240.8 87.6777C244.405 87.7038 248.58 87.3629 252.123 87.8594L215.059 87.795C215.438 92.4156 215.335 96.4017 213.913 100.882C211.484 105.868 208.612 109.897 204.442 113.731C202.994 115.062 201.094 116.636 199.189 117.342L198.206 117.629L203.087 112.406C209.117 105.551 213.734 96.9274 213.154 87.7299C213.006 85.3841 212.12 83.2698 211.905 80.9525L211.871 80.566Z" fill="#8191D9"/>
<path d="M60.9935 156.15L61.0332 119.776L61.0377 109.54C61.0428 107.498 60.8743 105.291 61.2792 103.28C62.0692 99.3535 63.8938 96.0553 66.8715 93.2312C69.5642 90.6775 73.182 88.7436 76.9234 88.0271C79.8724 87.4625 83.0981 87.6996 86.0996 87.6983L101.151 87.7154L152.085 87.6503C151.67 90.9388 151.623 95.7435 152.828 98.9098L153.328 100.959L85.35 101.058C81.9558 102.229 79.2759 104.028 77.7018 107.209C76.3238 109.996 76.4647 113.11 76.4551 116.109L76.434 124.751L76.4103 145.622L76.4436 325.563L76.4449 370.201L76.4308 382.35C76.4289 384.55 76.2117 387.017 76.6166 389.171C77.1842 392.19 79.2465 395.219 81.54 397.34C84.7965 400.352 88.0395 401.295 92.478 401.191C91.5644 403.234 90.2459 404.858 89.1344 406.789C88.5578 405.815 87.7544 404.766 86.7953 404.11C85.9195 403.512 84.7343 403.098 83.6503 403.098C81.3094 403.098 78.6141 403.969 76.3174 404.412C71.2376 405.39 65.999 406.417 60.8654 407.036L60.8859 391.688C57.9414 391.147 54.8355 390.219 52.0877 389.08C36.5502 382.638 25.8414 370.021 17.8139 356.293C15.4392 352.232 13.1913 348.244 11.3989 343.918C27.3526 340.02 44.6619 340.189 60.8212 342.722L60.7987 341.419C60.529 339.236 60.6943 336.923 60.6969 334.723L60.7155 323.094C56.7447 322.075 51.6354 320.078 48.805 317.127L48.6032 316.905L48.1201 316.866L47.7915 316.781C46.6767 316.32 45.3826 315.015 44.4895 314.231C39.3711 309.737 36.1912 304.893 33.5408 298.789C32.6667 298.204 32.0692 296.789 31.5357 295.911L28.294 290.889L18.7189 278.145C14.009 271.644 9.73647 264.36 6.3064 257.187L18.8843 256.661C30.1901 256.85 41.1898 258.135 51.6034 262.473C55.0104 263.893 58.1375 265.319 60.7552 267.887L60.8359 228.777L58.2355 227.183C55.7113 224.826 52.1287 223.143 49.1689 221.273L24.0725 205.662L24.3896 205.361C27.228 206.642 29.9167 208.462 32.5938 210.038L49.3752 220.053C52.3619 221.896 55.3128 224.026 58.4129 225.669L58.6833 225.81L60.9461 227.522C61.0896 225.674 61.2152 223.604 60.948 221.767C60.5137 218.776 58.9319 215.465 58.0766 212.506L54.5549 199.183C53.4639 199.405 52.6009 199.261 51.6752 198.673C45.7292 194.896 42.0689 184.667 40.6525 178.314C37.6451 164.824 40.3491 147.899 48.4046 136.344C53.6849 142.862 57.0118 151.236 60.5316 158.694L60.7686 158.563L60.9935 156.15Z" fill="#233C9D"/>
<path d="M48.6032 316.905L61.0102 314.408L60.7988 341.419C60.529 339.236 60.6943 336.923 60.6969 334.723L60.7155 323.094C56.7447 322.075 51.6354 320.078 48.805 317.126L48.6032 316.905Z" fill="#B3F9E2"/>
<path d="M55.5236 198.627C57.9735 196.978 59.3156 195.236 61.0179 192.915L61.0717 218.038L55.5236 198.627Z" fill="#FEFEFE"/>
<path d="M85.35 101.058C85.4781 100.794 85.5896 100.528 85.785 100.298C86.2712 99.7242 87.1733 99.4076 87.9229 99.3134C90.4009 99.0016 93.0878 99.1578 95.5851 99.1481L109.936 99.1086L152.828 98.9098L153.328 100.959L85.35 101.058Z" fill="#031364"/>
<path d="M33.5408 298.789L61.0082 298.453L61.0384 313.943L51.9827 315.78C50.7763 316.031 49.1164 316.171 48.1201 316.866L47.7915 316.781C46.6767 316.32 45.3826 315.015 44.4895 314.231C39.3711 309.737 36.1912 304.893 33.5408 298.789Z" fill="#B3F9E2"/>
<path d="M54.5549 199.183C53.4639 199.405 52.6009 199.261 51.6751 198.673C45.7292 194.896 42.0689 184.667 40.6525 178.314C37.6451 164.824 40.3491 147.899 48.4046 136.344C53.6849 142.862 57.0118 151.236 60.5316 158.694L60.7686 158.563L60.9935 156.15L61.0178 192.915C59.3156 195.236 57.9734 196.978 55.5236 198.627L52.3395 175.732C52.0397 172.923 52.2979 169.271 51.456 166.616L50.989 166.919L52.868 186.682L53.9405 194.68C54.1487 196.09 54.6132 197.772 54.5549 199.183Z" fill="url(#paint5_linear_14_190)"/>
<path d="M33.5408 298.789C32.6667 298.204 32.0692 296.789 31.5357 295.911L28.294 290.889L18.7189 278.145C14.009 271.644 9.73647 264.36 6.3064 257.187L18.8843 256.661C30.1901 256.85 41.1898 258.135 51.6034 262.473C55.0104 263.893 58.1375 265.319 60.7552 267.887L60.8282 294.262L20.7058 264.475L20.2285 264.612L60.7834 295.455L60.9083 297.432C59.8294 298.216 56.1892 297.867 54.6023 297.9L40.341 298.216C38.6701 298.231 35.6783 297.882 34.1596 298.289C33.6669 298.42 33.729 298.445 33.5408 298.789Z" fill="#B3F9E2"/>
<path d="M60.8859 391.688C57.9414 391.147 54.8355 390.219 52.0877 389.08C36.5502 382.638 25.8414 370.021 17.8139 356.293C15.4391 352.232 13.1913 348.244 11.3988 343.919C27.3526 340.02 44.6619 340.189 60.8212 342.722L60.6962 363.24C47.4193 356.29 33.6495 350.34 19.2643 345.748L18.7854 345.899V346.119C33.062 351.033 47.6928 357.021 60.7488 364.408L60.8859 391.688Z" fill="#44B574"/>
<path d="M198.206 117.629L199.189 117.342C201.094 116.636 202.994 115.062 204.442 113.731C208.612 109.897 211.484 105.868 213.913 100.882L287.559 100.929L422.013 100.999L491.496 100.975L513.562 100.96C517.227 100.959 521.078 100.706 524.718 101.051C528.5 101.411 532.52 103.464 535.171 105.949C539.698 110.192 540.426 115.271 540.41 121.035L540.003 145.841L76.4102 145.622L76.4339 124.751L76.4551 116.109C76.4647 113.11 76.3238 109.995 77.7018 107.209C79.2759 104.028 81.9558 102.229 85.35 101.058L153.328 100.959C154.458 103.147 155.517 105.43 156.916 107.478C160.635 112.924 166.503 117.614 173.002 119.722C175.578 120.557 178.239 121.007 180.937 121.306C183.36 121.452 186.018 121.528 188.412 121.13C192.183 120.504 194.929 119.454 198.206 117.629Z" fill="#7280F9"/>
<path d="M138.617 118.629C139.568 118.615 140.595 118.577 141.522 118.802C143.382 119.254 144.822 120.437 145.684 122.044C146.333 123.253 146.514 124.882 146.062 126.181C145.322 128.31 143.889 129.241 141.824 130.16C140.766 130.188 139.477 130.313 138.45 130.064C136.832 129.671 135.314 128.297 134.597 126.898C133.93 125.6 133.925 123.835 134.42 122.487C135.168 120.453 136.655 119.53 138.617 118.629Z" fill="#D0E2FA"/>
<path d="M109.754 118.661C110.723 118.653 111.75 118.623 112.702 118.822C114.34 119.164 115.654 120.068 116.435 121.491C117.202 122.889 117.358 124.926 116.836 126.42C116.103 128.516 114.43 129.383 112.425 130.251C111.338 130.29 110.065 130.321 109.011 130.051C107.531 129.673 106.078 128.209 105.436 126.925C104.772 125.597 104.74 123.451 105.344 122.099C106.19 120.2 107.856 119.39 109.754 118.661Z" fill="#D0E2FA"/>
<path d="M467.133 117.541L492.409 117.476C496.381 117.47 500.962 117.042 504.873 117.615C505.941 117.771 506.873 118.181 507.744 118.782C508.944 119.61 509.961 121.146 510.133 122.554C510.447 125.124 510.25 127.931 510.205 130.52C510.193 131.17 510.357 132.46 510.149 132.996C509.967 133.466 509.355 134.155 509 134.537C508.144 135.457 506.615 136.816 505.251 136.831L468.685 136.829L443.156 136.843C439.28 136.84 435.058 137.164 431.216 136.778C429.797 136.636 428.128 135.9 427.056 135.007C425.655 133.841 425.225 132.736 425.12 131.036C424.916 127.704 424.166 121.899 426.805 119.367C427.67 118.537 428.734 118.028 429.94 117.813C433.356 117.203 437.582 117.651 441.1 117.638L467.133 117.541Z" fill="#0B119E"/>
<path d="M475.687 123.219L477.919 123.535C478.905 123.843 479.744 124.656 480.088 125.573C480.483 126.63 480.369 127.774 479.845 128.776C479.208 129.993 478.038 130.352 476.767 130.784L476.437 130.75C475.705 130.684 474.939 130.662 474.254 130.378C473.282 129.977 472.412 129.046 472.12 128.078C471.857 127.208 471.886 125.955 472.388 125.162C473.173 123.922 474.283 123.568 475.687 123.219Z" fill="#FEFEFE"/>
<path d="M491.723 123.314C492.507 123.128 493.548 123.031 494.312 123.319C495.324 123.701 496.416 124.611 496.802 125.591C497.197 126.597 497.187 127.962 496.702 128.936C496.237 129.868 495.394 130.234 494.447 130.607C493.799 130.728 493.047 130.81 492.389 130.751C491.213 130.644 490.167 129.859 489.511 128.967C488.866 128.09 488.799 126.461 489.093 125.456C489.439 124.274 490.639 123.743 491.723 123.314Z" fill="#FEFEFE"/>
<path d="M458.16 123.314C458.97 123.15 459.957 123.027 460.757 123.275C461.835 123.609 462.689 124.343 463.155 125.318C463.616 126.283 463.622 127.681 463.17 128.656C462.585 129.919 461.578 130.314 460.302 130.823C459.487 130.822 458.632 130.83 457.843 130.614C456.923 130.362 455.968 129.599 455.59 128.752C455.051 127.544 455.049 126.791 455.568 125.576C456.081 124.373 456.969 123.834 458.16 123.314Z" fill="#FEFEFE"/>
<path d="M441.494 123.314C442.361 123.16 443.184 123.144 444.02 123.449C445.158 123.863 445.982 124.677 446.379 125.769C446.807 126.951 446.65 128.304 445.998 129.391C445.44 130.322 444.514 130.622 443.492 130.911C442.802 130.974 442.06 131.06 441.38 130.895C440.282 130.627 439.388 129.95 438.843 129.013C438.123 127.776 438.339 126.416 438.775 125.137C439.63 124.158 440.218 123.717 441.494 123.314Z" fill="#FEFEFE"/>
<path d="M76.4436 325.563L120.033 325.809L193.841 325.82L408.809 325.838L491.278 325.852L513.942 325.806C517.574 325.797 521.659 325.473 525.227 325.929C528.992 326.41 531.687 328.357 534.481 330.616C534.907 330.96 534.754 330.843 535.394 331.009L536.194 332.073L536.392 330.584L536.738 330.531L536.718 336.377C538.026 336.455 539.222 336.527 540.185 337.47C540.445 337.725 540.632 338.005 540.833 338.3L541.014 338.558C542.13 340.328 541.728 344.801 541.794 346.858L547.647 346.65L549.358 346.552C554.495 346.849 558.552 348.305 562.074 351.974C563.322 353.273 564.03 354.743 565.13 356.094C566.818 360.795 566.559 365.247 566.532 370.141L566.571 397.653L566.572 461.318L566.586 479.962C566.592 482.702 566.933 485.707 566.515 488.409C566.011 491.665 564.087 494.904 561.649 497.211C560.312 498.477 558.852 499.604 557.19 500.467C554.347 501.277 552.224 501.518 549.248 501.403L548.924 501.173C549.398 500.944 549.819 500.808 550.325 500.659L467.572 500.341L468.157 500.689L468.093 501.021C465.407 501.598 463.673 501.579 461.13 500.529L409.264 500.528C409.835 499.692 412.298 499.303 413.327 498.763C416.081 497.316 418.268 494.832 418.995 491.895C419.658 489.216 419.16 486.109 417.582 483.812C416.313 481.965 414.421 480.427 412.213 479.692C408.142 478.337 401.85 479.079 397.5 479.085L374.76 479.073C372.364 479.068 368.753 479.483 366.504 478.91L366.031 478.779L365.918 478.941L247.449 479.049L247.244 428.771L247.203 428.514C247.031 428.369 246.907 428.146 246.688 428.079C245.376 427.68 242.613 427.985 241.169 427.983L225.17 427.969L151.24 427.903C150.785 428.211 150.453 428.412 150.122 428.846L149.731 429.106C149.181 429.074 148.747 428.99 148.216 428.867L147.889 428.29L146.786 428.369L146.208 429.377C145.578 430.149 144.959 430.835 144.209 431.505L141.105 434.007L140.764 430.676C139.963 430.005 138.755 430.081 137.7 429.963C137.817 429.432 137.657 428.704 137.613 428.154L137.606 418.517C137.597 416.686 137.856 414.498 137.145 412.786C136.633 412.409 136.162 412.055 135.552 411.83C132.563 410.729 128.934 410.284 125.783 409.736L107.776 406.908C103.959 406.371 99.0921 405.308 95.2648 405.514C94.1795 405.573 93.0994 406.16 92.1371 406.597C91.5496 407.506 90.7757 408.286 90.0396 409.088L89.1344 406.789C90.2459 404.858 91.5644 403.234 92.478 401.191C88.0395 401.295 84.7965 400.352 81.54 397.34C79.2465 395.219 77.1842 392.19 76.6166 389.171C76.2117 387.017 76.4289 384.55 76.4308 382.35L76.4449 370.201L76.4436 325.563Z" fill="url(#paint6_linear_14_190)"/>
<path d="M156.379 418.8C157.104 417.982 157.153 418.074 158.287 417.925C159.155 418.726 158.968 421.947 159.039 423.218L154.456 424.076L156.379 418.8Z" fill="#FEFEFE"/>
<path d="M145.635 427.616C144.712 425.213 145.022 422.104 145.077 419.584L145.634 419.147C146.606 419.409 146.916 419.84 147.404 420.67C147.737 421.237 148.744 422.627 148.819 423.214C148.945 424.216 148.514 425.882 148.287 426.877L146.786 428.369L146.208 429.377L145.635 427.616Z" fill="#020516"/>
<path d="M137.613 428.153C138.523 428.011 139.466 427.607 140.348 427.534C142.05 427.394 143.923 427.565 145.634 427.616L146.208 429.377C145.577 430.149 144.959 430.835 144.209 431.505L141.105 434.007L140.764 430.676C139.963 430.005 138.755 430.081 137.7 429.963C137.817 429.432 137.657 428.703 137.613 428.153Z" fill="#FEFEFE"/>
<path d="M147.889 428.29C148.992 426.941 150.17 425.585 151.062 424.099C151.924 422.665 152.564 420.751 153.67 419.512C154.436 418.655 155.278 418.863 156.379 418.8L154.456 424.076C153.511 425.449 152.596 426.865 151.24 427.903C150.785 428.211 150.453 428.412 150.122 428.846L149.731 429.106C149.181 429.074 148.747 428.99 148.216 428.867L147.889 428.29Z" fill="#020516"/>
<path d="M505.729 333.59L506.497 333.451C508.772 333.261 511.263 333.351 513.548 333.419C514.032 333.434 515.368 333.354 515.773 333.517C516.099 333.648 516.294 333.971 516.555 334.198L516.536 335.717L515.773 336.125L507.64 336.108C506.649 336.105 505.679 336.307 504.847 335.769C505.027 334.748 505.036 334.424 505.729 333.59Z" fill="#FEFEFE"/>
<path d="M529.365 338.456C531.762 338.422 537.071 337.763 538.897 338.997C540.027 341.238 540.068 357.964 539.319 360.482C538.804 360.936 538.331 360.993 537.644 361.036C532.759 361.339 527.648 361.069 522.737 361.069L492.71 361.055C490.61 361.061 484.878 361.645 483.257 360.566C482.851 360.295 482.812 359.809 482.737 359.373C482.429 357.589 482.287 340.64 482.78 339.711C482.938 339.412 483.207 339.177 483.42 338.91C484.948 338.264 487.195 338.482 488.866 338.474L500.681 338.494L529.365 338.456Z" fill="#7280F9"/>
<path d="M541.992 348.58C545.147 348.585 548.448 348.419 551.574 348.844L552.131 348.926C555.286 349.37 557.8 350.634 560.029 352.77C564.416 356.973 564.257 361.363 564.302 366.848L564.353 377.124C563.361 377.62 560.416 377.312 559.204 377.311L543.627 377.299L461.958 377.284L454.725 377.283L454.716 367.053C454.721 361.347 454.307 356.749 458.952 352.375C464.161 347.471 473.3 348.901 480.08 348.909L480.061 355.931C480.062 357.975 479.754 360.285 481.181 361.989C481.966 362.927 483.021 363.153 484.221 363.212C494.145 363.701 504.387 363.252 514.344 363.252L529.898 363.255C532.73 363.26 535.697 363.413 538.517 363.215C539.356 363.157 540.169 362.893 540.769 362.314C542.944 360.212 542.001 351.657 541.992 348.58Z" fill="#FEFEFE"/>
<path d="M366.106 428.129L452.535 428.012L452.516 471.049L452.507 482.526C452.502 484.726 452.307 487.194 452.797 489.347C453.469 492.302 455.004 494.969 457.253 497.105L461.13 500.529L409.264 500.528C409.835 499.692 412.298 499.303 413.327 498.763C416.081 497.316 418.268 494.832 418.995 491.895C419.658 489.216 419.16 486.109 417.582 483.812C416.313 481.965 414.421 480.427 412.213 479.692C408.142 478.337 401.85 479.079 397.5 479.085L374.76 479.073C372.364 479.068 368.753 479.483 366.504 478.91L366.031 478.779L366.077 450.153L366.106 428.129Z" fill="#FEFEFE"/>
<path d="M247.203 428.514C248.361 428.06 250.299 428.339 251.569 428.343L262.195 428.324L332.913 428.301L366.106 428.129L366.077 450.153L366.031 478.779L365.918 478.941L247.449 479.049L247.244 428.771L247.203 428.514Z" fill="#031364"/>
<path d="M247.203 428.514C248.361 428.06 250.299 428.339 251.569 428.343L262.195 428.324L332.913 428.301L366.106 428.129L366.077 450.153L332.578 444.77L261.594 433.311L252.646 431.827C251.185 431.624 248.845 431.634 247.585 430.978L247.244 428.771L247.203 428.514Z" fill="#020516"/>
<path d="M455.891 491.667C455.108 489.837 454.771 488.125 454.7 486.155L454.699 459.3L454.758 407.173L454.712 387.51C454.696 385.129 454.176 381.54 454.813 379.284L564.469 379.335L564.477 460.394L564.49 477.579C564.52 481.209 565.126 485.808 564.175 489.292C562.163 494.196 559.169 497.356 554.083 499.495C552.874 500.004 551.599 500.332 550.325 500.659L467.572 500.341L465.642 499.912C460.791 498.511 458.251 495.685 455.891 491.667Z" fill="#D0E2FA"/>
<path d="M470.414 481.781C470.969 482.215 470.839 481.955 470.939 482.485C470.197 482.543 469.745 482.568 469.101 482.092C468.514 481.658 468.08 480.787 467.96 480.1C467.577 477.894 467.869 475.19 467.861 472.94L467.843 455.805L467.879 450.334C467.897 449.882 467.814 448.97 467.973 448.604C468.103 448.306 468.393 448.097 468.603 447.844C468.959 447.766 469.28 447.697 469.646 447.678C472.518 447.527 500.091 447.768 500.558 448.001C500.885 448.164 501.092 448.487 501.359 448.73C500.42 449.301 497.541 448.948 496.329 448.947L478.692 448.973C476.187 448.982 471.776 448.452 469.646 449.61C469.184 450.587 469.317 451.011 469.418 452.059L469.48 471.653C469.482 474.399 468.802 479.09 469.985 481.458L470.414 481.781Z" fill="#AEBEF3"/>
<path d="M523.743 419.885L534.833 419.846C536.832 419.846 539.125 419.638 541.037 420.192L541.453 420.952C541.39 421.71 541.347 422.085 540.86 422.7C539.098 423.17 537.218 423.03 535.398 423.034L526.024 423.026L514.253 423.031C512.123 423.027 509.836 423.22 507.765 422.709C507.547 421.983 507.586 421.605 507.765 420.873C509.266 419.623 511.407 419.994 513.32 419.973L523.743 419.885Z" fill="#AEBEF3"/>
<path d="M470.41 431.79L470.521 431.983L469.966 432.179C469.667 432.08 469.436 432.023 469.166 431.838C468.538 431.41 468.196 430.789 468.094 430.073C467.363 424.912 467.867 419.107 467.852 413.877C467.84 409.499 467.408 404.759 467.914 400.435C467.992 399.772 468.281 399.372 468.685 398.849C470.195 397.891 496.772 398.536 500.718 398.862L501.438 399.707C502.188 400.799 502.143 402.246 501.919 403.48C501.572 402.883 501.416 402.309 501.218 401.659C500.984 401.191 500.908 400.685 500.367 400.477C499.145 400.009 471.881 399.956 470.287 400.569C470.093 400.83 469.849 401.064 469.706 401.352C469.054 402.665 469.515 406.623 469.513 408.211L469.515 422.315C469.519 424.783 469.298 427.488 469.733 429.916C469.854 430.592 470.086 431.178 470.41 431.79Z" fill="#AEBEF3"/>
<path d="M508.571 472.153L532.826 472.011C534.716 472.012 539.993 471.52 541.32 472.581C541.596 473.478 541.465 474.015 541.241 474.888L540.439 475.305L515.72 475.343L510.189 475.323C509.587 475.319 508.447 475.457 507.925 475.307C507.683 475.238 507.513 475.028 507.307 474.888C507.261 474.176 507.125 473.398 507.451 472.733C507.662 472.302 508.134 472.296 508.571 472.153Z" fill="#AEBEF3"/>
<path d="M508.511 411.076C508.784 410.999 508.907 410.954 509.221 410.927C512.916 410.606 550.234 410.72 551.009 411.052C551.287 411.17 551.477 411.423 551.711 411.608C551.774 412.795 551.947 412.882 551.077 413.811C550.697 413.905 550.658 413.926 550.205 413.973C547.1 414.294 543.648 414.004 540.491 414.011L516.654 414.064L510.71 414.032C510.242 414.011 509.258 414.078 508.886 413.922C508.55 413.781 508.314 413.485 508.027 413.266C507.936 412.15 507.777 412.005 508.511 411.076Z" fill="#AEBEF3"/>
<path d="M508.912 402.264C510.912 401.957 513.079 402.124 515.111 402.119L526.859 402.099C534.415 402.088 542.212 401.606 549.728 402.026C550.778 402.085 551.036 402.304 551.735 403.024C551.8 404.012 551.876 404.146 551.33 404.97L550.048 405.223L526.853 405.309C520.971 405.314 514.726 405.717 508.886 405.128C507.866 404.241 508.016 404.124 507.907 402.872L508.912 402.264Z" fill="#AEBEF3"/>
<path d="M535.545 463.341L549.441 463.334C550.484 463.367 551.1 463.22 551.818 463.949C551.858 464.775 551.98 465.448 551.468 466.17C548.776 466.868 545.086 466.472 542.268 466.478L523.221 466.494L512.729 466.495C511.355 466.491 509.281 466.724 507.986 466.374C507.253 466.176 507.171 465.894 506.804 465.318C506.804 464.398 506.813 464.324 507.358 463.568C510.533 463.068 514.049 463.369 517.278 463.369L535.545 463.341Z" fill="#AEBEF3"/>
<path d="M506.971 454.833C508.385 454.501 510.094 454.682 511.552 454.682L520.165 454.685L540.7 454.697C543.495 454.699 546.999 454.336 549.724 454.832C550.748 455.018 550.811 455.147 551.37 455.963C551.336 456.743 551.141 457.074 550.689 457.72C550.299 457.897 550.216 457.959 549.728 458.041C548.384 458.267 546.563 458.07 545.178 458.07L535.391 458.054L517.645 458.041C514.656 458.035 511.543 458.191 508.566 458.004C507.617 457.943 507.096 457.858 506.382 457.264C506.379 456.11 506.229 455.782 506.971 454.833Z" fill="#AEBEF3"/>
<path d="M455.891 491.667L476.181 491.389L512.396 491.213L543.905 491.314C548.482 491.284 553.313 491.533 557.857 491.083C560.136 490.858 562.14 490.268 564.175 489.292C562.163 494.196 559.169 497.356 554.083 499.495C552.874 500.004 551.599 500.332 550.325 500.659L467.572 500.341L465.642 499.912C460.791 498.512 458.251 495.685 455.891 491.667Z" fill="#AEBEF3"/>
<path d="M469.418 452.059C470.036 451.728 470.696 451.433 471.408 451.351C475.481 450.884 480.075 451.284 484.204 451.268L493.831 451.234C496.062 451.215 498.333 450.985 500.523 451.48L500.101 472.95C500.09 475.326 500.706 479.093 500.012 481.291C495.214 482.156 489.739 481.681 484.853 481.686L470.414 481.781L469.985 481.458C468.802 479.09 469.481 474.399 469.48 471.653L469.418 452.059Z" fill="#FEFEFE"/>
<path d="M472.009 453.102L498.623 453.097L498.593 479.907L472.029 479.883C471.679 476.531 471.887 473.061 471.913 469.688L472.009 453.102Z" fill="#AEBEF3"/>
<path d="M470.41 431.79C470.086 431.178 469.854 430.592 469.733 429.916C469.298 427.488 469.519 424.783 469.515 422.315L469.513 408.211C469.515 406.623 469.054 402.665 469.706 401.352C469.849 401.064 470.093 400.83 470.287 400.569C471.881 399.956 499.145 400.009 500.367 400.477C500.908 400.685 500.984 401.191 501.218 401.659L501.159 420.523C501.163 423.452 501.843 428.547 500.718 431.195C500.505 431.324 500.316 431.502 500.077 431.582C499.438 431.797 498.118 431.701 497.405 431.701L490.441 431.667L470.41 431.79Z" fill="#FEFEFE"/>
<path d="M471.865 402.396L498.989 402.421L499.149 429.994L471.9 429.751L471.865 402.396Z" fill="#AEBEF3"/>
<path d="M76.4436 325.563L120.033 325.809L193.841 325.82L408.809 325.838L491.278 325.852L513.942 325.806C517.574 325.797 521.658 325.473 525.227 325.929C528.992 326.41 531.687 328.357 534.481 330.616C534.907 330.96 534.754 330.843 535.394 331.009L536.194 332.073L536.392 330.584L536.738 330.531L536.718 336.377L519.297 336.322C519.12 335.801 519.084 335.391 519.054 334.854C518.983 333.578 518.512 332.779 517.495 331.937C516.469 331.087 515.027 331.32 513.752 331.312L505.042 331.366C503.848 332.098 503.119 332.798 502.791 334.161L502.414 336.16L488.952 336.132C487.256 336.13 484.726 335.836 483.1 336.203C482.69 336.296 481.935 336.786 481.625 337.047C479.179 339.102 480.022 343.863 480.05 346.669C472.228 346.653 463.252 345.233 457.212 350.966C454.807 353.247 453.181 356.346 452.614 359.53C451.916 363.452 452.48 368.292 452.492 372.296L452.536 400.636L95.0931 400.92C94.3474 402.271 92.0833 405.237 92.1371 406.597C91.5496 407.506 90.7757 408.286 90.0396 409.088L89.1344 406.789C90.2459 404.858 91.5644 403.234 92.478 401.191C88.0395 401.295 84.7965 400.352 81.54 397.34C79.2465 395.219 77.1842 392.19 76.6166 389.171C76.2117 387.017 76.4289 384.55 76.4308 382.35L76.4449 370.201L76.4436 325.563Z" fill="#FEFEFE"/>
<path d="M98.7205 395.819C100.043 395.16 101.033 393.513 102.322 392.579C104.088 392.617 106.438 392.361 107.995 393.205C108.484 393.943 108.458 393.922 108.316 394.787C106.527 396.348 101.137 395.803 98.7205 395.819Z" fill="#0B119E"/>
<path d="M92.478 401.191C93.6139 399.062 95.671 396.795 96.5128 394.672C96.8165 393.906 96.4199 392.376 96.3456 391.534C96.1746 389.59 95.9644 386.938 96.5397 385.094C97.3245 384.31 97.2579 384.29 98.3855 384.222L99.0639 384.764C100.216 385.872 99.8122 388.87 99.8186 390.343C101.354 388.806 104.36 385.057 106.469 384.665C107.403 384.492 107.751 384.568 108.496 385.096L108.536 385.404C108.583 387.648 103.978 391.057 102.322 392.579C101.033 393.513 100.043 395.16 98.7205 395.819L95.0931 400.92C94.3474 402.271 92.0833 405.237 92.1371 406.597C91.5497 407.506 90.7758 408.286 90.0396 409.088L89.1344 406.789C90.2459 404.858 91.5644 403.234 92.478 401.191Z" fill="url(#paint7_linear_14_190)"/>
<path d="M303.759 343.214C308.567 342.811 313.11 343.773 317.162 346.316C321.744 349.192 325.074 353.705 326.139 358.828C327.143 363.655 325.826 369.334 322.935 373.409C319.807 377.819 315.093 380.809 309.591 381.773C304.716 382.426 300.757 381.69 296.56 379.261C291.732 376.467 288.022 372.142 286.773 366.84C285.58 361.776 286.7 355.936 289.72 351.62C293.056 346.85 297.926 344.314 303.759 343.214Z" fill="#635BEF"/>
<path d="M309.816 362.453C310.558 362.322 310.45 362.345 311.077 362.571C310.863 363.089 310.72 363.546 310.26 363.915C309.044 364.894 307.449 364.468 305.984 364.314C305.013 364.238 304.065 364.189 303.123 363.934L302.885 363.217L303.236 362.647L309.816 362.453Z" fill="#FEFEFE"/>
<path d="M301.554 356.684C302.692 356.353 304.014 356.471 305.201 356.47L312.205 356.607C312.988 357.356 312.767 357.783 312.776 358.811C312.302 359.724 311.922 360.213 311.084 360.854C308.613 361.724 305.227 361.359 302.595 361.323C301.244 360.446 300.669 359.742 300.363 358.203C300.606 357.445 300.925 357.188 301.554 356.684Z" fill="#FEFEFE"/>
<path d="M302.669 358.203C303.059 358.071 303.079 358.048 303.56 357.983C305.204 357.763 310.351 357.681 311.658 358.507L311.652 359.115C311.346 359.204 311.276 359.236 310.913 359.277C309.488 359.436 303.177 359.677 302.333 358.968L302.669 358.203Z" fill="#635BEF"/>
<path d="M308.762 365.8L309.086 365.898C309.21 366.298 309.315 366.744 309.693 367.015C309.851 367.129 311.285 367.166 311.59 367.212C312.495 367.348 313.036 367.716 313.735 368.231C314.388 369.292 314.569 370.046 314.636 371.27C314.466 371.412 314.341 371.626 314.127 371.696C313.537 371.888 312.151 371.7 311.44 371.702L303.476 371.719C302.19 371.733 300.717 371.869 299.454 371.662C298.67 371.533 298.67 371.373 298.257 370.772C298.343 369.934 298.592 369.215 298.998 368.461C299.984 366.626 301.546 367.528 303.219 367.049C303.767 366.892 303.472 366.918 304.141 366.943C304.858 366.97 304.461 366.995 305.065 366.947L308.521 366.857L308.762 365.8Z" fill="#FEFEFE"/>
<path d="M393.096 343.25C397.759 343.009 401.93 343.658 405.904 346.162C410.565 349.101 413.971 354.193 415.008 359.393L415.1 359.875C415.56 362.175 415.587 365.023 414.917 367.289L414.764 367.775C414.011 370.258 412.928 372.37 411.305 374.435C407.857 378.822 403.136 381.205 397.488 381.978C392.452 382.2 388.253 381.506 384.006 378.817C379.53 375.981 375.995 371.028 375.097 365.952C374.18 360.769 375.511 355.508 378.733 351.255C382.257 346.605 387.24 344.139 393.096 343.25Z" fill="#635BEF"/>
<path d="M405.469 355.772L405.789 355.721C406.612 355.722 407.021 356.335 407.57 356.836C407.329 358.578 395.274 369.436 393.127 371.061C392.442 371.019 386.425 364.806 385.343 363.833C384.52 362.964 383.715 362.228 383.339 361.09C383.94 360.242 384.276 360.101 385.24 359.756C386.411 360.22 387.311 361.512 388.162 362.392L393.177 367.394L405.469 355.772Z" fill="#FEFEFE"/>
<path d="M216.69 342.952C221.346 342.64 225.556 343.733 229.527 345.993C233.754 348.398 237.412 352.955 238.478 357.556C239.705 362.854 238.81 368.487 235.627 373.021C232.185 377.923 227.291 380.531 221.312 381.741C216.27 382.136 211.643 381.562 207.416 378.755C202.907 375.761 199.264 370.622 198.354 365.433C197.499 360.558 198.882 355.05 201.965 351.072C205.558 346.436 210.732 343.728 216.69 342.952Z" fill="#635BEF"/>
<path d="M228.345 354.861L229.05 354.8C229.669 355.357 230.329 355.678 230.415 356.504C228.964 358.925 226.347 361.055 224.296 363.05L215.462 371.846C212.681 369.827 210.553 366.882 208.388 364.29C207.711 363.37 206.535 362.082 206.541 360.938C207.179 360.441 207.543 360.08 208.389 359.976C210.85 362.052 212.84 365.082 214.932 367.527C219.679 363.859 223.367 358.933 228.017 355.126L228.345 354.861Z" fill="#FEFEFE"/>
<path d="M125.302 343.223C130.111 342.639 134.909 343.563 139.098 345.859C143.966 348.528 147.246 353.288 148.539 358.403C149.766 363.255 148.255 368.511 145.463 372.611C142.215 377.38 137.597 380.191 131.785 381.35C126.072 382.181 120.525 381.236 115.658 378.187C111.73 375.727 108.784 371.183 107.892 366.808C106.82 361.555 107.931 355.856 111.119 351.415C114.532 346.663 119.486 344.307 125.302 343.223Z" fill="#635BEF"/>
<path d="M137.836 354.861L138.439 354.686C139.247 354.58 139.669 355.284 140.15 355.772C139.851 357.527 137.594 359.576 136.441 360.909C133.312 364.527 130.245 368.286 126.679 371.53L119.729 364.83C118.803 363.864 118.027 363.004 117.376 361.85C117.564 360.773 117.727 360.783 118.566 360.104C119.731 360.323 120.286 361.246 121.076 362.056L126.54 367.722L137.546 355.137L137.836 354.861Z" fill="#FEFEFE"/>
<path d="M76.4102 145.622L540.003 145.841L536.738 330.531L536.392 330.584L536.194 332.073L535.394 331.009C534.754 330.843 534.907 330.96 534.481 330.616C531.687 328.357 528.992 326.41 525.227 325.929C521.658 325.473 517.574 325.797 513.942 325.806L491.278 325.852L408.809 325.838L193.841 325.82L120.033 325.809L76.4436 325.563L76.4102 145.622Z" fill="#D0E2FA"/>
<path d="M276.291 272.791L276.141 272.573C275.609 271.691 275.686 271.101 275.897 270.164C276.609 269.424 276.755 269.354 277.769 269.064C278.561 269.371 278.636 269.47 279.143 270.132C278.139 270.955 277.311 272.031 276.291 272.791Z" fill="#CE5B5A"/>
<path d="M345.247 259.119C345.423 258.771 345.368 258.604 345.208 258.231L344.763 257.319C344.491 256.5 344.723 255.554 345.281 254.888C345.912 254.137 346.696 254.19 347.601 254.12C348.622 254.589 348.709 254.777 349.3 255.648C349.312 256.59 349.513 257.626 348.657 258.325C348.359 258.569 348.131 258.648 347.792 258.799C347.025 258.943 346.231 259.048 345.493 259.294L345.247 259.119Z" fill="#0B119E"/>
<path d="M392.273 255.102C392.837 254.255 393.275 253.456 394.209 252.927C395.01 252.854 395.751 252.721 396.411 253.279C397.822 254.471 398.061 255.214 399.975 255.982L417.56 263.526C415.584 263.556 412.496 261.828 410.653 261.059L397.893 255.868C397.271 256.475 396.304 257.338 395.398 257.481C394.22 257.668 393.216 256.825 392.361 256.187L392.273 255.102Z" fill="#0B119E"/>
<path d="M493.801 252.327C495.739 251.35 497.629 251.38 499.757 251.441L500.458 251.85C500.517 252.798 500.645 253.727 500.37 254.654L500.014 254.835L499.519 255.246C498.66 256.387 495.251 256.93 493.75 257.5C492.943 257.699 492.674 257.818 491.88 257.621C492.184 256.937 492.152 256.549 492.054 255.818C491.154 255.596 490.566 255.458 489.874 254.817C489.501 253.798 489.734 253.032 489.956 252.016C491.358 251.65 492.156 251.495 493.483 252.153L493.801 252.327Z" fill="#FEFEFE"/>
<path d="M489.956 252.016C491.358 251.65 492.156 251.495 493.483 252.153L493.801 252.327C494.272 253.144 494.643 253.415 494.311 254.373C493.959 255.391 493.469 255.598 493.671 256.717C495.648 256.648 497.534 255.517 499.519 255.246C498.66 256.387 495.251 256.93 493.75 257.5C492.943 257.699 492.674 257.818 491.88 257.621C492.184 256.937 492.152 256.549 492.054 255.818C491.154 255.596 490.566 255.458 489.874 254.817C489.501 253.798 489.734 253.032 489.956 252.016Z" fill="#0B119E"/>
<path d="M207.147 234.225L207.555 234.153C208.095 234.875 207.822 306.154 207.517 312.927L207.134 313.231L206.774 312.927L206.805 259.938L206.862 243.892C206.877 240.696 206.715 237.398 207.147 234.225Z" fill="#3DA1D8"/>
<path d="M107.128 293.48C112.415 292.831 118.384 293.35 123.766 293.387C126.25 293.404 130.049 293.029 132.409 293.73C133.382 294.019 133.738 294.641 134.083 295.455C133.664 296.382 133.39 296.526 132.57 297.126C130.651 297.539 128.174 297.316 126.204 297.319L113.005 297.306C111.066 297.299 108.309 297.682 106.588 296.903C105.763 295.993 105.716 295.89 105.599 294.695C106.066 293.938 106.292 293.89 107.128 293.48Z" fill="#AEBEF3"/>
<path d="M253.263 204.454L276.493 204.455C280.197 204.457 284.367 204.095 288.02 204.602C288.229 205.707 288.147 206.676 288.04 207.789C284.413 208.37 280.106 207.99 276.396 207.994L253.319 208.075L253.263 204.454Z" fill="#8191D9"/>
<path d="M253.524 234.833C254.829 234.572 256.416 234.707 257.758 234.705L265.225 234.695L293.144 234.665L293.123 237.985L262.892 237.924L256.054 237.913C255.143 237.911 254.199 238.089 253.424 237.616C253.347 236.648 253.396 235.796 253.524 234.833Z" fill="#8191D9"/>
<path d="M231.48 226.084L243.029 226.115L243.021 237.709H231.483L231.48 226.084Z" fill="#233C9D"/>
<path d="M231.498 166.298L243.101 166.287L243.054 178.142L235.203 178.149C234.069 178.149 232.587 178.323 231.534 177.982L231.498 166.298Z" fill="#44B574"/>
<path d="M253.266 174.788L281.541 174.768L288.908 174.766C290.092 174.765 291.437 174.631 292.568 174.971C292.677 176.058 292.647 177.023 292.504 178.105C289.69 178.692 285.893 178.236 282.976 178.268L253.332 178.493L253.266 174.788Z" fill="#8191D9"/>
<path d="M231.422 195.469L243.317 195.468L243.439 207.767L231.411 207.782L231.422 195.469Z" fill="#7280F9"/>
<path d="M253.74 166.767L321.012 166.748L321.003 169.972L304.161 170.004L272.876 169.993L258.693 169.997C257.395 169.998 255.288 170.275 254.065 169.999C253.81 169.942 253.609 169.755 253.381 169.632C253.337 168.602 253.206 167.71 253.74 166.767Z" fill="#8191D9"/>
<path d="M253.556 226.933C255.088 226.572 257.177 226.806 258.769 226.806L271.567 226.82L317.887 226.821L327.994 226.824C329.137 226.824 330.884 226.576 331.905 227.065C332.03 228.061 332.031 228.692 331.795 229.667C329.295 229.979 326.534 229.735 323.997 229.729L307.782 229.694L269.584 229.646L258.689 229.633C257.041 229.631 255.002 229.865 253.424 229.403C253.307 228.502 253.377 227.821 253.556 226.933Z" fill="#8191D9"/>
<path d="M178.791 172.544C184.934 177.247 190.85 182.728 193.26 190.089L174.348 193.846C175.904 186.758 176.257 179.452 178.791 172.544Z" fill="#CE5B5A"/>
<path d="M253.434 196.546C255.412 196.097 257.988 196.371 260.053 196.369L273.61 196.361L322.727 196.325L335.426 196.317C337.34 196.316 340.023 196.003 341.835 196.54C341.971 197.514 341.929 198.309 341.792 199.281C339.752 199.723 336.997 199.417 334.89 199.418L319.195 199.421L271.203 199.464L259.402 199.471C257.596 199.473 255.186 199.739 253.472 199.281C253.241 198.383 253.374 197.46 253.434 196.546Z" fill="#8191D9"/>
<path d="M508.668 153.91C509.48 154.006 509.804 154.46 510.486 154.462C511.074 155.035 511.394 155.49 511.849 156.133L512.41 156.739L513.186 158.287C513.424 158.785 513.318 159.07 513.451 159.55L513.612 159.851C514.31 161.348 514.012 174.052 513.769 176.339C513.539 178.527 514.145 180.828 513.765 183.035C513.345 185.473 514.19 188.163 513.76 190.66C513.639 191.365 513.691 192.457 513.691 193.203V195.027L513.769 195.482C513.812 195.907 513.764 196.325 513.721 196.745L513.851 204.295C514.423 202.276 513.855 199.808 513.855 197.761C513.855 196.271 514.094 194.883 513.933 193.355C513.711 191.254 514.015 188.82 514.016 186.673L514.014 169.429C514.014 168.324 513.661 165.583 514.012 164.64C514.076 164.468 514.225 164.336 514.332 164.184V160.082L513.855 159.778C513.992 158.977 514.075 159.129 513.691 158.411L513.621 158.135C513.411 157.336 513.05 156.828 512.412 156.282C512.206 155.511 511.945 155.434 511.292 154.916L511.679 154.531C512.657 155.658 513.339 156.625 513.96 157.955L514.128 158.291C514.496 159.075 514.566 159.861 514.599 160.708L514.51 173.488L514.35 196.127L514.441 230.883C514.418 231.929 514.321 233.006 513.863 233.971C513.324 235.108 512.234 236.131 511.129 236.774C510.6 237.081 509.544 237.414 509.274 237.921L509.695 238.123C511.844 239.181 513.619 240.604 514.322 242.898C514.83 244.555 514.647 246.582 514.638 248.291L514.566 257.138L514.485 281.435L514.515 297.891C514.523 300.78 514.7 303.748 514.499 306.63C514.401 308.018 513.903 309.333 513.145 310.519C512.53 311.483 511.518 312.265 510.648 313.02L510.248 313.077C510.752 312.125 511.416 311.625 512.24 310.945C512.688 310.576 512.331 310.893 512.652 310.344L512.89 310.04L513.053 309.509L513.371 309.129L513.691 308.369L513.932 307.837L513.933 307.002C513.987 301.094 514.416 294.951 513.933 289.073C513.65 285.635 514.018 281.84 514.019 278.351L514.022 253.286C514.022 250.264 514.645 245.823 513.693 243.114L513.613 242.582L513.373 242.202L513.211 241.67C512.933 240.974 512.472 240.766 511.929 240.3L510.968 239.239L510.49 239.238L510.168 239.01L509.857 238.909C509.464 238.768 509.32 238.618 509.047 238.328L508.568 238.326L507.925 237.72L507.655 237.786L507.285 237.872L506.946 237.958C505.807 238.173 504.427 238.032 503.265 238.031L496.124 238.027L464.521 238.173L463.4 238.099C462.066 238.021 460.728 238.203 459.396 238.173L432.488 238.024L431.367 238.099C426.248 238.15 420.84 237.591 415.751 238.064C414.553 238.176 413.368 237.964 412.157 238.103C411.554 238.172 411.219 238.13 410.635 238.062C406.418 237.566 401.571 238.013 397.292 238.018C396.179 238.02 394.138 238.283 393.248 237.72C388.509 237.682 383.721 238.212 378.993 237.72C377.899 237.606 376.552 237.999 375.63 237.416C374.943 237.375 374.557 237.468 373.984 237.089C373.532 236.79 373.117 236.647 372.622 236.438C371.624 236.016 369.889 234.071 369.545 233.086L369.387 232.554L369.225 232.174C369.004 231.546 369.05 231.752 369.143 231.111C368.71 231.796 368.903 232.817 368.903 233.618L369.223 234.074C369.786 235.145 369.843 235.745 370.825 236.656C371.43 237.218 371.708 237.614 372.507 237.948C373.373 238.311 374.061 238.594 374.989 238.783L375.379 238.878C375.925 238.982 376.241 238.789 376.751 238.787C377.399 238.783 377.072 238.85 377.552 239.087C378.358 239.487 380.382 239.253 381.362 239.254C385.709 239.265 390.234 238.893 394.529 239.165C397.388 239.346 415.304 238.703 416.632 239.543L435.333 239.552C437.504 239.526 439.755 239.155 441.938 239.468C443.426 239.683 457.704 239.803 458.595 239.239L464.841 239.09L466.343 239.216L473.25 239.163L473.49 238.787L473.921 238.866C474.454 238.948 474.734 238.896 475.252 238.861C479.26 238.588 483.828 238.701 487.87 238.796C489.929 238.844 492.357 239.267 494.311 238.632C495.38 238.284 496.874 238.598 497.995 238.557C500.154 238.478 502.421 238.638 504.595 238.635C505.559 238.635 506.81 238.433 507.605 238.935C508.733 238.979 508.845 239.047 509.847 239.543L510.307 239.705C511.682 240.249 512.29 241.561 512.865 242.762C513.103 243.257 512.994 243.555 513.131 244.025L513.371 244.557C513.709 245.622 512.978 246.732 513.691 247.748L513.684 268.045C513.684 271.348 513.423 274.859 513.769 278.134C513.979 280.113 513.689 282.333 513.687 284.345L513.689 301.734C513.689 302.773 514.014 305.4 513.691 306.242C513.625 306.413 513.478 306.546 513.371 306.698L513.346 307.234C513.249 308.616 512.167 310.459 511.129 311.408L510.328 312.167L509.69 312.015C510.723 311.085 511.581 310.414 512.134 309.151L512.4 308.61C512.939 307.444 512.711 306.404 513.106 305.33C513.366 304.625 513.23 303.555 513.231 302.794L513.236 297.429L513.227 270.96C513.215 270.331 512.962 269.957 512.951 269.356L512.89 245.162L512.579 244.709L512.594 244.214C512.589 243.543 512.499 243.576 512.253 243.038L512.092 242.581C511.802 241.891 510.402 240.409 509.687 239.996L509.209 239.846L508.748 239.694C506.675 239.038 503.913 239.38 501.699 239.38L486.3 239.391L485.823 239.692C483.266 239.693 468.522 239.19 467.244 239.996H412.262H399.415C398.228 239.996 395.795 240.29 394.849 239.692C392.359 239.692 376.495 240.138 375.309 239.388C374.479 239.388 374.437 239.434 373.708 239.084L373.418 239.019C372.413 238.782 371.947 238.269 371.147 237.719L370.706 237.471C370.14 237.149 370.478 237.397 370.027 236.808C367.935 234.078 368.212 231.389 368.246 228.148L368.502 227.997L368.582 229.971C368.909 229.06 368.907 228.124 369.242 227.207C369.347 230.117 369.579 232.99 371.857 235.184C372.916 236.204 374.498 236.909 375.988 237.082C380.509 237.609 385.365 237.346 389.928 237.375L416.434 237.544L475.568 237.578L506.404 237.417C508.227 237.357 509.999 236.362 511.177 235.061C512.503 233.596 512.85 231.797 513.022 229.929C513.37 226.136 513.126 222.117 513.139 218.305L513.157 193.597L513.283 172.171C513.311 168.537 513.57 164.764 513.299 161.148C513.042 157.711 511.253 156.013 508.668 153.91Z" fill="#AEBEF3"/>
<path d="M107.763 278.894C109.511 278.551 111.52 278.696 113.304 278.696L122.976 278.7L160.192 278.752L171.53 278.78C173.503 278.786 175.604 278.653 177.556 278.89C178.542 279.009 179.409 279.234 180.063 280.008C180.91 281.008 180.691 282.013 180.426 283.148C179.773 283.927 179.414 284.256 178.46 284.667C175.024 285.224 170.821 284.802 167.316 284.799L139.669 284.65L119.157 284.554C115.693 284.54 112.021 284.773 108.593 284.423C107.448 284.305 106.834 284 106.08 283.148C105.689 282.024 105.611 281.426 105.863 280.261C106.439 279.466 106.872 279.285 107.763 278.894Z" fill="#AEBEF3"/>
<path d="M107.624 304.419C110.329 303.921 113.828 304.281 116.622 304.278L135.538 304.259L164.321 304.233C168.669 304.229 173.355 303.883 177.667 304.258C178.724 304.351 179.62 304.803 180.245 305.634C180.795 306.366 180.532 307.526 180.444 308.369C179.863 309.304 179.425 309.744 178.468 310.333C175.98 311.081 172.244 310.663 169.594 310.666L151.183 310.663L109.253 310.598C107.588 310.533 106.923 310.008 105.832 308.859C105.492 307.95 105.376 307.075 105.685 306.129C105.995 305.178 106.735 304.807 107.624 304.419Z" fill="#AEBEF3"/>
<path d="M226.19 280.173C227.269 279.657 227.823 279.273 229.08 279.636L230.75 280.366L230.811 313.125L226.336 313.119L218.989 313.174C217.713 313.184 216.305 313.358 215.145 312.788C214.036 311.398 214.482 308.641 214.473 306.85C214.446 301.605 214.987 295.794 214.168 290.629L214.105 290.265L226.19 280.173Z" fill="#E98981"/>
<path d="M226.19 280.173C227.269 279.657 227.823 279.273 229.08 279.636L230.75 280.366L230.811 313.125L226.336 313.119L226.19 280.173Z" fill="#CE5B5A"/>
<path d="M109.616 261.258C120.465 260.732 131.65 261.258 142.532 261.291L154.588 261.338C156.587 261.35 159.171 261.077 161.013 261.814C162.277 262.32 163.54 263.372 164.002 264.627C164.406 265.722 164.466 267.525 163.851 268.562C162.887 270.188 161.522 271.027 159.683 271.54C151.314 272.087 142.68 271.692 134.273 271.703C126.581 271.712 118.592 272.133 110.942 271.686C110.037 271.633 108.972 271.488 108.155 271.116C106.808 270.501 105.604 269.287 105.2 267.903C104.749 266.356 104.883 264.773 105.789 263.403C106.623 262.141 108.154 261.564 109.616 261.258Z" fill="#AEBEF3"/>
<path d="M230.75 280.366L251.657 289.538L255.708 291.122L255.813 312.775L255.246 313.185L251.397 313.18L230.81 313.125L230.75 280.366Z" fill="#E98981"/>
<path d="M251.657 289.538L255.708 291.122L255.813 312.775L255.246 313.185L251.397 313.18L251.657 289.538Z" fill="#CE5B5A"/>
<path d="M470.82 256.793C470.537 256.273 470.418 256.328 470.61 255.8L470.774 255.555C471.154 254.83 471.043 253.357 470.731 252.625C470.478 252.034 470.483 252.541 470.607 251.853C474.451 251.333 478.897 251.741 482.799 251.748C484.862 251.751 488.034 251.35 489.956 252.016C489.734 253.032 489.501 253.798 489.874 254.817C490.566 255.458 491.154 255.596 492.054 255.818C492.152 256.549 492.184 256.937 491.88 257.621L490.63 257.996L487.995 258.752L475.518 262.91C474.127 263.351 472.393 264.198 470.927 264.207L470.287 263.795L469.814 264.032C469.288 264.288 468.778 264.437 468.215 264.602C464.594 265.66 448.116 276.564 446.453 276.159C444.241 275.62 442.684 275.938 440.526 276.278C439.661 276.414 438.597 275.948 437.773 275.717C434.2 274.711 430.759 273.376 427.279 272.118L427.243 272.071L420.956 269.32C419.198 268.621 417.296 268.49 415.528 267.861C410.594 266.104 405.707 263.863 400.936 261.733C399.816 261.233 396.877 259.525 395.712 259.568C394.266 259.621 392.092 260.861 390.707 261.329C386.346 262.805 382.013 264.353 377.477 265.265C377.294 265.047 377.045 264.868 376.928 264.612C376.766 264.256 376.919 262.924 376.917 262.492C376.911 260.626 376.691 258.451 376.989 256.616C377.126 255.767 377.88 255.09 378.555 254.585C380.572 253.074 385.632 253.737 388.12 253.791C388.938 253.81 390.591 253.646 391.326 253.91C392.102 254.188 392.006 254.447 392.273 255.102L392.361 256.187C393.216 256.825 394.22 257.668 395.398 257.481C396.304 257.338 397.271 256.475 397.893 255.868L410.652 261.059C412.496 261.828 415.584 263.556 417.56 263.526C418.239 263.181 418.749 263.08 419.511 262.991C420.537 263.08 421.108 263.153 421.747 264.004C422.118 264.5 422.325 265.336 422.409 265.93C423.446 266.379 423.675 266.456 424.753 266.09L425.263 265.898L424.825 265.429C430.184 265.67 435.473 268.496 440.817 269.317L441.287 268.906C441.886 268.414 442.576 268.151 443.379 268.206C443.931 268.243 444.453 268.435 444.984 268.562C445.816 268.762 445.944 268.676 446.759 268.404C447.852 267.611 449.636 267.114 450.907 266.561L459.783 262.571C461.632 261.789 464.254 261.098 465.845 259.961C466.845 259.245 466.297 258.3 467.159 257.562C468.228 256.647 469.478 256.744 470.82 256.793Z" fill="#FEFEFE"/>
<path d="M417.56 263.526C418.239 263.181 418.749 263.08 419.511 262.991C420.537 263.08 421.108 263.153 421.747 264.005C422.118 264.5 422.325 265.336 422.409 265.93C421.947 266.764 421.538 267 420.727 267.489L419.034 267.99C418.493 267.604 418.089 267.287 417.745 266.724C417.056 265.599 417.268 264.72 417.56 263.526Z" fill="#233C9D"/>
<path d="M419.512 262.991C420.537 263.08 421.108 263.153 421.747 264.005C422.118 264.5 422.325 265.336 422.409 265.93C421.947 266.764 421.538 267 420.728 267.489C420.549 266.871 420.345 266.247 420.269 265.608C420.154 264.644 419.89 263.894 419.512 262.991Z" fill="#0B119E"/>
<path d="M446.759 268.404C447.852 267.611 449.636 267.114 450.907 266.561L459.783 262.571C461.632 261.789 464.254 261.098 465.845 259.961C466.845 259.245 466.297 258.3 467.159 257.562C468.228 256.647 469.478 256.744 470.82 256.793C471.62 257.504 471.823 257.66 472.172 258.687C471.84 260.053 470.768 260.915 470.287 262.258C469.435 262.476 468.919 262.227 468.139 261.816L467.023 261.027L466.392 260.602L457.492 264.376L450.491 267.579C449.567 267.991 448.242 268.746 447.258 268.916C447.027 269.054 445.989 269.56 445.895 269.726C445.294 270.784 446.164 271.633 444.866 272.713C444.082 273.365 443.384 273.272 442.418 273.207C441.408 272.439 441.128 271.97 440.74 270.794L440.63 270.443C439.569 269.646 437.7 269.444 436.394 269.08L425.263 265.898L424.825 265.429C430.184 265.67 435.473 268.496 440.817 269.317L441.287 268.906C441.886 268.414 442.576 268.151 443.379 268.206C443.931 268.243 444.453 268.435 444.984 268.562C445.816 268.762 445.944 268.676 446.759 268.404Z" fill="#0B119E"/>
<path d="M299.712 258.974C299.395 258.157 299.338 257.734 299.475 256.873C300.046 256.294 300.341 256.14 301.153 255.959C301.93 256.114 302.364 256.173 302.841 256.865C303.319 257.557 303.194 258.238 303.013 258.986C304.51 260.187 306.564 261.039 308.231 262.047C313.976 265.52 319.814 269.234 325.778 272.34C332.915 269.216 338.125 262.23 345.247 259.119L345.493 259.294C346.231 259.048 347.025 258.943 347.792 258.799C347.615 260.459 347.155 262.244 347.249 263.899C344.521 265.73 329.708 275.15 328.841 277.007C327.244 277.626 326.341 277.71 324.642 277.404L324.655 277.311L304.977 266.488L300.449 263.837L299.231 262.963C297.934 263.34 296.392 264.962 295.297 265.772L280.077 277.505L275.927 280.612L260.167 293.716L255.708 291.122L251.657 289.538L230.75 280.366L229.079 279.636C227.822 279.273 227.269 279.657 226.189 280.173L214.105 290.265L212.805 290.745C211.915 290.609 211.422 290.516 210.88 289.77C210.416 289.129 210.008 288.325 210.301 287.554C210.929 285.897 213.638 284.208 215.052 283.102C218.766 280.194 222.326 277.103 226.517 274.828L227.319 275.094C227.539 275.52 227.774 276.115 228.118 276.46C228.468 276.811 229.075 276.983 229.56 277.061C230.178 276.821 230.548 276.643 230.958 276.147C231.436 275.57 231.148 275.844 231.642 275.435C233.537 275.698 235.535 277.361 237.43 277.97C238.417 278.287 239.322 278.806 240.291 279.179C240.83 279.387 241.265 279.731 241.757 279.927L252.636 284.875C253.319 284.257 253.697 283.834 254.706 283.882C255.679 283.928 256.342 284.414 257.09 284.937L258.069 284.361L259.349 283.602C259.846 283.348 260.318 283.143 260.792 282.844L265.594 279.806L267.359 278.587C268.041 278.129 268.751 277.818 269.441 277.381L270.882 276.46C272.009 275.693 273.337 275.171 274.435 274.391L274.725 274.182C275.46 273.838 275.732 273.551 276.299 272.978L276.291 272.791C277.311 272.031 278.139 270.955 279.143 270.132L279.513 270.386C279.976 269.721 280.761 269.54 281.453 269.142L287.236 265.819L288.499 265.066L289.461 264.585L294.446 261.852L296.986 260.358L299.712 258.974Z" fill="#FEFEFE"/>
<path d="M276.291 272.791C277.311 272.031 278.139 270.955 279.143 270.132L279.513 270.386C279.987 271.542 280.163 271.553 279.629 272.75C278.743 273.396 278.611 273.518 277.449 273.63L276.299 272.978L276.291 272.791Z" fill="#0B119E"/>
<path d="M252.636 284.875C253.319 284.257 253.697 283.834 254.706 283.882C255.679 283.928 256.342 284.414 257.09 284.937C256.669 285.733 256.248 286.353 255.667 287.052C254.617 287.344 254.55 287.366 253.52 287.028C252.805 286.156 252.792 285.927 252.636 284.875Z" fill="#0B119E"/>
<path d="M299.712 258.974C299.395 258.157 299.338 257.734 299.475 256.873C300.046 256.294 300.341 256.14 301.153 255.959C301.93 256.114 302.364 256.173 302.841 256.865C303.319 257.557 303.194 258.238 303.013 258.986C304.51 260.187 306.564 261.039 308.231 262.047C313.976 265.52 319.814 269.234 325.778 272.34C332.915 269.216 338.125 262.23 345.247 259.119L345.493 259.294C344.39 260.467 342.668 261.545 341.361 262.528L332.583 268.931C331.335 269.816 328.966 271.094 328.231 272.361C328.465 272.664 328.686 272.921 328.853 273.272C329.305 274.226 329.071 274.928 328.714 275.855C328.083 276.363 327.496 276.73 326.619 276.664C325.728 276.596 325.43 276.131 324.884 275.551C324.692 274.82 324.575 274.492 324.773 273.739C324.97 272.99 324.964 273.477 324.858 272.717L302.755 259.564C301.455 259.707 300.872 259.528 299.712 258.974Z" fill="#0B119E"/>
<path d="M499.519 255.246L500.014 254.835L499.888 292.097C499.863 298.021 500.286 304.303 499.754 310.192C499.673 311.089 499.594 311.458 498.956 312.126L497.091 312.202L471.316 312.429L471.346 312.22C471.674 310.832 471.491 309.131 471.499 307.71L471.512 299.05L471.423 264.934L485.693 260.175L487.671 259.503L488.118 259.324L487.995 258.752L490.63 257.996L491.88 257.621C492.674 257.818 492.943 257.699 493.75 257.5C495.251 256.93 498.66 256.387 499.519 255.246Z" fill="#5ECEBE"/>
<path d="M491.88 257.621C492.674 257.818 492.943 257.699 493.75 257.5L493.841 312.181L493.215 312.134L489.234 312.207L489.399 274.97L489.44 264.847C489.445 262.991 489.641 260.963 489.221 259.143L488.118 259.324L487.995 258.752L490.63 257.996L491.88 257.621Z" fill="#23A793"/>
<path d="M491.88 257.621C492.674 257.818 492.943 257.699 493.75 257.5L493.841 312.181L493.215 312.134L492.824 276.368L492.773 262.617C492.767 261.654 493.042 259.553 492.744 258.687C492.678 258.494 492.508 258.349 492.389 258.18L490.956 258.329L490.63 257.996L491.88 257.621Z" fill="#1B9686"/>
<path d="M166.14 167.301C167.574 167.073 168.687 167.666 169.983 168.179C173.105 169.416 175.969 170.756 178.791 172.543C176.257 179.452 175.904 186.758 174.348 193.846L193.26 190.089C193.543 191.274 194.184 192.931 193.889 194.116L193.651 194.359C194.431 195.749 194.644 197.303 194.998 198.825C196.376 204.763 196.155 211.248 194.261 217.078C193.692 218.83 193.048 220.48 192.302 222.172C192.073 222.691 191.493 223.615 191.519 224.166L190.419 225.827C189.712 227.474 188.514 228.85 187.796 230.449L151.508 200.339L151.886 198.445L151.943 198.424L159.339 173.705C159.645 172.491 160.243 170.697 161.088 169.735C162.306 168.348 164.276 167.479 166.14 167.301Z" fill="#FEFEFE"/>
<path d="M166.14 167.301C167.574 167.073 168.687 167.666 169.983 168.179C173.105 169.416 175.969 170.756 178.791 172.543C176.257 179.452 175.904 186.758 174.348 193.846L156.606 196.861L166.14 167.301Z" fill="#ED5659"/>
<path d="M193.651 194.359C194.431 195.749 194.644 197.303 194.998 198.825C196.376 204.763 196.155 211.248 194.261 217.078C193.692 218.83 193.048 220.48 192.302 222.172C192.073 222.691 191.493 223.615 191.519 224.166L190.419 225.827L180.19 217.859L158.649 200.747L193.651 194.359Z" fill="#7280F9"/>
<path d="M180.19 217.859L180.158 217.061L180.47 216.904C182.515 217.624 184.478 219.258 186.245 220.474C187.983 221.671 189.937 222.79 191.519 224.166L190.419 225.827L180.19 217.859Z" fill="#635BEF"/>
<path d="M115.801 231.966C114.751 231.156 113.85 229.733 113.117 228.652C110.706 225.099 108.885 221.243 108.001 217.089C105.968 207.536 107.394 197.544 113.171 189.361C119.459 180.456 128.615 175.113 139.548 172.926C146.101 171.615 152.896 172.146 159.339 173.705L151.943 198.424L151.886 198.445L151.508 200.339L131.997 218.281L116.144 232.393L115.801 231.966Z" fill="#7280F9"/>
<path d="M129.805 218.195L142.971 206.326C145.552 204.03 148.749 201.685 150.711 198.877L150.896 198.6L151.886 198.445L151.508 200.339L131.997 218.281L116.144 232.393L115.801 231.966C115.875 231.663 115.945 230.969 116.104 230.731C117.014 229.363 118.944 227.913 120.197 226.764L129.805 218.195Z" fill="#635BEF"/>
<path d="M151.508 200.339L187.796 230.449C182.534 238.838 172.37 245.211 162.491 247.621C150.869 250.456 138.788 248.683 128.544 242.84C123.912 240.198 119.205 236.674 116.144 232.393L131.997 218.281L151.508 200.339Z" fill="#F5C54E"/>
<path d="M487.995 258.752L488.117 259.324L487.671 259.503L485.693 260.175L471.423 264.934L471.512 299.05L471.499 307.71C471.491 309.131 471.674 310.832 471.346 312.22L471.316 312.429L465.785 312.476L445.832 312.459L440.661 312.448L422.06 312.438L422.136 281.181L422.146 273.883C422.147 273.043 421.989 272.058 422.415 271.297C424.1 271.503 425.704 272.247 427.26 272.892L427.279 272.118C430.759 273.376 434.2 274.711 437.773 275.717C438.597 275.948 439.661 276.414 440.526 276.278C442.684 275.938 444.241 275.62 446.453 276.159C448.116 276.565 464.594 265.66 468.215 264.602C468.778 264.437 469.288 264.288 469.814 264.032L470.287 263.795L470.927 264.207C472.393 264.198 474.127 263.351 475.518 262.91L487.995 258.752Z" fill="#5ECEBE"/>
<path d="M487.995 258.752L488.117 259.324L487.671 259.503L485.693 260.175L471.423 264.934L471.512 299.05L471.499 307.71C471.491 309.131 471.674 310.832 471.346 312.22L471.316 312.429L465.785 312.476L465.705 281.821L465.65 272.112C465.638 270.502 465.865 268.56 465.33 267.038L453.273 273.728L446.119 277.726L446.088 303.119L446.092 309.217C446.093 310.197 446.264 311.376 445.8 312.263L445.832 312.459L440.661 312.448L440.621 287.631C440.615 284.37 441.013 280.532 440.336 277.375L438.554 276.902L436.172 276.152L432.999 275.075C432.397 274.912 432.629 275.012 432.159 274.791C431.067 274.275 429.839 273.966 428.722 273.49L427.26 272.892L427.279 272.118C430.759 273.376 434.2 274.711 437.773 275.717C438.597 275.948 439.661 276.414 440.526 276.278C442.684 275.938 444.241 275.62 446.453 276.159C448.116 276.565 464.594 265.66 468.215 264.602C468.778 264.437 469.288 264.288 469.814 264.032L470.287 263.795L470.927 264.207C472.393 264.198 474.127 263.351 475.518 262.91L487.995 258.752Z" fill="#1B9686"/>
<path d="M440.336 277.375L444.375 277.357L444.334 277.697C444.036 280.446 444.191 283.29 444.208 286.053L444.548 303.838C444.581 306.519 444.8 309.361 444.461 312.016L445.8 312.263L445.832 312.459L440.662 312.448L440.621 287.631C440.615 284.37 441.013 280.532 440.336 277.375Z" fill="#23A793"/>
<path d="M465.33 267.038C465.754 266.628 466.077 266.547 466.601 266.277L467.048 266.019C467.717 265.705 468.361 265.81 469.076 265.875C469.641 266.234 469.906 266.329 469.979 267.043L470.369 312.002L471.346 312.22L471.316 312.429L465.785 312.476L465.705 281.821L465.65 272.112C465.638 270.502 465.865 268.56 465.33 267.038Z" fill="#23A793"/>
<path d="M422.06 312.438L422.136 281.181L422.146 273.883C422.147 273.043 421.989 272.058 422.415 271.297C424.1 271.503 425.704 272.247 427.26 272.892L428.722 273.49C429.839 273.966 431.067 274.275 432.159 274.791C432.629 275.012 432.397 274.912 432.999 275.075L436.172 276.152L438.554 276.902L440.336 277.375C441.013 280.532 440.615 284.37 440.621 287.631L440.661 312.448L422.06 312.438Z" fill="#5ECEBE"/>
<path d="M377.477 265.265C382.013 264.353 386.346 262.805 390.707 261.329C392.092 260.861 394.266 259.621 395.712 259.568C396.877 259.525 399.816 261.233 400.936 261.733C405.707 263.863 410.594 266.104 415.528 267.861C417.296 268.49 419.198 268.621 420.956 269.32L427.243 272.071L427.28 272.118L427.26 272.892C425.704 272.247 424.101 271.503 422.415 271.297C421.989 272.058 422.147 273.043 422.147 273.883L422.136 281.181L422.06 312.438L418.408 312.488L397.632 312.49L396.868 312.413C392.994 312.717 388.855 312.479 384.949 312.489C383.184 312.493 380.719 312.787 379.07 312.283C378.04 311.969 377.089 311.114 376.638 310.192C375.923 308.734 376.001 271.698 376.533 270.524L376.978 269.958L376.677 269.435C376.4 268.658 376.549 267.222 376.973 266.524C376.668 266.003 376.768 266.304 376.751 265.603L377.477 265.265Z" fill="#5ECEBE"/>
<path d="M377.477 265.265C382.013 264.353 386.346 262.805 390.707 261.329C392.092 260.861 394.266 259.621 395.712 259.568C396.877 259.525 399.816 261.233 400.936 261.733C405.707 263.863 410.594 266.104 415.528 267.861C417.296 268.49 419.198 268.621 420.956 269.32L427.243 272.071L427.279 272.118L427.26 272.892C425.704 272.247 424.101 271.503 422.415 271.297C421.989 272.058 422.147 273.043 422.147 273.883L422.136 281.181L422.06 312.438L418.408 312.488C417.602 312.353 417.271 312.406 416.639 311.864L416.519 269.474C416.151 269.103 415.94 268.888 415.419 268.721C414.611 268.462 413.899 268.076 413.11 267.793L411.186 267.04C406.978 265.501 402.805 263.067 398.533 261.834L398.075 262.181L397.657 312.217L397.632 312.49L396.868 312.413C395.368 312.201 393.78 312.244 392.263 312.195L392.132 261.787L389.478 262.791L389.104 262.909C388.322 263.111 387.486 263.394 386.671 263.393L386.196 263.714L376.973 266.524C376.668 266.003 376.768 266.304 376.751 265.603L377.477 265.265Z" fill="#23A793"/>
<path d="M389.104 262.909L389.478 262.791L392.132 261.787L392.263 312.195C393.78 312.244 395.368 312.201 396.868 312.413C392.994 312.717 388.855 312.479 384.949 312.489C383.184 312.493 380.719 312.787 379.07 312.283C378.04 311.969 377.089 311.114 376.638 310.192C375.923 308.734 376.001 271.698 376.533 270.524L376.978 269.958L376.677 269.435C376.4 268.658 376.549 267.222 376.973 266.524L386.196 263.714L386.671 263.393C387.486 263.394 388.322 263.11 389.104 262.909Z" fill="#5ECEBE"/>
<path d="M386.196 263.714L386.671 263.393C387.486 263.394 388.322 263.111 389.104 262.909L387.701 264.846C386.238 266.814 379.085 273.275 376.604 273.728C376.492 272.629 376.439 271.625 376.533 270.524L376.978 269.958L376.677 269.435C376.4 268.658 376.549 267.222 376.973 266.524L386.196 263.714Z" fill="#44B574"/>
<path d="M386.196 263.714C385.45 264.723 384.077 265.293 382.997 265.953L376.978 269.958L376.677 269.435C376.4 268.658 376.549 267.222 376.973 266.524L386.196 263.714Z" fill="#FEFEFE"/>
<path d="M280.077 277.505L295.297 265.772C296.392 264.962 297.934 263.34 299.231 262.963L300.449 263.837L304.977 266.488L324.655 277.311L324.642 277.404C326.341 277.71 327.244 277.626 328.841 277.007C329.708 275.15 344.521 265.73 347.249 263.899L354.427 263.906C355.314 272.578 354.783 281.674 354.789 290.395C354.792 296.308 355.323 302.636 354.733 308.499C354.618 309.648 354.252 310.822 353.442 311.702C352.479 312.749 351.312 313.292 349.843 313.339L328.008 313.275L255.246 313.185L255.813 312.775L255.708 291.122L260.167 293.716L275.927 280.612L280.077 277.505Z" fill="#E98981"/>
<path d="M275.927 280.612L280.077 277.505L280.214 313.193L275.749 313.113L275.927 280.612Z" fill="#CE5B5A"/>
<path d="M328.841 277.007C329.348 278.314 329.176 279.775 329.179 281.154L329.18 288.128L329.151 312.775C328.714 312.968 328.517 313.026 328.02 313.083L324.448 312.973L324.642 277.404C326.341 277.71 327.244 277.626 328.841 277.007Z" fill="#CE5B5A"/>
<path d="M300.449 263.837L304.977 266.488L305.163 313.095L300.287 313.086L300.449 263.837Z" fill="#CE5B5A"/>
<path d="M369.242 227.207C369.684 226.523 369.385 176.683 369.428 171.537L369.528 162.582C369.551 161.038 369.394 159.247 369.812 157.751C370.41 155.613 372.098 154.21 373.984 153.074C379.657 152.401 385.886 152.875 391.611 152.896L422.886 152.931L477.977 152.984L504.233 153.052C505.774 153.123 507.206 153.469 508.668 153.91C511.253 156.013 513.042 157.711 513.299 161.148C513.57 164.764 513.311 168.537 513.282 172.171L513.157 193.597L513.139 218.305C513.126 222.117 513.37 226.136 513.022 229.929C512.85 231.797 512.503 233.596 511.177 235.061C509.998 236.362 508.227 237.357 506.404 237.417L475.568 237.578L416.434 237.544L389.928 237.375C385.365 237.346 380.509 237.609 375.988 237.082C374.498 236.909 372.916 236.204 371.857 235.184C369.579 232.99 369.347 230.117 369.242 227.207Z" fill="#FEFEFE"/>
<path d="M419.634 179.226L438.197 179.134C441.847 179.129 446.593 178.611 450.106 179.416C450.655 180.072 450.725 180.223 450.872 181.049C450.421 181.871 450.331 181.91 449.465 182.355L428.494 182.191C426.399 182.208 419.781 182.906 418.271 181.656C418.228 181.37 418.134 180.871 418.18 180.593C418.33 179.664 418.848 179.573 419.634 179.226Z" fill="#0B119E"/>
<path d="M419.506 217.513C425.024 216.939 431.137 217.418 436.712 217.408L447.112 217.394C449.194 217.394 451.421 217.231 453.47 217.586C454.208 218.219 454.217 218.255 454.411 219.184C454.017 220.138 453.999 220.084 453.026 220.551L430.212 220.68C426.98 220.69 422.062 221.297 419.034 220.414C418.301 219.794 418.299 219.799 418.143 218.88C418.579 218 418.602 217.972 419.506 217.513Z" fill="#0B119E"/>
<path d="M385.362 222.026C383.047 219.318 381.294 216.299 381.31 212.739C381.325 209.355 382.879 205.915 385.456 203.566C388.375 200.903 392.125 199.942 396.056 200.015L395.677 205.929L395.565 206.019C392.874 206.557 390.681 207.531 389.1 209.795C387.929 211.471 387.34 214.061 387.962 216.025C388.203 216.785 388.644 217.558 389.121 218.206L385.362 222.026Z" fill="#7280F9"/>
<path d="M433.995 189.256L483.143 189.26C485.523 189.267 497.654 188.792 499.009 189.709C499.012 190.563 499.075 190.556 498.476 191.18L483.66 191.273L435.807 191.231L423.771 191.224C422.393 191.223 420.344 191.468 419.034 191.196C418.687 191.124 418.584 191.027 418.328 190.853L418.253 189.709C419.263 188.893 431.703 189.26 433.995 189.256Z" fill="#D0E2FA"/>
<path d="M419.91 208.387C427.189 208.609 489.002 207.849 490.608 208.734C491.022 208.962 491.066 209.512 491.207 209.916C490.738 210.863 490.656 210.822 489.646 211.276L420.316 211.445C419.166 211.389 418.902 211.174 418.153 210.372L418.217 209.46C418.848 208.703 418.933 208.676 419.91 208.387Z" fill="#0B119E"/>
<path d="M462.333 169.806L479.818 169.728C482.798 169.717 486.113 169.439 489.043 169.868C489.834 170.635 489.842 170.716 490.028 171.781L489.474 172.512C487.922 173.093 486.027 172.875 484.368 172.871L474.329 172.831L445.621 172.83L428.36 172.921C425.604 172.947 422.394 173.276 419.683 172.934C418.833 172.827 418.675 172.593 418.073 172.049C417.959 171.206 417.805 171.029 418.279 170.322C419.631 169.708 421.414 169.932 422.901 169.926L433.024 169.913L462.333 169.806Z" fill="#0B119E"/>
<path d="M396.056 200.015C400.237 201.165 404.025 203.13 406.219 206.868C407.003 208.205 407.479 209.464 407.751 210.98L407.834 211.421C408.406 214.755 407.407 218.819 405.263 221.511C403.202 224.097 400.025 225.846 396.611 226.203L395.12 226.283C391.22 225.456 388.293 224.773 385.362 222.026L389.121 218.206C388.644 217.558 388.203 216.785 387.962 216.025C387.34 214.061 387.929 211.471 389.1 209.795C390.681 207.531 392.874 206.557 395.565 206.019L395.677 205.929L396.056 200.015Z" fill="#ED5659"/>
<path d="M395.565 206.019L395.677 205.929L396.042 206.122C398.391 207.326 400.23 208.123 401.123 210.753C401.921 213.106 402.05 215.494 400.697 217.685C399.941 218.911 398.289 220.615 396.771 220.981C396.297 221.095 395.753 221.069 395.266 221.05L395.113 221.384C392.279 220.91 391.029 220.242 389.121 218.206C388.644 217.558 388.203 216.785 387.962 216.025C387.34 214.061 387.929 211.471 389.1 209.795C390.681 207.531 392.874 206.557 395.565 206.019Z" fill="#E98981"/>
<path d="M393.195 211.317C394.826 211.749 395.172 212.964 396.614 213.563L396.932 214.477C396.506 215.085 396.258 215.653 395.471 215.789C394.275 215.998 393.727 215.886 392.62 215.488C392.659 214.082 392.405 212.515 393.195 211.317Z" fill="#F3AD30"/>
<path d="M389.121 218.206C388.644 217.558 388.203 216.785 387.962 216.025C387.34 214.061 387.929 211.471 389.1 209.795C390.681 207.531 392.874 206.557 395.565 206.019C395.743 207.696 395.595 208.605 394.736 210.068L394.529 210.541L393.491 210.638L393.195 211.317C392.405 212.515 392.659 214.082 392.62 215.488C392.947 216.032 392.892 216.207 393.535 216.423C393.954 216.563 394.299 216.711 394.689 216.902L395.013 217.057L395.266 221.05L395.113 221.384C392.279 220.91 391.029 220.242 389.121 218.206Z" fill="#F1B896"/>
<path d="M393.159 166.044C395.283 165.768 397.087 165.916 399.018 166.871C402.23 168.46 404.605 171.047 405.694 174.325L405.846 174.795L406.137 175.651C406.885 178.25 406.424 181.678 405.065 184.01C403.156 187.282 400.37 189.312 396.624 190.318C394.435 190.368 392.543 190.372 390.525 189.422C387.554 188.024 385.027 185.27 384.038 182.251C382.99 179.054 383.273 174.863 384.925 171.918C386.762 168.644 389.557 167.119 393.159 166.044Z" fill="#F5C54E"/>
<defs>
<linearGradient id="paint0_linear_14_190" x1="567.224" y1="263.04" x2="573.258" y2="215.017" gradientUnits="userSpaceOnUse">
<stop stop-color="#3FAA59"/>
<stop offset="1" stop-color="#65D187"/>
</linearGradient>
<linearGradient id="paint1_linear_14_190" x1="37.7242" y1="232.641" x2="22.6829" y2="184.238" gradientUnits="userSpaceOnUse">
<stop stop-color="#43B468"/>
<stop offset="1" stop-color="#70D195"/>
</linearGradient>
<linearGradient id="paint2_linear_14_190" x1="291.258" y1="45.4393" x2="220.147" y2="8.35497" gradientUnits="userSpaceOnUse">
<stop stop-color="#BB8BFE"/>
<stop offset="1" stop-color="#DCBEFE"/>
</linearGradient>
<linearGradient id="paint3_linear_14_190" x1="134.715" y1="489.03" x2="156.009" y2="436.341" gradientUnits="userSpaceOnUse">
<stop stop-color="#EC9719"/>
<stop offset="1" stop-color="#F7B837"/>
</linearGradient>
<linearGradient id="paint4_linear_14_190" x1="138.599" y1="497.417" x2="163.001" y2="430.188" gradientUnits="userSpaceOnUse">
<stop stop-color="#DD7E13"/>
<stop offset="1" stop-color="#FBBD3C"/>
</linearGradient>
<linearGradient id="paint5_linear_14_190" x1="66.3836" y1="190.377" x2="36.4555" y2="145.272" gradientUnits="userSpaceOnUse">
<stop stop-color="#46B86C"/>
<stop offset="1" stop-color="#78D497"/>
</linearGradient>
<linearGradient id="paint6_linear_14_190" x1="324.935" y1="486.141" x2="342.928" y2="313.821" gradientUnits="userSpaceOnUse">
<stop stop-color="#194185"/>
<stop offset="1" stop-color="#1721A9"/>
</linearGradient>
<linearGradient id="paint7_linear_14_190" x1="101.753" y1="398.283" x2="94.6701" y2="386.679" gradientUnits="userSpaceOnUse">
<stop stop-color="#0D1359"/>
<stop offset="1" stop-color="#04058A"/>
</linearGradient>
</defs>
</svg>
