<svg width="627" height="627" viewBox="0 0 627 627" fill="none" xmlns="http://www.w3.org/2000/svg">
<path d="M537.401 501.489L537.882 501.733C539.011 503.131 541.068 503.745 542.808 503.935L544.077 504.027C542.036 506.332 539.974 508.377 537.422 510.113L537.401 501.489Z" fill="#2B458A"/>
<path d="M337.68 50.0559C338.114 49.9259 338.461 49.9167 338.911 49.8987C339.986 51.2353 339.581 53.8439 339.579 55.4961L344.011 56.403C344.854 56.6312 345.257 56.6329 345.702 57.4036C344.632 59.5597 342.22 60.1993 340.098 61.0636L340.149 65.8228C340.007 66.6298 339.781 66.7773 339.188 67.2531C337.469 67.0994 335.501 64.3673 334.382 63.1396C332.976 64.0379 331.229 65.3225 329.535 65.4633C328.931 65.5136 329.185 65.5399 328.626 65.0929C328.268 63.0772 330.302 60.1531 331.242 58.4025C330.161 57.0038 329.018 55.6366 328.247 54.0359L328.655 53.1409C330.39 52.2916 332.766 53.1051 334.597 53.581C335.624 52.3256 336.384 51.0812 337.68 50.0559Z" fill="#FEFEFE"/>
<path d="M541.463 60.4651C541.797 60.3687 541.984 60.2978 542.351 60.2783C543.154 60.2358 543.987 60.6557 544.492 61.2666C545.82 62.8733 545.318 66.5214 545.309 68.5206C547.457 68.2628 550.131 68.0026 552.187 68.6994C553.012 69.3515 553.45 69.7948 553.62 70.8743C553.74 71.6372 553.468 72.0517 553.064 72.6653C550.881 74.1875 547.822 73.8372 545.265 73.8415C545.465 75.5762 545.868 77.7149 545.576 79.4465C545.421 80.3644 544.952 80.9534 544.186 81.4512C543.528 81.72 543.046 81.7059 542.349 81.7268C541.677 81.4506 541.091 81.2241 540.614 80.6516C539.347 79.133 539.981 75.6784 540.09 73.7717C538.317 73.7833 535.749 74.073 534.077 73.5739C533.011 73.2568 532.56 72.5869 532.092 71.6397C532.131 70.5718 532.122 70.1481 532.969 69.425C534.619 68.0167 537.899 68.332 539.925 68.3497C539.763 66.5281 539.77 64.4163 540.053 62.6082C540.217 61.5654 540.629 61.0612 541.463 60.4651Z" fill="#FEFEFE"/>
<path d="M55.9559 340.15C51.2509 340.452 46.0633 340.219 41.8091 338.001C37.7577 335.889 34.7146 332.121 33.3989 327.748L33.2682 327.297C32.6215 325.137 32.5268 322.926 33.1569 320.745L33.3114 320.235C34.2783 316.923 35.9217 313.886 38.7841 311.83C41.7187 309.721 46.2141 308.377 49.8342 308.631C51.8597 308.773 53.9268 309.353 55.942 309.669L55.9559 340.15Z" fill="#B1DAF6"/>
<path d="M59.0822 302.261L53.3748 299.408C42.1495 292.873 34.5522 279.201 31.4283 266.934C28.0908 253.828 30.9219 239.571 37.795 228.094C46.9907 212.74 63.8487 201.849 81.0189 197.532C82.9673 215.025 87.543 231.986 97.1991 246.89C98.5522 248.978 100.05 250.945 101.656 252.845L104.286 255.834C104.488 256.061 105.234 256.733 105.322 256.992C105.446 257.359 105.297 258.419 105.286 258.831C105.223 261.439 104.913 263.994 104.694 266.59C104.354 270.614 103.991 275.08 104.762 279.058C105.858 284.71 108.195 290.041 111.305 294.863C112.498 296.714 114.137 298.502 114.912 300.569L81.7714 300.471C75.7935 300.47 69.2633 299.809 63.3643 300.632C61.7515 300.857 60.5016 301.436 59.1204 302.27L59.0822 302.261Z" fill="#B1DAF6"/>
<path d="M90.8679 247.524L91.6583 247.384C92.3533 247.345 93.3477 247.75 93.8143 248.269C95.0781 249.676 94.5839 252.973 94.5429 254.729C96.0229 254.572 98.428 254.249 99.7738 254.923C100.817 255.446 101.368 256.392 101.61 257.474C101.398 258.32 101.232 259.012 100.596 259.647C99.2479 260.994 96.0847 260.544 94.2913 260.537L94.3151 266.377C93.6998 266.979 93.0189 267.399 92.3049 267.873L91.8457 267.921C91.0338 267.945 90.3486 267.835 89.7792 267.197C88.4854 265.748 88.8797 262.285 88.8705 260.465L87.2534 260.648C85.9308 260.805 84.5617 260.965 83.2734 260.497C82.5962 260.251 81.9643 259.576 81.66 258.931C81.1928 257.941 81.4616 257.054 81.8351 256.096C83.6433 254.598 86.534 255.022 88.7823 255.021C88.7817 253.386 88.5197 250.985 88.9593 249.434C89.2655 248.356 89.9898 248.04 90.8679 247.524Z" fill="#FEFEFE"/>
<path d="M514.805 108.783C526.57 108.504 539.245 113.118 547.879 121.264C556.838 129.714 562.414 141.444 562.653 153.842C562.903 166.829 558.544 178.948 549.384 188.279C541.378 196.434 529.912 202.947 518.213 203.003C517.288 203.008 515.34 203.252 514.518 202.97C509.093 202.465 504.167 201.412 499.259 198.946L498.938 198.857C489.547 195.849 480.597 188.221 475.169 180.171C473.721 178.023 472.574 175.589 471.381 173.29L469.554 169.062C468.596 165.666 467.845 162.551 467.414 159.046C467.034 155.949 466.951 152.469 467.377 149.367C468.286 142.755 470.181 136.833 473.616 131.073C479.833 120.649 490.596 113.296 502.288 110.384L503.911 110.061L506.456 109.17C508.993 108.423 512.159 108.772 514.805 108.783Z" fill="#11A791"/>
<path d="M506.456 109.17C508.993 108.423 512.159 108.772 514.805 108.783L511.012 109.202C513.708 110.02 516.668 109.111 519.327 110.237L511.039 110.25C508.826 110.329 505.883 111.15 503.911 110.061L506.456 109.17Z" fill="#212B5B"/>
<path d="M514.805 108.783C526.57 108.504 539.245 113.118 547.879 121.264C556.838 129.714 562.414 141.444 562.653 153.842C562.903 166.829 558.544 178.949 549.384 188.279C541.378 196.434 529.912 202.947 518.213 203.004C517.288 203.008 515.34 203.252 514.518 202.97C509.093 202.465 504.167 201.412 499.259 198.946C502.605 199.3 505.843 200.718 509.297 201.069C522.021 202.362 534.503 198.804 544.391 190.635C553.103 183.437 559.764 170.935 560.765 159.644C561.812 147.825 557.999 135.872 550.413 126.762C544.629 119.816 536.367 114.4 527.622 112.006C524.903 111.261 522.071 110.91 519.327 110.238C516.668 109.111 513.708 110.02 511.012 109.202L514.805 108.783Z" fill="#2B458A"/>
<path d="M508.944 113.074C512.279 112.637 515.905 112.889 519.233 113.346C530.111 114.838 539.931 120.72 546.528 129.449C552.174 136.917 555.635 148.071 554.277 157.477C553.23 164.729 551.391 171.68 547.032 177.721C539.578 188.051 528.623 194.197 516.177 196.32C505.975 197.718 495.526 195.2 487.226 189.074C478.493 182.629 472.991 172.358 471.411 161.719C469.69 150.132 472.999 138.309 480.059 129.027C486.814 120.145 498.054 114.629 508.944 113.074Z" fill="#5BC898"/>
<path d="M531.984 138.228C532.469 138.12 532.967 138.077 533.464 138.085C534.811 138.105 536.036 138.822 536.962 139.759C537.953 140.76 539.233 142.559 539.091 144.045C538.994 145.047 538.283 146.161 537.678 146.934C535.235 150.059 531.726 152.989 528.896 155.816L514.62 170.229C512.807 171.991 510.775 174.273 508.06 174.205C507.286 174.185 506.769 174.215 506.099 173.822C504.636 172.964 503.439 171.449 502.262 170.229L495.177 162.926C493.069 161.061 488.874 157.896 488.679 154.837C488.582 153.329 489.198 151.884 490.177 150.765C491.131 149.675 492.845 148.601 494.338 148.614C497.537 148.643 500.295 152.431 502.39 154.456L508.812 160.574L520.215 149.155C523.971 145.302 527.092 140.763 531.984 138.228Z" fill="#FEFEFE"/>
<path d="M363.628 117.28L363.691 77.2839L363.69 66.8294C363.689 64.9606 363.545 62.9645 363.771 61.1184C363.915 59.9503 364.431 59.0384 365.248 58.2098C367.053 56.3799 369.304 56.0309 371.77 55.9633L397.118 56.0764L451.078 56.0749L485.945 56.2509L495.85 56.3176C497.63 56.3133 499.557 56.1601 501.324 56.3452C502.345 56.452 503.297 57.0625 504.002 57.7859C505.133 58.9462 505.879 60.2739 506.164 61.871C507.046 66.7988 506.372 72.2905 506.368 77.2845L506.456 109.17L503.911 110.061L502.288 110.384C490.596 113.296 479.833 120.649 473.616 131.073C470.181 136.833 468.286 142.755 467.377 149.367C466.951 152.469 467.034 155.949 467.414 159.046C467.845 162.551 468.596 165.666 469.554 169.062L471.381 173.29L401.381 173.142L380.11 173.067C376.709 173.055 373.043 173.329 369.673 172.941C367.98 172.745 366.64 171.877 365.461 170.68C364.561 169.766 363.936 168.45 363.733 167.191C363.431 165.308 363.554 163.243 363.551 161.339L363.574 151.581L363.628 117.28Z" fill="#FDBE67"/>
<path d="M386.2 109.759C390.48 109.754 415.973 109.19 417.577 110.344C418.246 110.825 418.679 111.82 418.786 112.615C418.933 113.707 418.535 114.628 417.815 115.437C416.924 116.439 415.651 116.351 414.412 116.432L393.378 116.356C390.75 116.374 386.728 116.941 384.251 116.226C383.338 115.963 382.51 115.252 382.19 114.319C381.858 113.35 381.997 111.793 382.626 110.963C383.545 109.748 384.843 109.874 386.2 109.759Z" fill="#FEFEFE"/>
<path d="M384.701 126.209C387.288 125.844 389.886 126.069 392.487 126.099L404.702 126.139L412.284 126.029C413.472 126.007 415.337 125.859 416.464 126.254C417.318 126.554 417.935 127.083 418.348 127.888C418.89 128.944 418.944 130.093 418.463 131.186C418.03 132.171 417.322 132.494 416.367 132.846C414.016 133.245 411.624 133.11 409.249 133.121L398.125 133.162L389.65 133.176C388.069 133.174 386.28 133.337 384.739 132.963C383.846 132.746 383.226 132.173 382.768 131.392C382.255 130.518 382.017 129.596 382.295 128.602C382.673 127.253 383.548 126.843 384.701 126.209Z" fill="#FEFEFE"/>
<path d="M384.036 143.432L385.14 143.295L411.575 143.284C416.242 143.28 421.462 142.661 426.058 143.328C426.975 143.461 427.429 143.814 428.086 144.441C428.637 145.509 428.594 146.23 428.521 147.412C427.992 148.433 427.481 148.911 426.568 149.599C423.016 150.194 419.347 149.884 415.754 149.882L394.324 149.74C392.097 149.727 384.86 150.458 383.24 149.197C382.063 148.282 382.125 146.882 382.133 145.575C382.623 144.515 383.047 144.053 384.036 143.432Z" fill="#FEFEFE"/>
<path d="M384.36 92.9173C391.614 92.4299 399.037 92.7587 406.312 92.7562L446.878 92.7556L473.057 92.7562C477.328 92.755 481.985 92.3686 486.21 92.8756C487.571 93.0385 488.268 93.2614 489.137 94.3549C489.367 95.4259 489.508 96.2708 489.157 97.3344C488.772 98.5027 488.431 98.908 487.35 99.4934L414.792 99.7579L394.887 99.8093C391.708 99.8204 387.985 100.177 384.869 99.7249C383.777 99.5669 383.045 98.9919 382.425 98.1078C381.853 97.2909 381.485 96.1949 381.807 95.1987C382.205 93.9655 383.242 93.3722 384.36 92.9173Z" fill="#FEFEFE"/>
<path d="M387.513 76.0605L418.244 76.4175L463.108 76.4015L480.085 76.2338C482.412 76.235 485.46 75.9711 487.701 76.5742C488.675 76.8363 489.104 77.6947 489.525 78.5281C489.601 79.8727 489.789 81.0593 488.814 82.1364C487.616 83.4602 486.128 83.2863 484.478 83.3763L457.886 83.2796L408.836 83.2747L396.515 83.3071C393.262 83.3763 390.054 83.5667 386.801 83.3371C385.87 83.2716 384.625 83.2949 383.762 82.9612C382.887 82.6226 382.33 81.7029 382.108 80.8242C381.844 79.7784 381.972 78.3052 382.629 77.4302C383.697 76.006 385.909 76.1548 387.513 76.0605Z" fill="#FEFEFE"/>
<path d="M363.628 117.28L363.691 77.2839L363.69 66.8294C363.689 64.9606 363.545 62.9645 363.771 61.1184C363.915 59.9503 364.431 59.0384 365.248 58.2098C367.053 56.3799 369.304 56.0309 371.77 55.9633L397.118 56.0764L451.078 56.0749L485.945 56.2509L495.85 56.3176C497.63 56.3133 499.557 56.1601 501.324 56.3452C502.345 56.452 503.297 57.0625 504.002 57.7859C505.133 58.9462 505.879 60.2739 506.164 61.871C507.046 66.7988 506.372 72.2905 506.368 77.2845L506.456 109.17L503.911 110.061L502.288 110.384L502.48 76.355L502.584 67.3878C502.615 65.4615 502.811 63.4795 502.308 61.6009C501.636 60.8 501.277 60.552 500.253 60.2798L499.946 60.192C497.091 59.4372 493.275 59.938 490.304 59.9821L477.377 60.0105L413.38 60.0056L382.853 60.0064L374.207 60.0077C372.603 60.0077 370.929 59.8763 369.35 60.159C367.612 61.634 367.451 62.7631 367.266 64.9515C366.898 69.3056 367.382 73.8868 367.409 78.2691L367.53 108.631L367.587 147.236C367.597 153.25 367.249 159.51 367.623 165.499C367.688 166.544 368.327 167.521 369.015 168.282C370.294 169.695 372.821 169.438 374.577 169.422L469.554 169.062L471.381 173.29L401.381 173.142L380.11 173.067C376.709 173.055 373.043 173.329 369.673 172.941C367.98 172.745 366.64 171.877 365.461 170.68C364.561 169.766 363.936 168.45 363.733 167.191C363.431 165.308 363.554 163.243 363.551 161.339L363.574 151.581L363.628 117.28Z" fill="#F78635"/>
<path d="M478.511 218.991C479.24 219 482.466 216.247 483.41 215.684C484.531 215.016 485.834 214.397 487.061 213.97C490.354 212.824 493.983 212.646 497.422 212.265C500.42 211.933 503.534 211.333 506.429 210.48C507.684 214.695 509.531 219.015 513.571 221.311C516.377 222.906 520.043 223.454 523.169 224.208L533.811 227.054C541.086 229.198 548.285 231.984 554.766 235.972C568.357 244.335 578.849 257.84 583.439 273.145C587.922 288.096 586.503 304.323 579.012 318.076L573.439 327.31C578.433 334.781 581.988 342.336 585.274 350.685C594.899 375.14 597.845 400.902 592.864 426.784C588.332 450.334 575.401 470.699 559.477 488.173C555.711 492.305 551.584 497 547.067 500.326C546.337 501.102 545.367 501.94 544.955 502.92L544.077 504.027L542.808 503.935C541.068 503.746 539.011 503.131 537.882 501.733L537.401 501.489L537.36 489.929C537.635 487.971 537.557 485.899 537.592 483.92L537.934 477.05C537.992 473.585 538.111 469.927 536.839 466.644C535.312 462.7 531.822 460.62 528.135 459.023L526.714 458.783L508.45 458.897L504.936 458.943L501.69 459.223L496.286 459.315L496.307 451.311C496.292 449.657 496.424 447.726 495.652 446.217C495.132 445.201 494.236 444.451 493.123 444.153C488.138 442.818 482.709 445.25 478.488 447.672L478.511 218.991Z" fill="#B1DAF6"/>
<path d="M501.69 459.223C501.779 457.178 502.196 455.303 502.746 453.344C503.698 454.08 504.555 457.705 504.936 458.943L501.69 459.223Z" fill="#016FDF"/>
<path d="M510.889 255.79L512.346 255.643C512.95 255.862 513.362 256.085 513.757 256.595C515.009 258.211 514.505 260.566 514.322 262.457C516.069 262.197 518.403 261.591 519.95 262.693C520.605 263.159 521.191 264.016 521.288 264.822C521.345 265.294 520.818 266.07 520.515 266.41C519.288 267.788 516.306 267.276 514.641 267.227L514.668 267.641C514.825 270.167 515.008 271.672 513.264 273.644C512.094 274.159 511.608 273.956 510.512 273.547C508.887 271.854 509.404 269.469 509.442 267.277C508.073 267.296 506.309 267.484 505.002 267.073C503.868 266.717 503.335 266.1 502.812 265.078C502.829 264.32 502.92 263.803 503.468 263.23C504.736 261.902 507.687 262.208 509.396 262.142L509.341 258.794C509.454 257.411 509.824 256.671 510.889 255.79Z" fill="#FEFEFE"/>
<path d="M551.26 475.639L555.94 475.431C555.228 478.745 554.166 481.86 552.993 485.037C552.489 486.401 552.026 488.048 551.121 489.204C550.151 490.443 548.477 491.449 547.167 492.3C545.077 493.658 542.784 494.573 540.492 495.53C542.912 496.534 544.906 497.472 546.84 499.312L547.067 500.326C546.337 501.102 545.367 501.94 544.955 502.92L544.077 504.027L542.808 503.935C541.068 503.745 539.011 503.131 537.882 501.733L537.401 501.489L537.36 489.929C537.635 487.971 537.557 485.899 537.592 483.92L537.934 477.05C541.613 477.031 544.98 476.895 548.605 476.462C549.697 476.331 550.301 476.192 551.26 475.639Z" fill="#007180"/>
<path d="M537.882 501.733C540.056 502.007 542.999 501.993 544.955 502.92L544.077 504.027L542.808 503.935C541.068 503.746 539.011 503.131 537.882 501.733Z" fill="#212B5B"/>
<path d="M508.638 397.099C511.431 397.024 514.67 397.076 517.029 398.789C519.541 400.612 521.311 403.345 521.654 406.455C521.978 409.405 521.366 412.081 519.507 414.434L519.19 414.828C517.511 416.94 515.338 417.92 512.971 419.078C510.916 419.224 508.92 418.921 506.988 418.192C504.173 417.129 501.952 414.95 500.81 412.161C499.631 409.282 499.999 405.7 501.261 402.913C502.616 399.922 505.74 398.253 508.638 397.099Z" fill="#FEFEFE"/>
<path d="M509.477 402.602C511.216 402.554 512.831 402.373 514.365 403.338C515.368 403.969 516.223 404.92 516.492 406.096L516.557 406.417C516.774 407.447 516.808 408.293 516.582 409.333C516.094 411.58 514.753 412.591 512.869 413.731C511.81 413.889 510.883 413.97 509.828 413.722C508.283 413.36 507.058 412.305 506.279 410.942C505.562 409.691 505.584 407.557 506.033 406.193C506.664 404.272 507.819 403.53 509.477 402.602Z" fill="#B1DAF6"/>
<path d="M508.45 458.897C507.196 455.606 506.185 452.526 505.744 449.017C506.882 446.929 508.334 443.834 510.818 443.168C513.355 442.487 517.584 444.568 519.453 442.991C519.735 440.341 519.734 437.844 519.569 435.186C521.791 433.823 525.081 431.69 527.627 431.154L534.205 437.029C534.992 433.819 535.059 426.895 538.101 425.093C540.812 423.487 545.068 425.316 548.145 424.834C552.345 424.176 556.668 421.93 560.679 420.475C562.268 419.898 563.915 419.094 565.616 418.995C566.836 420.62 566.427 427.56 566.076 429.712C565.485 433.327 561.011 437.04 561.573 440.6C561.734 441.617 562.399 442.544 562.964 443.377C564.786 446.061 566.331 447.77 565.962 451.198C565.529 452.016 565.123 452.456 564.239 452.751C561.238 453.75 558.65 453.779 555.899 455.596C557.389 458.439 559.246 460.419 561.462 462.719C560.237 465.963 559.174 469.495 555.756 471.038C553.129 472.224 549.317 472.388 547.364 474.689C547.842 475.291 548.347 475.347 549.084 475.455L551.26 475.64C550.301 476.192 549.697 476.331 548.605 476.462C544.98 476.895 541.613 477.031 537.934 477.05C537.992 473.585 538.111 469.927 536.839 466.644C535.312 462.7 531.822 460.62 528.135 459.023L526.714 458.783L508.45 458.897Z" fill="#008D91"/>
<path d="M526.714 458.783C526.229 456.108 525.318 451.281 527.011 448.941C527.235 448.631 527.385 448.519 527.654 448.283L528.105 448.666C527.843 449.782 527.508 450.983 527.482 452.132C527.43 454.439 528.213 456.659 528.135 459.023L526.714 458.783Z" fill="#212B5B"/>
<path d="M519.139 302.895L519.152 302.888C527.835 302.332 536.935 305.098 544.019 310.098C552.686 316.216 558.68 325.636 560.453 336.116C562.207 346.472 560.264 356.564 554.108 365.171C547.203 374.825 537.148 379.61 525.741 381.447C515.955 382.191 506.754 380.018 498.821 374.072C490.181 367.597 484.496 357.67 482.992 347.005C481.546 336.75 484.481 325.794 490.696 317.542C497.674 308.278 508.018 304.436 519.139 302.895Z" fill="#2B458A"/>
<path d="M485.447 333.982C485.48 327.214 490.711 320.024 495.383 315.44C501.957 308.988 512.022 304.44 521.36 304.619C531.611 304.814 542.217 309.8 549.162 317.327C555.771 324.49 559.8 334.745 559.233 344.53C558.641 354.75 554.45 363.45 546.813 370.293C539.139 377.169 528.329 380.226 518.163 379.564C509.194 378.979 499.167 373.425 493.394 366.603C491.572 364.451 489.527 361.636 489.07 358.803C492.317 362.031 494.38 365.254 498.335 367.842C504.371 371.79 512.894 373.693 520.055 372.697L522.29 372.397C530.762 371.074 538.848 366.06 543.814 359.072C548.763 352.109 551.497 342.859 549.994 334.321C548.533 326.022 543.878 318.348 536.868 313.61C529.22 308.441 520.196 306.583 511.121 308.64C502.678 310.554 494.839 317.388 490.457 324.675C488.693 327.607 487.469 330.894 485.608 333.742L485.447 333.982Z" fill="#11A791"/>
<path d="M485.447 333.982L485.608 333.742C487.469 330.894 488.693 327.607 490.457 324.675C494.839 317.388 502.678 310.554 511.121 308.64C520.196 306.583 529.22 308.441 536.868 313.61C543.878 318.348 548.533 326.022 549.994 334.321C551.497 342.859 548.763 352.109 543.814 359.072C538.848 366.06 530.762 371.074 522.29 372.397L520.055 372.697C512.894 373.693 504.371 371.79 498.335 367.842C494.38 365.254 492.317 362.031 489.07 358.803C488.345 357.025 487.403 355.351 486.773 353.532C484.483 346.922 484.335 340.874 485.447 333.982Z" fill="#5BC898"/>
<path d="M533.064 331.104C533.993 330.882 535.292 330.82 536.182 331.214C537.412 331.757 538.419 333.098 538.86 334.336C539.283 335.522 539.072 336.444 538.504 337.533C537.16 340.114 533.782 342.787 531.718 344.878C528.11 348.531 524.56 352.496 520.726 355.889C520.009 356.523 519.233 357.149 518.288 357.392L517.948 357.465C517.589 357.545 517.254 357.626 516.881 357.601C513.896 357.402 510.393 352.917 508.416 350.876C506.628 349.144 504.203 347.17 503.256 344.813C502.811 343.707 502.736 341.953 503.297 340.871C504.144 339.233 506.096 338.68 507.702 338.078C511.909 339.607 514.288 342.699 517.149 345.943L526.175 336.763C528.277 334.617 530.282 332.371 533.064 331.104Z" fill="#FEFEFE"/>
<path d="M92.7678 398.147C94.399 398.126 95.9934 398.099 97.616 398.29C99.5748 398.52 101.502 398.104 103.472 398.127L127.13 398.159L143.952 398.234L146.906 398.246L162.88 398.174L162.86 483.368L162.852 509.989C162.85 514.051 162.509 518.422 162.896 522.449C163.024 523.778 163.76 525.165 164.722 526.083C166.192 527.485 167.402 527.73 169.384 527.863C178.932 528.501 188.535 527.898 198.089 527.845L246.589 527.821L410.858 527.842L410.901 492.084L410.846 479.553C410.851 477.064 410.621 474.314 411.059 471.862L411.136 471.475C411.652 468.765 412.892 466.408 414.721 464.342C420.175 458.18 429.019 459.593 436.371 459.8C441.236 459.937 446.148 460.05 451.01 459.778C450.881 455.861 450.17 451.391 452.957 448.214C454.354 446.622 455.603 446.645 457.581 446.539L465.015 446.648C466.906 446.678 468.771 446.469 470.507 447.331C472.287 448.597 474.279 449.52 476.526 449.146C477.453 448.991 477.953 448.372 478.488 447.672C482.709 445.25 488.138 442.818 493.123 444.153C494.236 444.451 495.132 445.201 495.652 446.217C496.424 447.726 496.292 449.657 496.307 451.311L496.286 459.315L501.69 459.223L504.936 458.943L508.45 458.897L526.714 458.783L528.135 459.023C531.822 460.62 535.312 462.7 536.839 466.644C538.111 469.927 537.992 473.585 537.934 477.05L537.592 483.92C537.557 485.899 537.635 487.971 537.36 489.929L537.401 501.489L537.422 510.114L537.498 529.677C537.522 534.708 538.046 540.215 536.721 545.111C536.04 547.629 534.621 549.929 532.799 551.778C531.286 553.313 529.655 554.53 527.839 555.683C530.715 556.273 534.767 555.75 537.731 555.719C542.311 555.67 572.387 554.919 574.086 555.905C574.487 556.138 574.489 556.483 574.628 556.891C574.508 557.347 574.493 557.887 574.113 558.202C573.633 558.601 573.107 558.688 572.505 558.721C568.548 558.938 564.45 558.736 560.481 558.732L536.299 558.702L462.246 558.654L154.44 558.714L79.6222 558.726L63.4868 558.758C60.6227 558.783 57.4611 559.311 54.6482 558.716C53.5949 558.494 53.2744 558.229 52.7016 557.35L53.0076 556.432C53.5717 555.927 54.1767 555.547 54.9543 555.517L70.0574 555.684L108.34 555.671L108.39 526.003C99.9557 526.059 91.9853 524.282 84.3082 520.813C68.8745 513.838 57.8819 499.605 52.0307 484.012C51.2871 482.03 49.8326 478.558 50.7296 476.583C53.3037 474.895 56.7283 475.054 59.6944 475.075C60.7143 475.082 61.9677 475.246 62.9535 474.979L63.2468 474.872L62.9816 474.045C61.288 468.585 60.5515 463.035 60.0998 457.358C58.4233 436.29 63.6184 416.801 73.4165 398.25L92.7678 398.147ZM143.952 398.234L143.918 477.077L143.865 489.319C143.861 490.108 144.093 492.068 143.849 492.747C143.837 492.783 143.337 493.308 143.254 493.387C141.804 494.77 139.997 495.909 138.411 497.146L127.342 505.711L113.811 516.209C112.256 517.401 110.68 518.956 108.974 519.897C109.317 517.169 109.074 514.618 109.042 511.89L109.05 500.559C109.044 499.399 108.707 497.465 108.96 496.424C108.983 496.327 109.775 495.614 109.863 495.527L114.163 491.231L124.421 480.559C127.113 477.802 130.001 475.23 132.441 472.24L132.258 472.008C127.78 475.136 123.97 479.632 120.342 483.67C116.834 487.573 113.057 491.52 109.118 494.982C108.66 491.355 109.088 487.158 109.085 483.464L109.048 456.618L122.027 443.02C124.9 440.137 127.922 437.703 130.335 434.368C125.947 437.176 122.163 441.569 118.657 445.375L109.012 455.381L109.078 420.642C109.076 416.218 108.676 411.344 109.11 406.97C109.261 405.457 111.778 404.503 111.746 403.335C110.784 403.93 109.978 404.67 109.134 405.419C106.14 403.724 103.712 401.095 100.571 399.709V400.111C103.27 402.009 106.158 403.709 108.362 406.194V455.656L95.5232 442.687C92.4819 439.641 88.5913 435.107 84.6689 433.329C87.5614 436.946 91.4354 439.916 94.7921 443.104L104.53 452.826C105.525 453.808 107.707 455.438 108.351 456.596C108.636 457.108 108.352 492.144 108.349 495.065L92.6913 479.143C89.3971 475.829 85.929 471.148 81.8639 468.907C84.7662 472.727 88.3568 475.996 91.7991 479.32L106.184 493.759C106.658 494.275 108.292 495.738 108.421 496.239C108.784 497.647 108.413 500.282 108.409 501.798L108.375 519.355C100.512 512.227 91.7422 505.88 83.4002 499.312C77.2465 494.467 71.2043 488.985 64.6189 484.764C63.976 484.352 63.3613 484.203 62.6155 484.108L108.385 520.112L108.39 526.003L108.34 555.671L70.0574 555.684L54.9543 555.517C54.1767 555.547 53.5717 555.927 53.0076 556.432L52.7016 557.35C53.2744 558.229 53.5949 558.494 54.6482 558.716C57.4611 559.311 60.6227 558.783 63.4868 558.758L79.6222 558.726L154.44 558.714L462.246 558.654L536.299 558.702L560.481 558.732C564.45 558.736 568.548 558.938 572.505 558.721C573.107 558.688 573.633 558.601 574.113 558.202C574.493 557.887 574.508 557.347 574.628 556.891C574.489 556.483 574.487 556.138 574.086 555.905C572.387 554.919 542.311 555.67 537.731 555.719C534.767 555.75 530.715 556.273 527.839 555.683C526.172 555.419 523.621 556.193 521.837 556.264L512.628 556.284L453.925 556.283L437.391 556.292C434.004 556.319 430.543 556.558 427.168 556.345C424.405 556.17 422.048 555.819 419.437 554.863L419.763 555.513C419.438 555.618 419.155 555.671 418.813 555.676L359.287 555.675L239.719 555.671L182.982 555.668L167.165 555.695C164.172 555.707 160.933 555.952 157.975 555.543C155.387 555.185 152.383 553.023 150.567 551.213C148.35 549.004 147.194 546.701 146.766 543.589C146.117 538.881 146.609 533.608 146.632 528.84L146.646 501.482L146.906 398.246L143.952 398.234Z" fill="#11A791"/>
<path d="M127.13 398.158L143.952 398.234L143.918 477.077L139.266 478.524C139.168 457.945 137.591 437.178 132.756 417.13C131.213 410.732 129.058 404.449 127.13 398.158Z" fill="#B1DAF6"/>
<path d="M73.4165 398.25L92.7678 398.147C85.3436 416.335 81.2889 435.371 79.937 454.942L78.991 478.22C76.3881 477.478 73.7631 476.709 71.1026 476.199C69.6876 475.929 64.0795 475.605 63.2468 474.872L62.9816 474.044C61.288 468.585 60.5515 463.035 60.0998 457.358C58.4233 436.29 63.6184 416.801 73.4165 398.25Z" fill="#B1DAF6"/>
<path d="M143.952 398.234L146.906 398.246L146.646 501.482L146.632 528.84C146.609 533.608 146.117 538.881 146.766 543.589C147.194 546.701 148.35 549.004 150.567 551.213C152.383 553.023 155.387 555.185 157.975 555.543C160.933 555.952 164.172 555.707 167.165 555.695L182.982 555.668L239.719 555.671L359.287 555.675L418.813 555.676C419.155 555.671 419.438 555.617 419.763 555.513L419.437 554.863C422.048 555.819 424.405 556.17 427.168 556.345C430.543 556.558 434.004 556.319 437.391 556.292L453.925 556.282L512.628 556.284L521.837 556.263C523.621 556.192 526.172 555.418 527.839 555.683C530.715 556.273 534.767 555.75 537.731 555.719C542.311 555.67 572.387 554.919 574.086 555.905C574.487 556.138 574.489 556.483 574.628 556.891C574.508 557.347 574.493 557.887 574.113 558.202C573.633 558.601 573.107 558.688 572.505 558.721C568.548 558.937 564.45 558.736 560.481 558.732L536.299 558.702L462.246 558.654L154.44 558.714L79.6222 558.726L63.4868 558.758C60.6227 558.783 57.4611 559.311 54.6482 558.716C53.5949 558.493 53.2744 558.229 52.7017 557.35L53.0076 556.432C53.5717 555.927 54.1767 555.546 54.9543 555.516L70.0574 555.684L108.34 555.671L108.39 526.003L108.385 520.112L62.6155 484.108C63.3613 484.203 63.976 484.352 64.6189 484.764C71.2043 488.985 77.2465 494.467 83.4002 499.312C91.7422 505.88 100.512 512.227 108.375 519.355L108.409 501.798C108.413 500.282 108.784 497.647 108.421 496.239C108.292 495.738 106.658 494.275 106.184 493.759L91.7991 479.32C88.3568 475.996 84.7662 472.727 81.8639 468.907C85.929 471.148 89.3971 475.829 92.6913 479.142L108.349 495.065C108.352 492.144 108.636 457.108 108.351 456.596C107.707 455.438 105.525 453.808 104.53 452.826L94.7921 443.104C91.4354 439.916 87.5614 436.945 84.6689 433.329C88.5913 435.107 92.4819 439.641 95.5232 442.687L108.362 455.656V406.194C106.158 403.709 103.27 402.009 100.571 400.11V399.709C103.712 401.094 106.14 403.724 109.134 405.419C109.978 404.67 110.784 403.93 111.746 403.335C111.778 404.503 109.261 405.456 109.11 406.969C108.676 411.344 109.076 416.218 109.078 420.642L109.012 455.381L118.657 445.375C122.163 441.569 125.947 437.176 130.335 434.368C127.922 437.703 124.9 440.137 122.027 443.02L109.048 456.618L109.085 483.464C109.088 487.158 108.66 491.355 109.118 494.982C113.057 491.52 116.834 487.573 120.342 483.67C123.97 479.632 127.78 475.136 132.258 472.008L132.441 472.24C130.001 475.23 127.113 477.802 124.421 480.559L114.163 491.231L109.863 495.527C109.775 495.614 108.983 496.327 108.96 496.424C108.707 497.465 109.044 499.399 109.05 500.559L109.042 511.89C109.074 514.618 109.317 517.169 108.974 519.897C110.68 518.956 112.256 517.401 113.811 516.209L127.342 505.711L138.411 497.146C139.997 495.909 141.804 494.77 143.254 493.387C143.337 493.308 143.837 492.783 143.849 492.747C144.093 492.068 143.861 490.108 143.865 489.319L143.918 477.077L143.952 398.234ZM143.693 516.061C141.12 517.87 138.494 519.719 135.643 521.068C127.493 524.921 118.158 526.006 109.239 526.008L109.277 555.664L151.094 555.894L151.442 555.921L147.363 551.952C145.817 550.221 144.367 547.412 143.849 545.131C143.006 541.422 143.541 536.985 143.551 533.176C143.565 527.505 143.321 521.717 143.693 516.061Z" fill="#2B458A"/>
<path d="M109.239 526.008L109.3 521.083L143.889 493.884L143.919 508.005C143.918 510.627 144.135 513.48 143.693 516.061C141.12 517.87 138.494 519.719 135.643 521.068C127.493 524.922 118.158 526.006 109.239 526.008Z" fill="#11A791"/>
<path d="M146.906 398.246L162.88 398.174L162.86 483.368L162.852 509.989C162.85 514.051 162.509 518.422 162.896 522.449C163.024 523.778 163.76 525.165 164.722 526.083C166.192 527.485 167.402 527.73 169.384 527.863C178.932 528.501 188.535 527.898 198.089 527.845L246.589 527.821L410.858 527.842C410.765 532.748 410.057 538.723 411.403 543.42L411.551 543.967C412.647 547.913 415.541 552.56 419.111 554.69L419.437 554.863L419.763 555.513C419.438 555.618 419.155 555.671 418.813 555.676L359.287 555.675L239.719 555.671L182.982 555.668L167.165 555.695C164.172 555.707 160.933 555.952 157.975 555.543C155.387 555.185 152.383 553.023 150.567 551.213C148.35 549.004 147.194 546.701 146.766 543.589C146.117 538.881 146.609 533.608 146.632 528.84L146.646 501.482L146.906 398.246Z" fill="#ABACE0"/>
<path d="M478.488 447.672C482.709 445.25 488.138 442.818 493.123 444.153C494.236 444.451 495.132 445.201 495.652 446.217C496.424 447.726 496.292 449.657 496.307 451.311L496.286 459.315L501.69 459.223L504.936 458.943L508.45 458.897L526.714 458.783L528.135 459.023C531.822 460.62 535.312 462.7 536.839 466.644C538.111 469.927 537.992 473.585 537.934 477.05L537.592 483.92C537.557 485.899 537.635 487.971 537.36 489.929L537.401 501.489L537.422 510.113L537.498 529.677C537.522 534.708 538.046 540.215 536.721 545.111C536.04 547.629 534.621 549.929 532.799 551.778C531.286 553.313 529.655 554.53 527.839 555.683C526.172 555.419 523.621 556.192 521.837 556.263L512.628 556.284L453.925 556.282L437.391 556.292C434.004 556.319 430.543 556.558 427.168 556.345C424.405 556.17 422.048 555.819 419.437 554.863L419.111 554.69C415.541 552.56 412.647 547.913 411.551 543.967L411.403 543.42C410.057 538.723 410.765 532.748 410.858 527.842L410.901 492.084L410.846 479.553C410.851 477.064 410.621 474.314 411.059 471.862L411.136 471.475C411.652 468.765 412.892 466.408 414.721 464.342C420.175 458.18 429.019 459.593 436.371 459.8C441.236 459.937 446.148 460.05 451.01 459.778C450.881 455.861 450.17 451.391 452.957 448.214C454.354 446.622 455.603 446.645 457.581 446.539L465.015 446.648C466.906 446.678 468.771 446.469 470.507 447.331C472.287 448.597 474.279 449.52 476.526 449.146C477.453 448.991 477.953 448.372 478.488 447.672Z" fill="#FDBE67"/>
<path d="M465.626 503.315C470.438 503.312 475.925 502.773 480.652 503.463L480.654 508.842L477.143 508.877L469.248 508.826C468.144 508.818 467.105 508.981 466.132 508.366C465.366 506.852 465.612 504.978 465.626 503.315Z" fill="#FEFEFE"/>
<path d="M411.23 486.773L411.331 485.743C412.246 486.313 412.846 488.206 413.484 489.171C414.894 491.308 416.64 493.058 418.859 494.353C420.111 495.084 421.515 495.693 422.949 495.936C426.937 496.609 431.684 496.228 435.761 496.256L465.669 496.287L465.664 499.641L441.101 499.657C436.276 499.649 430.732 500.213 426.005 499.455L425.552 499.376L423.421 498.919C418.683 497.481 414.35 492.853 412.289 488.401C412.03 487.84 411.986 487.589 411.556 487.11L411.23 486.773Z" fill="#F78635"/>
<path d="M483.458 497.286L483.838 493.879C484.251 494.465 484.256 494.983 484.31 495.672C484.345 496.111 484.514 496.182 484.792 496.509L510.266 496.523C514.736 496.522 519.558 496.877 523.989 496.237C528.112 495.642 532.477 492.196 534.737 488.772C535.728 487.269 536.381 485.596 537.435 484.134L537.592 483.92C537.557 485.899 537.635 487.971 537.36 489.929C536.452 490.863 535.622 491.763 534.854 492.821C532.36 496.26 528.636 498.357 524.413 498.932C519.977 499.536 515.098 499.202 510.605 499.229L484.677 499.301C484.661 499.935 484.799 502.43 484.399 502.751C483.885 503.164 483.183 503.292 482.558 503.467C481.65 504.994 482.196 509.177 482.197 511.085L471.71 511.102C471.048 511.105 469.222 511.329 468.75 511.121C468.484 511.004 468.334 510.713 468.126 510.509L467.972 509.284C468.653 508.833 469.474 508.981 470.258 508.982C472.465 508.984 474.975 509.24 477.143 508.877L480.654 508.842L480.652 503.463L480.676 501.249C481.453 501.232 482.251 501.304 482.955 500.931C483.32 499.729 483.369 498.53 483.458 497.286Z" fill="#F78635"/>
<path d="M478.488 447.672C482.709 445.25 488.138 442.818 493.123 444.153C494.236 444.451 495.132 445.201 495.652 446.217C496.424 447.726 496.292 449.657 496.307 451.311L496.286 459.315L501.69 459.223L504.936 458.943L508.45 458.897L526.714 458.783L528.135 459.023C531.822 460.62 535.312 462.7 536.839 466.644C538.111 469.927 537.992 473.585 537.934 477.05L537.592 483.92L537.434 484.134C536.381 485.596 535.728 487.269 534.737 488.772C532.477 492.196 528.112 495.642 523.989 496.237C519.558 496.877 514.736 496.522 510.266 496.523L484.792 496.509C484.514 496.182 484.345 496.111 484.31 495.672C484.256 494.983 484.251 494.465 483.838 493.879L483.458 497.286C483.369 498.53 483.32 499.729 482.955 500.931C482.251 501.304 481.453 501.232 480.676 501.249L480.652 503.463C475.925 502.773 470.438 503.312 465.626 503.315L465.664 499.641L465.669 496.287L435.761 496.256C431.684 496.228 426.937 496.609 422.949 495.936C421.515 495.693 420.111 495.084 418.859 494.353C416.64 493.058 414.894 491.308 413.484 489.171C412.846 488.206 412.246 486.313 411.331 485.743L411.23 486.773C411.143 488.514 411.166 490.368 410.901 492.084L410.846 479.553C410.851 477.064 410.621 474.314 411.059 471.862L411.136 471.475C411.652 468.765 412.892 466.408 414.721 464.342C420.175 458.18 429.019 459.593 436.371 459.8C441.236 459.937 446.148 460.05 451.01 459.778C450.881 455.861 450.17 451.391 452.957 448.214C454.354 446.622 455.603 446.645 457.581 446.539L465.015 446.648C466.906 446.678 468.771 446.469 470.507 447.331C472.287 448.597 474.279 449.52 476.526 449.146C477.453 448.991 477.953 448.372 478.488 447.672Z" fill="#FDBE67"/>
<path d="M465.669 496.287L465.69 489.242L483.438 489.236L483.458 497.286C483.369 498.53 483.32 499.729 482.955 500.931C482.251 501.304 481.453 501.232 480.676 501.249L480.652 503.463C475.925 502.773 470.438 503.312 465.626 503.315L465.664 499.641L465.669 496.287Z" fill="#FEFEFE"/>
<path d="M465.664 499.641L466.086 501.037L475.655 501.11C477.244 501.108 479.147 500.901 480.676 501.249L480.652 503.463C475.925 502.773 470.438 503.312 465.626 503.315L465.664 499.641Z" fill="#D6D4D9"/>
<path d="M478.488 447.672C482.709 445.25 488.138 442.818 493.123 444.153C494.236 444.451 495.132 445.201 495.652 446.217C496.424 447.726 496.292 449.657 496.307 451.311L496.286 459.315L495.408 459.479C494.062 459.642 489.876 459.925 488.849 459.176C486.831 460.576 475.436 459.89 472.408 459.892C471.063 459.893 468.881 460.216 467.654 459.867C467.271 459.758 467.229 459.694 466.955 459.484C465.802 460.156 463.677 459.896 462.319 459.912C458.568 459.957 454.748 460.12 451.01 459.778C450.881 455.861 450.17 451.391 452.957 448.214C454.354 446.622 455.603 446.645 457.581 446.539L465.015 446.648C466.906 446.678 468.771 446.469 470.507 447.331C472.287 448.597 474.279 449.52 476.526 449.146C477.453 448.991 477.953 448.372 478.488 447.672Z" fill="#F78635"/>
<path d="M456.383 454.989C458.387 454.929 460.611 454.68 462.554 455.202L462.234 455.684C461.517 456.592 460.209 457.352 459.029 457.244C457.653 457.118 457.098 456.014 456.383 454.989Z" fill="#2B458A"/>
<path d="M456.383 454.989C456.173 453.916 455.849 452.353 456.556 451.39C457.2 450.514 457.936 450.195 458.987 450.087C460.062 449.977 461.348 450.367 462.161 451.092C463.008 451.847 463.371 452.73 463.206 453.871C463.141 454.322 462.825 454.854 462.554 455.202C460.611 454.68 458.387 454.93 456.383 454.989Z" fill="#2B458A"/>
<path d="M466.955 459.485C468.234 457.083 469.561 454.861 471.936 453.364C474.563 451.708 477.91 451.317 480.893 452.081C484.717 453.06 486.956 455.958 488.849 459.176C486.831 460.576 475.436 459.89 472.408 459.892C471.063 459.893 468.881 460.216 467.654 459.867C467.271 459.758 467.23 459.694 466.955 459.485Z" fill="#FEFEFE"/>
<path d="M117.878 99.7707C121.928 93.5436 127.411 88.2478 133.026 83.4265C150.513 68.4122 171.638 57.5385 194.241 52.7628C228.469 45.5308 265.518 52.6128 294.902 71.7125C301.235 75.829 307.526 80.7942 312.873 86.1182L323.64 97.9014C331.761 106.155 342.993 112.163 354.072 115.321C357.197 116.212 360.444 116.641 363.628 117.28L363.574 151.581L363.551 161.339C363.554 163.243 363.431 165.308 363.733 167.191C363.936 168.45 364.561 169.766 365.461 170.68C366.64 171.877 367.98 172.745 369.673 172.941C373.043 173.329 376.709 173.055 380.11 173.067L401.381 173.142L471.381 173.29C472.574 175.589 473.721 178.023 475.169 180.171C480.597 188.221 489.547 195.849 498.938 198.857L499.259 198.946C504.167 201.412 509.093 202.465 514.518 202.97C512.1 205.861 509.66 208.492 506.429 210.48C503.534 211.333 500.42 211.933 497.422 212.265C493.983 212.646 490.354 212.824 487.061 213.97C485.834 214.397 484.531 215.016 483.41 215.684C482.466 216.247 479.24 219 478.511 218.991C478.664 211.876 479.762 203.258 474.3 197.707C470.58 193.927 465.972 192.849 460.854 192.899L294.869 192.951L294.626 192.553C292.81 189.624 290.522 186.985 288.437 184.246C285.484 180.365 282.328 174.88 277.983 172.467L158.194 172.367C154.026 172.757 150.198 174.959 147.625 178.242C146.022 180.287 145.017 182.814 144.654 185.375C143.962 190.257 144.244 195.474 144.251 200.405L144.221 221.634L144.192 300.642L114.912 300.569C114.137 298.502 112.498 296.714 111.305 294.863C108.195 290.041 105.858 284.71 104.762 279.058C103.991 275.08 104.354 270.614 104.694 266.59C104.914 263.994 105.223 261.439 105.286 258.831C105.297 258.419 105.446 257.359 105.322 256.992C105.234 256.733 104.488 256.061 104.286 255.834L101.656 252.845C100.05 250.945 98.5523 248.978 97.1991 246.89C87.543 231.986 82.9673 215.025 81.0189 197.532L80.7495 195.066C79.4233 181.194 81.9313 167.09 85.8219 153.81C86.2033 152.508 86.5499 149.746 87.2185 148.751C87.8057 147.879 88.9562 147.053 89.669 146.188C89.7798 144.838 89.2091 143.782 88.6923 142.569C89.3757 139.474 91.0522 136.325 92.417 133.473C94.963 128.152 97.5603 122.495 101.319 117.91L101.341 108.645C101.331 106.471 100.82 103.352 102.374 101.658C104.471 99.3703 107.808 99.8167 110.613 99.7959L117.878 99.7707Z" fill="#8FC2F0"/>
<path d="M108.554 199.004C109.456 198.975 110.41 199.101 111.286 199.311C112.704 199.652 114.012 200.8 114.743 202.037C115.498 203.315 115.62 204.86 115.225 206.278C114.557 208.681 112.807 209.835 110.725 210.925L108.531 210.923C106.969 210.719 105.468 209.247 104.704 207.956C103.817 206.454 103.693 204.644 104.228 203.007C104.974 200.721 106.579 200.033 108.554 199.004Z" fill="#FEFEFE"/>
<path d="M313.327 145.442C314.617 145.413 316.133 145.261 317.397 145.511C319.919 146.008 321.938 147.951 323.204 150.095C324.41 152.134 324.804 154.774 324.157 157.056C323.242 160.279 320.764 161.989 318.019 163.555C316.568 163.687 314.639 164.046 313.241 163.61C310.717 162.824 308.572 161.152 307.392 158.764C306.139 156.23 306.064 153.394 307.116 150.78C308.308 147.813 310.573 146.688 313.327 145.442Z" fill="#FEFEFE"/>
<path d="M313.911 147.865C315.249 147.849 316.47 147.903 317.748 148.344C319.338 148.892 320.75 150.195 321.461 151.725C322.234 153.388 322.127 155.265 321.443 156.936C320.595 159.011 318.902 160.166 316.903 160.973C315.792 161.029 314.685 161.091 313.592 160.834C311.856 160.426 310.453 159.345 309.592 157.787C308.744 156.25 308.344 154.736 308.868 153.021C309.729 150.203 311.489 149.216 313.911 147.865Z" fill="#8FC2F0"/>
<path d="M101.319 117.91L101.341 108.645C101.331 106.471 100.82 103.352 102.374 101.658C104.471 99.3703 107.808 99.8167 110.613 99.7959L117.878 99.7708L217.174 100.023C218.555 100.019 219.74 100.826 220.683 101.794C221.52 102.653 221.96 103.92 222.144 105.084C222.882 109.767 222.303 114.955 222.27 119.682C222.234 124.788 222.549 129.922 222.234 135.021C222.105 137.095 221.765 138.819 220.149 140.27C219.189 141.133 218.044 141.638 216.756 141.744C209.42 142.344 201.75 141.809 194.385 141.755L157.018 141.73L122.421 141.745C117.159 141.753 111.623 142.283 106.395 141.739C104.858 141.579 103.516 140.839 102.58 139.602C100.7 137.115 101.308 133.053 101.314 130.098L101.319 117.91Z" fill="#DE524A"/>
<path d="M108.51 103.277L216.112 103.494L216.142 123.153L216.174 130.145C216.178 131.547 216.322 133.105 215.904 134.46C215.456 135.91 214.511 136.472 213.22 137.098L186.857 137.164L138.588 137.159L119.663 137.175C116.052 137.206 111.619 137.734 108.092 137.028C107.168 136.843 106.545 136.592 106.082 135.722C105.164 133.999 105.632 130.305 105.635 128.315L105.619 113.49C105.619 111.234 105.155 107.759 105.916 105.692C106.411 104.345 107.257 103.846 108.51 103.277Z" fill="#F67C6D"/>
<path d="M161.488 115.754C162.621 116.081 163.147 116.585 163.772 117.617C164.508 118.834 164.822 120.313 165.177 121.677C164.381 124.276 163.511 126.826 160.908 128.147C159.597 128.812 157.538 129.231 156.115 128.694C155.328 128.398 154.659 127.76 154.044 127.206C154.137 126.704 154.058 126.911 154.231 126.567L156.75 126.151C158.678 125.637 160.386 124.261 161.332 122.501C162.551 120.236 162.139 118.106 161.488 115.754Z" fill="#8B2D2D"/>
<path d="M186.615 115.478C187.888 115.906 188.56 116.639 189.171 117.859C190.121 119.755 190.146 121.808 189.468 123.784C188.833 125.634 187.193 127.757 185.375 128.562C184.046 129.151 181.686 129.057 180.397 128.428C179.588 128.034 178.978 127.471 178.382 126.81L178.648 126.786L179.092 126.74L181.238 126.487C183.134 126.13 185.048 124.63 186.057 123.022C187.687 120.428 187.338 118.273 186.615 115.478Z" fill="#8B2D2D"/>
<path d="M135.121 114.546C136.844 115.583 138.295 117.059 138.795 119.058C139.387 121.425 138.949 124.164 137.611 126.205C136.716 127.569 134.973 128.584 133.383 128.9C131.812 129.213 130.184 129.003 128.89 127.993L127.951 127.053C128.556 126.508 129.759 126.704 130.582 126.607L130.6 126.553C132.95 125.412 134.606 124.166 135.684 121.679C136.797 119.113 136.062 116.982 135.121 114.546Z" fill="#8B2D2D"/>
<path d="M154.231 126.567L153.665 126.448C151.986 126.113 150.661 125.464 149.448 124.221C148.048 122.785 147.148 120.719 147.224 118.704C147.297 116.785 148.519 114.738 149.965 113.516C151.613 112.122 153.062 111.535 155.219 111.686C158.051 111.883 159.723 113.771 161.488 115.754C162.139 118.106 162.551 120.236 161.332 122.501C160.386 124.261 158.678 125.637 156.75 126.151L154.231 126.567Z" fill="#FEFEFE"/>
<path d="M178.382 126.81L176.901 126.229C174.908 125.318 173.232 123.376 172.569 121.28C171.982 119.421 172.343 116.92 173.348 115.266C174.27 113.751 176.18 112.077 177.96 111.706L178.334 111.64C178.9 111.534 179.438 111.442 180.018 111.454C182.933 111.514 184.748 113.494 186.615 115.478C187.338 118.273 187.687 120.428 186.057 123.022C185.048 124.63 183.134 126.13 181.238 126.487L179.092 126.74L178.648 126.786L178.382 126.81Z" fill="#FEFEFE"/>
<path d="M130.582 126.607C128.373 126.503 126.529 126.492 124.604 125.219C122.715 123.97 121.61 121.952 121.317 119.744C121.035 117.624 121.672 115.549 123.007 113.889C124.172 112.44 125.898 111.534 127.76 111.441C130.69 111.296 133.005 112.668 135.121 114.546C136.062 116.982 136.797 119.113 135.684 121.679C134.606 124.166 132.95 125.412 130.6 126.553L130.582 126.607Z" fill="#FEFEFE"/>
<path d="M144.192 300.642L144.221 221.634L144.251 200.405C144.244 195.474 143.962 190.257 144.654 185.375C145.017 182.814 146.022 180.287 147.625 178.242C150.198 174.959 154.026 172.757 158.194 172.367L277.983 172.467C282.328 174.88 285.484 180.365 288.437 184.246C290.522 186.985 292.81 189.624 294.626 192.553L294.869 192.951L460.854 192.899C465.972 192.849 470.58 193.927 474.3 197.707C479.762 203.258 478.664 211.876 478.511 218.991L478.488 447.672C477.953 448.372 477.453 448.991 476.526 449.146C474.279 449.52 472.287 448.597 470.507 447.331C468.771 446.469 466.906 446.678 465.015 446.648L457.581 446.539C455.603 446.645 454.354 446.622 452.957 448.214C450.17 451.391 450.881 455.861 451.01 459.778C446.148 460.05 441.236 459.937 436.371 459.8C429.019 459.593 420.175 458.18 414.721 464.342C412.892 466.408 411.652 468.765 411.136 471.475L411.059 471.862C410.621 474.314 410.851 477.064 410.846 479.553L410.901 492.084L410.858 527.842L246.589 527.821L198.089 527.845C188.535 527.898 178.932 528.501 169.384 527.863C167.402 527.73 166.192 527.485 164.722 526.083C163.76 525.165 163.024 523.778 162.896 522.449C162.509 518.422 162.85 514.051 162.852 509.989L162.86 483.368L162.88 398.174L146.906 398.246L143.952 398.234L127.13 398.158L103.472 398.127C101.502 398.104 99.5748 398.52 97.616 398.29C95.9934 398.099 94.399 398.126 92.7678 398.147L73.4165 398.25L69.3729 398.495C65.3696 398.58 61.0061 398.428 58.02 395.396C56.9027 394.261 56.2948 393.115 56.0221 391.552C55.6525 389.432 55.8302 387.147 55.876 385.003L55.9273 376.657L55.9559 340.15L55.942 309.669C56.1432 306.578 56.937 304.527 59.0822 302.261L59.1204 302.27C60.5016 301.436 61.7515 300.857 63.3643 300.632C69.2633 299.809 75.7935 300.47 81.7714 300.471L114.912 300.569L144.192 300.642Z" fill="#FEFEFE"/>
<path d="M197.095 257.357L209.748 263.08C212.132 264.166 214.727 265.084 216.853 266.644C213.905 272.272 209.757 277.433 203.444 279.379C198.155 281.009 193.637 280.469 188.442 278.834L197.095 257.357Z" fill="#F67C6D"/>
<path d="M197.501 236.406C203.961 237.375 209.953 240.245 213.986 245.533C217.765 250.488 218.559 257.095 217.671 263.107L216.853 266.644C214.727 265.084 212.132 264.166 209.748 263.08L197.095 257.357L197.501 236.406Z" fill="#FDBE67"/>
<path d="M241.787 271.71C245.035 271.002 248.937 271.522 252.27 271.569L272.668 271.848L324.655 271.771C326.079 271.795 327.261 271.783 328.601 272.322C329.16 272.977 329.473 273.224 329.378 274.159C329.259 275.331 328.592 275.833 327.736 276.452L325.134 276.743L273.73 276.757L252.426 276.769C249.232 276.768 245.797 277.018 242.626 276.744C241.622 276.658 241.263 276.19 240.579 275.537C240.268 274.717 240.117 274.126 240.317 273.241C240.477 272.536 241.236 272.103 241.787 271.71Z" fill="#D6D4D9"/>
<path d="M222.705 471.829L222.466 472.018C221.273 472.944 219.807 473.704 218.244 473.459C217.308 473.313 216.681 472.829 215.971 472.24C215.62 471.362 215.43 471.137 215.744 470.207C216.383 468.315 219.264 465.631 220.583 464.047L231.961 450.25C234.421 447.248 236.666 443.925 239.324 441.11C239.911 440.488 240.446 440.026 241.264 439.749C242.198 439.433 243.668 439.417 244.562 439.859C246.039 440.592 271.452 468.066 272.421 470.097C272.412 471.181 272.461 471.915 271.593 472.735C270.733 473.545 269.486 473.835 268.343 473.586C267.709 473.447 267.068 473.029 266.506 472.718L265.247 472.008C265.14 471.058 264.068 469.784 263.444 469.063C260.309 465.439 256.703 462.232 253.464 458.704C249.886 454.806 246.709 450.553 242.802 446.968C241.664 447.799 240.75 449.182 239.856 450.285L234.383 457.022L228.533 463.964C226.586 466.127 223.607 469.046 222.705 471.829Z" fill="#DE524A"/>
<path d="M328.476 469.348C327.295 470.715 325.156 473.572 323.297 473.853C322.243 474.013 321.119 473.97 320.268 473.272C319.496 472.64 318.873 470.996 319.027 470.017C319.127 469.382 319.678 468.673 320.094 468.208C322.845 465.135 326.159 462.339 329.094 459.419L341.819 446.655C343.816 444.616 346.341 441.076 348.908 439.847C349.463 439.581 349.866 439.514 350.469 439.482C351.569 439.959 352.455 440.596 353.34 441.4C356.481 444.255 359.204 447.57 362.177 450.594L374.005 462.553C376.16 464.732 378.896 467.044 380.522 469.638C380.597 470.79 380.615 471.692 379.854 472.631C379.125 473.53 378.439 473.717 377.333 473.882C374.768 473.215 373.058 471.15 371.227 469.358C370.649 466.813 353.42 450.442 350.278 447.445C345.523 451.411 341.204 456.173 336.804 460.549C334.138 463.202 330.384 466.13 328.476 469.348Z" fill="#016FDF"/>
<path d="M220.082 399.103C222.601 398.799 225.427 399.03 227.982 399.007L227.851 379.322L255.926 379.318L255.84 398.94L220.082 399.103Z" fill="#FDBE67"/>
<path d="M188.442 278.834C186.795 278.045 185.204 277.188 183.744 276.085C179.147 272.613 176.05 267.355 175.341 261.625C174.613 255.748 175.927 249.217 179.782 244.594C184.313 239.163 190.687 237.066 197.501 236.406L197.095 257.357L188.442 278.834Z" fill="#ABACE0"/>
<path d="M386.195 322.432L379.251 322.399C378.609 322.396 377.621 322.533 377.038 322.266L387.184 309.178L395.425 298.395C397.19 296.185 398.956 293.847 401.135 292.033C406.439 296.79 410.521 303.355 414.859 309.003C418.374 313.578 422.096 317.883 425.379 322.644L413.755 322.694L386.195 322.432Z" fill="#6FB56E"/>
<path d="M242.025 255.484C244.04 255.203 246.178 255.418 248.214 255.46L257.132 255.555L291.272 255.642L394.804 255.642L416.108 255.597C419.651 255.549 424.415 254.813 427.814 255.526C428.714 255.715 429.258 255.976 429.685 256.821C430.033 257.51 429.987 258.271 429.79 258.991C429.505 260.023 428.905 260.378 428.036 260.852L243.203 260.861C241.645 260.776 241.323 260.413 240.333 259.311C240.089 258.515 239.927 257.96 240.223 257.151C240.558 256.237 241.168 255.836 242.025 255.484Z" fill="#D6D4D9"/>
<path d="M266.974 398.943L266.916 363.72L295.804 363.401C295.803 367.203 295.361 397.554 296.049 398.874L298.512 399.165L266.974 398.943Z" fill="#4E95E4"/>
<path d="M420.535 239.576L421.691 239.535C423.737 239.469 427.89 238.864 429.304 240.576C430.073 241.508 429.857 243.722 429.878 244.908L248.224 245.377C246.408 245.395 242.615 245.776 241.132 244.769C240.476 244.323 240.2 243.629 240.099 242.87C239.938 241.658 240.455 240.77 241.187 239.87C242.974 239.151 246.577 239.641 248.587 239.666L261.971 239.689L420.535 239.576Z" fill="#D6D4D9"/>
<path d="M147.604 218.341L162.9 218.299L162.928 300.613L147.497 300.644L147.604 218.341Z" fill="#ABACE0"/>
<path d="M306.196 399.228L306.234 398.75L306.436 348.703L335.557 348.697L335.551 399.232L306.196 399.228Z" fill="#B1DAF6"/>
<path d="M222.705 471.828C223.607 469.046 226.586 466.127 228.533 463.964L234.384 457.022L239.856 450.285C240.75 449.182 241.664 447.799 242.802 446.968C246.709 450.553 249.886 454.806 253.464 458.704C256.703 462.232 260.309 465.439 263.444 469.063C264.068 469.784 265.14 471.058 265.247 472.008C264.647 474.493 265.109 478.119 265.108 480.711V502.243L223.195 501.94L223.195 483.673C223.195 479.979 223.59 475.888 222.806 472.274L222.705 471.828Z" fill="#F67C6D"/>
<path d="M328.476 469.348C330.384 466.13 334.138 463.202 336.804 460.549C341.204 456.173 345.523 451.411 350.278 447.445C353.42 450.442 370.649 466.813 371.227 469.358C370.676 473.432 371.014 477.448 371.018 481.538L370.984 502.518L328.806 502.396L328.808 481.519C328.808 477.686 329.136 473.596 328.551 469.81L328.476 469.348Z" fill="#4E95E4"/>
<path d="M346.623 399.227L346.57 332.315L375.011 332.342L375.019 399.229L346.623 399.227Z" fill="#F67C6D"/>
<path d="M266.974 398.943L298.512 399.165L306.196 399.228L335.551 399.232L346.623 399.227L375.019 399.229L382.542 399.161L422.008 399.176C422.853 399.28 423.44 399.465 424.118 399.987C425.165 400.794 425.95 402.019 426.079 403.356C426.208 404.693 425.746 406.335 424.786 407.304C424.419 407.676 423.646 408.45 423.177 408.654C422.818 408.811 421.715 408.707 421.266 408.71L415.323 408.711L383.289 408.713L219.231 408.707L219.261 399.529L220.082 399.103L255.84 398.94L266.974 398.943Z" fill="#212B5B"/>
<path d="M386.195 322.432L413.755 322.694L413.898 398.97C416.409 398.979 419.589 398.614 422.008 399.176L382.542 399.161L386.029 398.919L386.195 322.432Z" fill="#5BC898"/>
<path d="M162.928 300.613L180.073 300.504C183.303 300.446 187.105 299.887 190.274 300.439C191.763 300.699 193.314 301.535 194.377 302.607C195.616 303.857 196.592 305.509 196.811 307.266C197.248 310.773 196.945 314.412 196.931 317.939L196.906 337.591L196.863 372.679L196.811 389.911C196.689 392.553 195.923 394.584 193.947 396.411C192.858 397.418 191.289 398.103 189.814 398.261C187.008 398.561 183.922 398.188 181.08 398.176L162.88 398.174L146.906 398.246L143.952 398.234L127.13 398.158L103.472 398.127C101.502 398.104 99.5748 398.52 97.616 398.29C95.9934 398.099 94.399 398.126 92.7678 398.147L73.4165 398.25L69.3729 398.495C65.3696 398.58 61.0061 398.429 58.02 395.396C56.9027 394.261 56.2948 393.115 56.0221 391.552C55.6525 389.433 55.8302 387.147 55.876 385.003L55.9273 376.657L55.9559 340.15L55.942 309.669C56.1432 306.578 56.937 304.527 59.0822 302.261L59.1204 302.27C60.5016 301.436 61.7515 300.857 63.3643 300.632C69.2633 299.809 75.7935 300.47 81.7714 300.471L114.912 300.569L144.192 300.642L147.497 300.644L162.928 300.613Z" fill="#F78635"/>
<path d="M63.9325 302.589C68.4648 302.862 72.9585 302.653 77.4926 302.617L97.079 302.591L161.383 302.767L181.896 302.773C184.324 302.776 188.934 302.292 191.128 303.442C192.701 304.266 194.017 305.802 194.428 307.547C194.997 309.964 194.696 312.959 194.701 315.438L194.672 330.923L194.426 390.824C194.431 391.593 194.562 391.879 194.115 392.535C192.935 394.267 191.627 395.245 189.57 395.614L154.955 395.554L93.8877 395.551L65.6396 395.813C64.3538 395.775 62.8126 395.755 61.6505 395.137C60.0662 394.296 58.8177 392.821 58.3683 391.084C57.8984 389.268 58.1591 386.808 58.1659 384.924L58.1758 373.216L58.3718 320.707L58.4366 310.775C58.4435 309.738 58.2441 308.153 58.4607 307.168C58.4866 307.049 58.7966 306.495 58.8912 306.35C60.0897 304.522 61.8146 303.103 63.9325 302.589Z" fill="#FDBE67"/>
<path d="M147.025 363.555L170.833 363.452C171.732 363.568 172.304 364.234 172.823 364.905C172.925 365.897 172.66 366.173 172.211 367.043C171.173 367.707 170.576 367.625 169.363 367.697L150.889 367.701C149.145 367.698 146.209 368.071 144.609 367.619C144.028 367.454 143.475 366.81 143.057 366.394C142.701 365.293 142.751 365.355 143.252 364.3C144.321 363.459 145.719 363.609 147.025 363.555Z" fill="#FEFEFE"/>
<path d="M144.083 335.084C145.427 334.658 146.932 334.875 148.331 334.89L157.026 334.933C163.315 334.945 169.663 334.558 175.94 334.889C176.908 334.94 177.725 335.056 178.64 335.386C179.185 335.975 179.502 336.248 179.62 337.074C179.266 337.897 179.012 338.306 178.334 338.931C175.609 339.337 172.441 339.074 169.682 339.05L154.874 338.952L148.004 338.933C146.956 338.93 145.487 339.066 144.5 338.693C143.598 338.352 143.452 337.71 143.059 336.921C143.307 335.951 143.383 335.798 144.083 335.084Z" fill="#FEFEFE"/>
<path d="M147.193 320.69L177.568 320.827C178.501 320.964 178.677 321.18 179.241 321.919C179.376 323.043 179.266 323.223 178.822 324.215C177.849 324.921 176.918 324.776 175.749 324.834L144.81 324.913C143.769 324.841 143.476 324.529 142.804 323.776C142.714 322.695 142.581 322.393 143.126 321.425C144.208 320.516 145.839 320.725 147.193 320.69Z" fill="#FEFEFE"/>
<path d="M144.321 349.779C146.848 349.35 149.342 349.577 151.888 349.597L163.559 349.63L173.978 349.508C175.26 349.513 177.166 349.411 178.334 349.925C179.106 350.266 179.089 350.71 179.365 351.463C179.219 352.474 178.718 352.883 178.028 353.563C176.619 354.045 174.923 353.92 173.451 353.924L165.959 353.936L152.082 353.924C149.616 353.917 146.129 354.288 143.835 353.375C143.184 352.548 143.105 352.35 142.931 351.31C143.356 350.392 143.461 350.325 144.321 349.779Z" fill="#FEFEFE"/>
<path d="M97.2266 315.467C100.361 315.21 104.328 315.287 107.382 316.089C111.462 317.159 115.405 318.312 118.901 320.788C126.47 326.148 131.309 333.842 132.814 343.028C134.08 350.753 131.705 360.199 127.029 366.486C121.028 374.553 112.866 379.106 102.94 380.521C99.9006 380.654 96.8666 380.622 93.87 380.045C86.1249 378.556 77.8607 373.639 73.4043 367.034C70.0758 362.103 67.6217 357.255 67.0498 351.228C66.2746 343.062 68.2769 335.595 72.9298 328.833C74.7838 326.139 77.5619 323.216 80.2505 321.342L80.7477 321.001C85.8445 317.459 91.1256 315.968 97.2266 315.467Z" fill="#F78635"/>
<path d="M96.6615 317.555C103.347 316.645 110.829 318.761 116.459 322.371C122.99 326.559 128.406 333.705 129.989 341.362C131.618 349.251 129.969 357.581 125.455 364.251C120.413 371.701 113.155 375.8 104.462 377.427C96.8746 378.483 89.868 377.087 83.4492 372.883C76.4707 368.313 71.5172 360.772 69.8327 352.654C68.3608 345.557 70.2118 337.433 74.1917 331.41C79.4165 323.504 87.6453 319.41 96.6615 317.555Z" fill="#FEFEFE"/>
<path d="M98.8964 325.911L119.881 344.702L114.461 344.875L114.508 355.196C114.508 356.737 114.838 358.668 113.772 359.913C111.855 362.15 102.834 361.077 99.9869 360.957L90.1668 361.176C88.3513 361.215 86.1194 361.613 84.6511 360.306C84.2127 359.915 84.0584 359.525 83.928 358.964C83.6378 357.716 83.8441 355.96 83.846 354.66L83.8888 344.546L78.5262 344.371C80.0037 342.099 82.1303 340.427 84.1062 338.605L98.8964 325.911Z" fill="#8B2D2D"/>
<path d="M144.192 300.642L144.221 221.634L144.251 200.405C144.244 195.474 143.962 190.257 144.654 185.375C145.017 182.814 146.022 180.287 147.625 178.242C150.198 174.959 154.026 172.757 158.194 172.367L277.983 172.467C282.328 174.88 285.484 180.365 288.437 184.246C290.522 186.985 292.81 189.624 294.626 192.553L294.869 192.951L460.854 192.899C465.972 192.849 470.58 193.927 474.3 197.707C479.762 203.258 478.664 211.876 478.511 218.991L478.488 447.672C477.953 448.372 477.453 448.991 476.526 449.146C474.279 449.52 472.287 448.597 470.507 447.331C468.771 446.469 466.906 446.678 465.015 446.648L457.581 446.539L457.561 293.102L457.653 248.604C457.692 240.191 458.164 231.497 457.553 223.107C457.433 221.444 457.234 220.319 455.979 219.087C454.996 218.123 453.506 218.041 452.187 217.997L420.798 218.014L363.662 218.265L162.9 218.299L147.604 218.341L147.497 300.644L144.192 300.642Z" fill="#2B458A"/>
<path d="M193.734 188.887C194.767 188.865 195.579 188.958 196.553 189.328C198.271 189.979 199.399 191.17 200.128 192.842C200.811 194.414 200.683 196.301 199.989 197.849C198.975 200.113 197.272 201.05 195.047 201.898C193.978 201.832 192.989 201.66 191.973 201.304C190.432 200.764 189.229 199.649 188.573 198.148C187.772 196.312 187.894 194.317 188.738 192.512C189.758 190.331 191.604 189.623 193.734 188.887Z" fill="#FDBE67"/>
<path d="M171.497 189.2C172.767 189.162 173.948 189.255 175.185 189.566C176.667 189.938 178.021 191.102 178.768 192.417C179.545 193.785 179.697 195.765 179.197 197.255C178.442 199.503 176.634 200.814 174.575 201.764C173.552 201.783 172.407 201.862 171.402 201.648C169.844 201.315 168.459 200.241 167.597 198.927C166.52 197.286 166.446 195.567 166.926 193.708C167.534 191.353 169.518 190.272 171.497 189.2Z" fill="#FDBE67"/>
<path d="M213.228 188.917L215.837 188.932C217.366 189.159 218.87 190.131 219.792 191.351C220.902 192.817 221.379 194.576 221.033 196.397C220.518 199.109 218.425 200.508 216.227 201.86C215.19 201.983 213.965 201.904 212.957 201.62C211.337 201.163 210.011 199.976 209.243 198.502C208.363 196.813 208.053 194.704 208.713 192.874C209.491 190.719 211.316 189.845 213.228 188.917Z" fill="#6FB56E"/>
<path d="M144.192 300.642L144.221 221.634L144.251 200.405C144.244 195.474 143.962 190.257 144.654 185.375C145.017 182.814 146.022 180.287 147.625 178.242C150.198 174.959 154.026 172.757 158.194 172.367L277.983 172.467C282.328 174.88 285.484 180.365 288.437 184.246C290.522 186.985 292.81 189.624 294.626 192.553L294.869 192.951L460.854 192.899C465.972 192.849 470.58 193.927 474.3 197.707C479.762 203.258 478.664 211.876 478.511 218.991L478.488 447.672C477.953 448.372 477.453 448.991 476.526 449.146C474.279 449.52 472.287 448.597 470.507 447.331L470.531 208.49C470.417 203.968 466.582 198.549 462.443 196.865C460.917 196.244 458.857 196.028 457.223 195.96L440.26 195.925L407.748 195.911L314.865 195.897L296.345 195.919C295.339 195.917 292.292 196.246 291.469 195.906C289.539 195.11 281.586 183.492 279.717 181.074C278.089 178.967 276.46 176.991 274.509 175.172C267.235 174.565 259.529 175.112 252.211 175.115L205.727 175.124L176.54 175.104C171.077 175.066 165.025 174.459 159.65 175.317L159.199 175.395C157.232 175.704 155.351 176.434 153.715 177.587C151.624 179.059 149.712 181.303 148.911 183.748C147.836 187.025 148.154 190.639 148.149 194.044L148.057 209.61C148.006 212.38 148.124 215.329 147.657 218.062L147.604 218.341L147.497 300.644L144.192 300.642Z" fill="#212B5B"/>
</svg>
